<svg xmlns="http://www.w3.org/2000/svg" width="27.786" height="27.765" viewBox="0 0 27.786 27.765"><g id="_001-lucky" data-name="001-lucky" transform="translate(1.748 1.455)"><path id="Tracciato_352" data-name="Tracciato 352" d="M1.482,412.887a4.2,4.2,0,0,0,2.01-.035,4.154,4.154,0,0,0,3.215,5.152,4.3,4.3,0,0,0,.8.076,4.164,4.164,0,0,0,4.171-4.163V406.98a2.316,2.316,0,0,0-2.313-2.313H2.426a4.163,4.163,0,0,0-.944,8.22Zm-1.55-6.122a3.23,3.23,0,0,1,2.494-1.173H9.365a1.388,1.388,0,0,1,1.388,1.388v6.938a3.23,3.23,0,0,1-1.173,2.494,3.235,3.235,0,0,1-4.816-4.194.462.462,0,0,0-.637-.636,3.233,3.233,0,0,1-4.878-2.116A3.266,3.266,0,0,1-.068,406.766Zm0,0" transform="translate(0 -391.771)" fill="#093eb3"></path><path id="Tracciato_353" data-name="Tracciato 353" d="M51.388,459.8a.463.463,0,0,0,.463-.463,1.388,1.388,0,0,1,1.388-1.388.462.462,0,1,0,0-.925,2.313,2.313,0,0,0-2.313,2.313A.463.463,0,0,0,51.388,459.8Zm0,0" transform="translate(-50.812 -442.281)" fill="#093eb3"></path><path id="Tracciato_354" data-name="Tracciato 354" d="M169.2,457.952h4.625a.462.462,0,1,0,0-.925H169.2a.462.462,0,1,0,0,.925Zm0,0" transform="translate(-164.462 -442.281)" fill="#093eb3"></path><path id="Tracciato_355" data-name="Tracciato 355" d="M405.863,417.124a4.162,4.162,0,0,0,2.663.957,4.259,4.259,0,0,0,.8-.076,4.154,4.154,0,0,0,3.217-5.151,4.22,4.22,0,0,0,2.01.035,4.163,4.163,0,0,0-.947-8.222h-6.938a2.315,2.315,0,0,0-2.313,2.313v6.938A4.151,4.151,0,0,0,405.863,417.124Zm-.583-10.145a1.388,1.388,0,0,1,1.388-1.388h6.938a3.23,3.23,0,0,1,2.494,1.173,3.235,3.235,0,0,1-4.194,4.817.463.463,0,0,0-.637.636,3.236,3.236,0,1,1-5.989,1.7Zm0,0" transform="translate(-391.753 -391.77)" fill="#093eb3"></path><path id="Tracciato_356" data-name="Tracciato 356" d="M457.177,460.265a.463.463,0,0,0,.463-.463v-1.85h1.85a.462.462,0,1,0,0-.925h-1.85a.925.925,0,0,0-.925.925v1.85A.463.463,0,0,0,457.177,460.265Zm0,0" transform="translate(-442.262 -442.281)" fill="#093eb3"></path><path id="Tracciato_357" data-name="Tracciato 357" d="M2.426,11.971H9.365a2.316,2.316,0,0,0,2.313-2.313V2.72A4.163,4.163,0,1,0,3.493,3.786a4.213,4.213,0,0,0-2.01-.035,4.163,4.163,0,0,0,.944,8.22Zm-3.178-4.8A3.227,3.227,0,0,1,1.687,4.654a3.378,3.378,0,0,1,.746-.084,3.209,3.209,0,0,1,1.693.487.462.462,0,0,0,.637-.636A3.233,3.233,0,0,1,6.88-.458a3.265,3.265,0,0,1,2.7.684A3.23,3.23,0,0,1,10.752,2.72V9.658a1.388,1.388,0,0,1-1.388,1.388H2.426A3.23,3.23,0,0,1-.068,9.873,3.266,3.266,0,0,1-.751,7.173Zm0,0" transform="translate(0 0)" fill="#093eb3"></path><path id="Tracciato_358" data-name="Tracciato 358" d="M52.389,197.643a.441.441,0,0,0,.086.008.462.462,0,0,0,.454-.377,1.382,1.382,0,0,1,2.085-.886.463.463,0,0,0,.487-.787,2.308,2.308,0,0,0-3.479,1.5A.462.462,0,0,0,52.389,197.643Zm0,0" transform="translate(-51.863 -189.758)" fill="#093eb3"></path><path id="Tracciato_359" data-name="Tracciato 359" d="M196.727,53.564a.444.444,0,0,0,.1.012.462.462,0,0,0,.451-.361,1.391,1.391,0,0,1,1.057-1.023,1.574,1.574,0,0,1,.292-.028.463.463,0,0,0,0-.925,2.5,2.5,0,0,0-.463.046,2.323,2.323,0,0,0-1.788,1.729A.463.463,0,0,0,196.727,53.564Zm0,0" transform="translate(-191.115 -50.831)" fill="#093eb3"></path><path id="Tracciato_360" data-name="Tracciato 360" d="M406.668,12.174h6.938a4.163,4.163,0,0,0,.944-8.22,4.226,4.226,0,0,0-2.008.033,4.163,4.163,0,1,0-8.187-1.064V9.861A2.316,2.316,0,0,0,406.668,12.174ZM405.28,2.923a3.235,3.235,0,0,1,3.247-3.238,3.386,3.386,0,0,1,.626.059,3.232,3.232,0,0,1,2.116,4.878.462.462,0,0,0,.637.636,3.237,3.237,0,1,1,1.7,5.991h-6.938a1.388,1.388,0,0,1-1.388-1.388Zm0,0" transform="translate(-391.753 -0.203)" fill="#093eb3"></path><path id="Tracciato_361" data-name="Tracciato 361" d="M457.177,158.274a.463.463,0,0,0,.463-.463v-1.388a.462.462,0,1,0-.925,0v1.388A.462.462,0,0,0,457.177,158.274Zm0,0" transform="translate(-442.262 -151.853)" fill="#093eb3"></path><path id="Tracciato_362" data-name="Tracciato 362" d="M457.177,54.014a.463.463,0,0,0,.463-.463,1.388,1.388,0,0,1,1.388-1.388.463.463,0,1,0,0-.925,2.315,2.315,0,0,0-2.313,2.313A.462.462,0,0,0,457.177,54.014Zm0,0" transform="translate(-442.262 -50.831)" fill="#093eb3"></path></g></svg>