<svg xmlns="http://www.w3.org/2000/svg" width="33.882" height="24" viewBox="0 0 33.882 24"><g id="_001-switch" data-name="001-switch" transform="translate(-8 -15)"><path id="Tracciato_371" data-name="Tracciato 371" d="M9.412,22.765H37.062L34.531,25.3a1.412,1.412,0,1,0,2,2l4.941-4.941a1.411,1.411,0,0,0,0-2l-4.941-4.941a1.412,1.412,0,1,0-2,2l2.531,2.531H9.412a1.412,1.412,0,1,0,0,2.824Z" transform="translate(0 0)" fill="#fff"></path><path id="Tracciato_372" data-name="Tracciato 372" d="M40.47,35.941H12.82l2.531-2.531a1.412,1.412,0,0,0-2-2L8.414,36.355a1.411,1.411,0,0,0,0,2l4.941,4.941a1.412,1.412,0,0,0,2-2L12.82,38.765H40.47a1.412,1.412,0,1,0,0-2.824Z" transform="translate(0 -4.706)" fill="#fff"></path></g></svg>