<svg xmlns="http://www.w3.org/2000/svg" width="28.648" height="29.238" viewBox="0 0 28.648 29.238"><g id="_002-love" data-name="002-love" transform="translate(-5.171)"><g id="Raggruppa_65" data-name="Raggruppa 65" transform="translate(5.171)"><g id="Raggruppa_64" data-name="Raggruppa 64"><path id="Tracciato_363" data-name="Tracciato 363" d="M28.165,0H10.825A5.61,5.61,0,0,0,7.463,1.108a.43.43,0,0,0,.512.691A4.755,4.755,0,0,1,10.825.86H28.164a4.8,4.8,0,0,1,4.795,4.795V17.027a4.8,4.8,0,0,1-4.795,4.795H20.836a.646.646,0,0,0-.469.2l-5.886,6.258a.3.3,0,0,1-.523-.207v-5.61a.645.645,0,0,0-.644-.644H10.825a4.8,4.8,0,0,1-4.795-4.795V5.654a4.768,4.768,0,0,1,.837-2.708.43.43,0,0,0-.709-.486,5.624,5.624,0,0,0-.988,3.194V17.027a5.661,5.661,0,0,0,5.654,5.654H13.1v5.394a1.156,1.156,0,0,0,.734,1.08,1.168,1.168,0,0,0,.431.083,1.157,1.157,0,0,0,.844-.367l5.822-6.19h7.236a5.661,5.661,0,0,0,5.654-5.654V5.654A5.661,5.661,0,0,0,28.165,0Z" transform="translate(-5.171)" fill="#093eb3"></path></g></g><g id="Raggruppa_67" data-name="Raggruppa 67" transform="translate(12.202 5.787)"><g id="Raggruppa_66" data-name="Raggruppa 66"><path id="Tracciato_364" data-name="Tracciato 364" d="M141.756,102.461a3.831,3.831,0,0,0-5.411,0l-.749.749a.027.027,0,0,1-.02.008.026.026,0,0,1-.02-.008l-.737-.737a3.826,3.826,0,1,0-5.411,5.411l5.541,5.541a.887.887,0,0,0,1.255,0l3.045-3.046a.43.43,0,1,0-.608-.608l-3.045,3.046a.026.026,0,0,1-.02.008.026.026,0,0,1-.02-.008l-5.541-5.541a2.967,2.967,0,0,1,4.2-4.2l.737.737a.887.887,0,0,0,1.255,0l.749-.749a2.967,2.967,0,0,1,4.2,4.2l-1.283,1.284a.43.43,0,0,0,.608.608l1.283-1.284A3.831,3.831,0,0,0,141.756,102.461Z" transform="translate(-128.288 -101.342)" fill="#093eb3"></path></g></g></g></svg>