<svg xmlns="http://www.w3.org/2000/svg" width="27.648" height="22.68" viewBox="0 0 27.648 22.68"><g id="_003-coins" data-name="003-coins" transform="translate(0 -46)"><path id="Tracciato_365" data-name="Tracciato 365" d="M246.54,386a.54.54,0,1,0,.54.54A.54.54,0,0,0,246.54,386Z" transform="translate(-232.716 -321.64)" fill="#093eb3"></path><path id="Tracciato_366" data-name="Tracciato 366" d="M25.331,46.83A13.418,13.418,0,0,0,20.466,46a13.418,13.418,0,0,0-4.865.83,4.793,4.793,0,0,0-1.777,1.137,4.793,4.793,0,0,0-1.777-1.136A13.416,13.416,0,0,0,7.182,46a13.418,13.418,0,0,0-4.865.83C.823,47.432,0,48.288,0,49.24V62.2c0,.952.823,1.808,2.317,2.41a13.134,13.134,0,0,0,4.487.825v0c0,1.847,3.018,3.24,7.02,3.24s7.02-1.393,7.02-3.24v0a13.134,13.134,0,0,0,4.487-.825c1.494-.6,2.317-1.458,2.317-2.41V49.24C27.648,48.288,26.825,47.432,25.331,46.83Zm1.237,12.13c0,.461-.629,1-1.641,1.408a12.207,12.207,0,0,1-4.083.746V58.96s0,0,0,0a13.132,13.132,0,0,0,4.487-.825,5.88,5.88,0,0,0,1.237-.661V58.96ZM13.284,52.48c0,.461-.629,1-1.641,1.408a12.5,12.5,0,0,1-4.461.752,12.5,12.5,0,0,1-4.461-.752c-1.012-.408-1.641-.947-1.641-1.408V50.989a5.88,5.88,0,0,0,1.237.661,13.417,13.417,0,0,0,4.865.83,13.417,13.417,0,0,0,4.865-.83,5.88,5.88,0,0,0,1.237-.661ZM2.317,54.89a13.417,13.417,0,0,0,4.865.83,13.417,13.417,0,0,0,4.865-.83,5.88,5.88,0,0,0,1.237-.661v1.5a13.132,13.132,0,0,0-3.82.658A4.647,4.647,0,0,0,7.169,57.88a12.5,12.5,0,0,1-4.449-.752C1.709,56.72,1.08,56.181,1.08,55.72V54.229A5.88,5.88,0,0,0,2.317,54.89ZM1.08,57.469a5.88,5.88,0,0,0,1.237.661,13.135,13.135,0,0,0,4.487.825s0,0,0,0v2.155a12.207,12.207,0,0,1-4.083-.746C1.709,59.96,1.08,59.421,1.08,58.96Zm6.861,1.226c.4-.931,2.71-1.895,5.883-1.895s5.483.963,5.882,1.894a.668.668,0,0,1,.058.266c0,.475-.585,1-1.566,1.411a11.753,11.753,0,0,1-4.374.749,11.753,11.753,0,0,1-4.374-.749c-.98-.409-1.566-.936-1.566-1.411A.667.667,0,0,1,7.941,58.695ZM26.568,55.72c0,.461-.629,1-1.641,1.408a12.494,12.494,0,0,1-4.448.752,4.647,4.647,0,0,0-2.294-1.492,13.13,13.13,0,0,0-3.82-.658v-1.5a5.88,5.88,0,0,0,1.237.661,13.417,13.417,0,0,0,4.865.83,13.417,13.417,0,0,0,4.865-.83,5.88,5.88,0,0,0,1.237-.661Zm0-3.24c0,.461-.629,1-1.641,1.408a12.5,12.5,0,0,1-4.461.752A12.5,12.5,0,0,1,16,53.888c-1.012-.408-1.641-.947-1.641-1.408V50.989a5.88,5.88,0,0,0,1.237.661,13.417,13.417,0,0,0,4.865.83,13.417,13.417,0,0,0,4.865-.83,5.88,5.88,0,0,0,1.237-.661ZM16,47.832a12.5,12.5,0,0,1,4.461-.752,12.5,12.5,0,0,1,4.461.752c1.012.408,1.641.947,1.641,1.408s-.629,1-1.641,1.408a12.5,12.5,0,0,1-4.461.752A12.5,12.5,0,0,1,16,50.648c-1.012-.408-1.641-.947-1.641-1.408S14.993,48.239,16,47.832Zm-13.284,0a12.5,12.5,0,0,1,4.461-.752,12.5,12.5,0,0,1,4.461.752c1.012.408,1.641.947,1.641,1.408s-.629,1-1.641,1.408a12.5,12.5,0,0,1-4.461.752,12.5,12.5,0,0,1-4.461-.752C1.709,50.241,1.08,49.7,1.08,49.24S1.709,48.239,2.721,47.832Zm0,15.776C1.709,63.2,1.08,62.661,1.08,62.2V60.709a5.88,5.88,0,0,0,1.237.661A13.134,13.134,0,0,0,6.8,62.2v2.159A12.207,12.207,0,0,1,2.721,63.608ZM18.2,66.851a11.753,11.753,0,0,1-4.374.749,11.753,11.753,0,0,1-4.374-.749c-.98-.409-1.566-.936-1.566-1.411V63.98a4.76,4.76,0,0,0,.407.263,9.458,9.458,0,0,0,3.3,1.038.548.548,0,0,0,.079.006.54.54,0,0,0,.078-1.074C9.238,63.844,7.884,62.9,7.884,62.2V60.735a10.541,10.541,0,0,0,5.94,1.464,10.541,10.541,0,0,0,5.94-1.464V62.2c0,.7-1.354,1.644-3.864,2.013a.54.54,0,0,0,.078,1.074.547.547,0,0,0,.079-.006,9.457,9.457,0,0,0,3.3-1.038,4.769,4.769,0,0,0,.407-.263v1.46C19.764,65.915,19.179,66.442,18.2,66.851Zm6.729-3.242a12.207,12.207,0,0,1-4.083.746V62.2a13.134,13.134,0,0,0,4.487-.825,5.88,5.88,0,0,0,1.237-.661V62.2C26.568,62.661,25.939,63.2,24.927,63.608Z" fill="#093eb3"></path></g></svg>