<svg xmlns="http://www.w3.org/2000/svg" xmlns:xlink="http://www.w3.org/1999/xlink" width="98" height="98" viewBox="0 0 98 98"><defs><clipPath id="clip-path"><rect id="Rettangolo_2150" data-name="Rettangolo 2150" width="98" height="98" transform="translate(89 109)" fill="#fff" stroke="#707070" stroke-width="1"></rect></clipPath><radialGradient id="radial-gradient" cx="0.482" cy="0.509" r="0.357" gradientTransform="matrix(4.022, 0.751, -4.57, 0.661, 315.658, 21.099)" gradientUnits="objectBoundingBox"><stop offset="0" stop-color="#80bde8"></stop><stop offset="0.65" stop-color="#7daede"></stop><stop offset="1" stop-color="#7ba4d7"></stop></radialGradient><radialGradient id="radial-gradient-2" cx="0.5" cy="0.5" r="0.543" gradientTransform="translate(0.127) scale(0.86 1)" xlink:href="#radial-gradient"></radialGradient><linearGradient id="linear-gradient" x1="0.789" y1="40.404" x2="0.789" y2="39.405" gradientUnits="objectBoundingBox"><stop offset="0" stop-color="#80bde8"></stop><stop offset="0.29" stop-color="#7eb4e1"></stop><stop offset="0.76" stop-color="#789ad0"></stop><stop offset="1" stop-color="#758bc5"></stop></linearGradient><linearGradient id="linear-gradient-2" x1="0.728" y1="82.603" x2="1.141" y2="81.74" xlink:href="#linear-gradient"></linearGradient><linearGradient id="linear-gradient-3" x1="0.799" y1="59.159" x2="0.799" y2="58.159" xlink:href="#linear-gradient"></linearGradient><linearGradient id="linear-gradient-4" x1="0.305" y1="56.424" x2="1.308" y2="56.424" xlink:href="#linear-gradient"></linearGradient></defs><g id="acquario" transform="translate(-89 -109)" clip-path="url(#clip-path)"><g id="acquario1-01" transform="translate(35.616 64.453)"><path id="Tracciato_632" data-name="Tracciato 632" d="M90.888,77.409s2.482-.182.979-2.459.615-2.8,1.343-2.687c1.457.228,5.51,2.687,1.321,5.9,0,0,2.095-.979,2.664,1.138s-1.753,3.6-2.869,4.212c-1.89.956-5.533,2.436-7.809-3.415s-1.525-7.9-.273-10.04c.751-1.343,2.277-2.482,6.193-4.3C97.6,63.362,102,61.745,103.82,59.059s3.279-3.666,1.958-8.629c0,0-.774-2.664,2.095,1.73s1.138,12.636-9.949,15.3S86.676,77.159,90.888,77.409Z" fill="#80b8e4"></path><path id="Tracciato_633" data-name="Tracciato 633" d="M126.291,106.37s-.2-2.482,2.277-1.3,2.664-.979,2.436-1.753c-.455-1.434-3.506-5.054-6.056-.41,0,0,.615-2.277-1.548-2.459s-3.3,2.277-3.711,3.461c-.706,2.026-1.594,5.874,4.553,7.217s8.014.3,9.949-1.252c1.229-.979,2.117-2.664,3.3-6.83,1.571-5.464,2.5-10.063,4.9-12.181s3.1-3.757,8.219-3.21c0,0,2.732.364-2.049-1.8s-12.636.8-13.524,12.158S127.065,110.468,126.291,106.37Z" fill="#80b8e4"></path><path id="Tracciato_634" data-name="Tracciato 634" d="M82.851,97.263s11.088,4.986,13-3.916S93.574,76.909,102.158,68.3s30.395-9.357,30.395-9.357,2.095-.364,5.35,4.554c0,0,1.343,22.767-4.963,30.759a22.608,22.608,0,0,1-15.482,8.378,55.781,55.781,0,0,0-9.107.569c-1.389.569-7.832,1.73-5.942,9.767s-13.091-5.965-13.091-5.965S83.238,100.906,82.851,97.263Z" fill="#80b8e4"></path><ellipse id="Ellisse_1118" data-name="Ellisse 1118" cx="1.821" cy="11.088" rx="1.821" ry="11.088" transform="translate(84.033 101.31) rotate(-48.46)" fill="url(#radial-gradient)"></ellipse><path id="Tracciato_635" data-name="Tracciato 635" d="M96.238,89.453a22.768,22.768,0,0,1,15.095,13.365,40.3,40.3,0,0,0,10.906-1.343S116.888,81.963,96.42,80.46Z" opacity="0.5" fill="url(#radial-gradient-2)"></path><path id="Tracciato_636" data-name="Tracciato 636" d="M89.772,82.942c.159-1.275.979-8.788-4.258-13.365A19.853,19.853,0,0,0,53.8,81.075c-2.664,11.384,8.014,26.183,16.825,24.452s2.095-2.687,2.095-2.687S61.2,94.895,66.458,85.651c.774-1.412,1.89-2.072,6.1-2.095.911,0,1.73-.182,1.525,3.256s.774,3.37,3.461,4.394a8.629,8.629,0,0,0,9.767-2.277,11.384,11.384,0,0,0,2.459-5.988Z" fill="url(#linear-gradient)"></path><path id="Tracciato_637" data-name="Tracciato 637" d="M91.662,105.892s-13.547,3.051-15.3-3.438c0,0-.569-1.116,0-1.73s1.343-.182,1.73,1.138A3.574,3.574,0,0,0,83.807,103a6.17,6.17,0,0,0,1.685-6.261,7.263,7.263,0,0,0-5.35-4.553,12.477,12.477,0,0,0-8.4,1.116A8.31,8.31,0,0,0,68.3,99.927a11.976,11.976,0,0,0,2.049,8.037s2.5,3.415,9.335,3.415a17.986,17.986,0,0,0,11.976-5.487Z" fill="url(#linear-gradient-2)"></path><path id="Tracciato_638" data-name="Tracciato 638" d="M68.917,121.761c-.364-.842-2.277-2.869,1.708-3.256s6.124.387,7.65-2.117a6.648,6.648,0,0,0-2.14-9.107h0c-3.8-2.095-9.949-.979-11.384.592s-6.83,3.8-6.147,14.89,16.825,12.226,21.424,9.38,6.307-4.212,8.242-10.769,1.525-10.154,4.963-13.182a8.151,8.151,0,0,0-5.3,1.571,14.89,14.89,0,0,0-4.075,6.83c-.159.911-1.343,4.189-4.553,3.051s-5.123-1.8-5.555.387a6.512,6.512,0,0,0,.387,1.958c.2.751.2,2.482-3.233,1.525A3.461,3.461,0,0,1,68.917,121.761Z" fill="url(#linear-gradient-3)"></path><path id="Tracciato_639" data-name="Tracciato 639" d="M94.417,109.034s-6.307,2.277-3.392,15.482,21.128,16.916,29.643,8.31,1.343-19.307,1.343-19.307a11.019,11.019,0,0,0-14.139-2.869s-6.124,5.533-.592,9.562c0,0,2.869,2.869,5.35.751s7.081,5.35-.569,6.512c0,0,2.664-2.869,2.277-4.212s-3.074-.569-3.074,2.687-5.145,2.277-6.671-.592c0,0,7.263,1.958,6.124-1.708s-4.986-2.482-6.694-1.708-7.65,1.89-9.949-2.482S94.417,109.034,94.417,109.034Z" fill="url(#linear-gradient-4)"></path></g></g></svg>