<svg xmlns="http://www.w3.org/2000/svg" xmlns:xlink="http://www.w3.org/1999/xlink" width="98" height="98" viewBox="0 0 98 98"><defs><clipPath id="clip-path"><rect id="Rettangolo_2150" data-name="Rettangolo 2150" width="98" height="98" transform="translate(227 109)" fill="#fff" stroke="#707070" stroke-width="1"></rect></clipPath><radialGradient id="radial-gradient" cx="0.501" cy="0.5" r="0.418" gradientTransform="translate(-0.501) scale(1.592 1)" gradientUnits="objectBoundingBox"><stop offset="0" stop-color="#80bde8"></stop><stop offset="0.26" stop-color="#7fb4e2"></stop><stop offset="0.33" stop-color="#7fb0df"></stop><stop offset="0.6" stop-color="#80b6e3"></stop><stop offset="0.99" stop-color="#758bc5"></stop></radialGradient><radialGradient id="radial-gradient-2" cx="0.501" cy="0.499" r="0.611" gradientTransform="translate(0.345) scale(0.708 1)" gradientUnits="objectBoundingBox"><stop offset="0" stop-color="#80bde8"></stop><stop offset="0.06" stop-color="#80b6e3"></stop><stop offset="0.33" stop-color="#7fb0df"></stop><stop offset="0.99" stop-color="#758bc5"></stop></radialGradient><radialGradient id="radial-gradient-3" cx="0.501" cy="4.407" r="0.68" gradientTransform="matrix(0.608, 0, 0, -1, 0.404, -4.39)" xlink:href="#radial-gradient-2"></radialGradient><radialGradient id="radial-gradient-4" cx="0.501" cy="5.807" r="0.692" gradientTransform="matrix(0.594, 0, 0, -1, 0.452, -5.364)" xlink:href="#radial-gradient-2"></radialGradient><radialGradient id="radial-gradient-5" cx="0.5" cy="3.69" r="0.496" gradientTransform="matrix(1.018, 0, 0, -1, -0.034, -7.666)" xlink:href="#radial-gradient-2"></radialGradient><radialGradient id="radial-gradient-6" cx="0.388" cy="0.508" r="0.397" gradientTransform="matrix(1.744, 0.11, -0.194, 0.994, 19.328, -0.847)" xlink:href="#radial-gradient-2"></radialGradient><radialGradient id="radial-gradient-7" cx="0.496" cy="0.573" r="0.174" gradientTransform="translate(-3.11 -791.572) scale(2.091 8.89)" xlink:href="#radial-gradient-2"></radialGradient><radialGradient id="radial-gradient-8" cx="0.503" cy="-1.549" r="0.5" gradientTransform="matrix(0.994, 0, 0, -1, 0.018, -14.037)" xlink:href="#radial-gradient-2"></radialGradient><radialGradient id="radial-gradient-9" cx="0.495" cy="-2.189" r="0.43" gradientTransform="matrix(1.444, 0, 0, -1, -1.164, -8.093)" xlink:href="#radial-gradient-2"></radialGradient><radialGradient id="radial-gradient-10" cx="0.5" cy="-2.287" r="0.412" gradientTransform="matrix(1.67, 0, 0, -1, -1.846, -7.352)" xlink:href="#radial-gradient-2"></radialGradient><linearGradient id="linear-gradient" x1="0.69" y1="75.066" x2="1.688" y2="75.066" gradientTransform="matrix(1, 0, 0, 1, 0, 0)" xlink:href="#radial-gradient"></linearGradient><linearGradient id="linear-gradient-2" x1="0.477" y1="82.796" x2="1.477" y2="82.796" gradientTransform="matrix(1, 0, 0, 1, 0, 0)" xlink:href="#radial-gradient"></linearGradient><linearGradient id="linear-gradient-3" x1="0.871" y1="174.626" x2="1.87" y2="174.626" gradientTransform="matrix(1, 0, 0, 1, 0, 0)" xlink:href="#radial-gradient"></linearGradient><linearGradient id="linear-gradient-4" x1="1.147" y1="477.954" x2="2.148" y2="477.954" gradientTransform="matrix(1, 0, 0, 1, 0, 0)" xlink:href="#radial-gradient"></linearGradient><linearGradient id="linear-gradient-5" x1="0.349" y1="36.367" x2="1.346" y2="36.367" gradientTransform="matrix(1, 0, 0, 1, 0, 0)" xlink:href="#radial-gradient"></linearGradient><radialGradient id="radial-gradient-11" cx="0.5" cy="0.629" r="0.475" gradientTransform="matrix(1.112, 0, 0, -1, -0.08, -0.197)" xlink:href="#radial-gradient"></radialGradient><radialGradient id="radial-gradient-12" cx="0.501" cy="2.562" r="0.405" gradientTransform="matrix(1.786, 0, 0, -1, -1.132, -2.249)" xlink:href="#radial-gradient-2"></radialGradient><radialGradient id="radial-gradient-13" cx="0.499" cy="2.006" r="0.42" gradientTransform="matrix(1.57, 0, 0, -1, -0.696, -1.84)" xlink:href="#radial-gradient-2"></radialGradient><radialGradient id="radial-gradient-14" cx="0.499" cy="2.631" r="0.4" gradientTransform="matrix(1.928, 0, 0, -1, -1.463, -2.461)" xlink:href="#radial-gradient-2"></radialGradient><radialGradient id="radial-gradient-15" cx="0.5" cy="2.512" r="0.467" gradientTransform="matrix(1.168, 0, 0, -1, -0.206, -2.849)" xlink:href="#radial-gradient-2"></radialGradient><radialGradient id="radial-gradient-16" cx="0.5" cy="2.094" r="0.514" gradientTransform="matrix(0.944, 0, 0, -1, 0.07, -3.842)" xlink:href="#radial-gradient-2"></radialGradient><radialGradient id="radial-gradient-17" cx="0.5" cy="0.31" r="0.605" gradientTransform="matrix(0.72, 0, 0, -1, 0.359, -5.715)" xlink:href="#radial-gradient-2"></radialGradient><radialGradient id="radial-gradient-18" cx="0.493" cy="-1.359" r="0.543" gradientTransform="matrix(0.858, 0, 0, -1, 0.189, -5.032)" xlink:href="#radial-gradient-2"></radialGradient><radialGradient id="radial-gradient-19" cx="0.495" cy="-2.375" r="0.447" gradientTransform="matrix(1.279, 0, 0, -1, -0.486, -5.011)" xlink:href="#radial-gradient-2"></radialGradient><radialGradient id="radial-gradient-20" cx="0.5" cy="-3.314" r="0.46" gradientTransform="matrix(1.199, 0, 0, -1, -0.369, -5.967)" xlink:href="#radial-gradient-2"></radialGradient><radialGradient id="radial-gradient-21" cx="0.501" cy="-3.801" r="0.448" gradientTransform="matrix(1.3, 0, 0, -1, -0.657, -7.037)" xlink:href="#radial-gradient-2"></radialGradient><radialGradient id="radial-gradient-22" cx="0.505" cy="-3.244" r="0.413" gradientTransform="matrix(1.655, 0, 0, -1, -1.833, -7.564)" xlink:href="#radial-gradient-2"></radialGradient><radialGradient id="radial-gradient-23" cx="0.493" cy="0.529" r="0.388" gradientTransform="translate(-18.115 -37.465) scale(1.463 1.175)" xlink:href="#radial-gradient-2"></radialGradient><linearGradient id="linear-gradient-6" x1="0.48" y1="199.169" x2="1.48" y2="199.169" gradientTransform="matrix(1, 0, 0, 1, 0, 0)" xlink:href="#radial-gradient"></linearGradient><radialGradient id="radial-gradient-24" cx="0.51" cy="0.543" r="0.422" gradientTransform="matrix(0.823, 0.849, -1.32, 0.529, 150.46, 57.803)" gradientUnits="objectBoundingBox"><stop offset="0" stop-color="#80bde8"></stop><stop offset="0.03" stop-color="#7ab4df"></stop><stop offset="0.07" stop-color="#689dc5"></stop><stop offset="0.12" stop-color="#4c779c"></stop><stop offset="0.19" stop-color="#264363"></stop><stop offset="0.21" stop-color="#18304e"></stop><stop offset="0.46" stop-color="#7fb0df"></stop><stop offset="0.66" stop-color="#18304e"></stop></radialGradient></defs><g id="ariete" transform="translate(-227 -109)" clip-path="url(#clip-path)"><g id="ariete1-01" transform="translate(188.174 70.028)"><path id="Tracciato_640" data-name="Tracciato 640" d="M117.993,74.625s5.2-7.121,10-9.637a4.264,4.264,0,0,1,5.48,1.663v.171a9.786,9.786,0,0,0,0,3.774s-1.919.768-2.132,4.264a6.183,6.183,0,0,0-3.07,5.778s-.768,1-1.343,1a8.529,8.529,0,0,0-2.9,5.373,10,10,0,0,0-2.132,6.972s2.9,4.051,6.4,1.94,5.245-14.307,5.245-14.307.384-3.667,1.919-1.94,1.642,9.1,1,12a12.26,12.26,0,0,0-1.173,6.738s-5.757,4.264-5.586,6.546c0,0-6.546-.384-7.505,1.748s-7.057-27.185-4.2-32.089a40.7,40.7,0,0,0-7.7-3.262,14.456,14.456,0,0,1-7.335-5.97l1.514-3.049s-.341-3.07,2.537-2.644a3.8,3.8,0,0,0,3.859-2.75s-.405-2.132,3.646-1.727a21.726,21.726,0,0,0,5.778-2.3s11.556,3.262,13.859,10.938a15.863,15.863,0,0,0-.661,2.772" fill="url(#radial-gradient)"></path><path id="Tracciato_641" data-name="Tracciato 641" d="M117.417,74.135a30.086,30.086,0,0,1,2.985-3.6.128.128,0,0,0,0-.171c-.661-1.066-6.162-9.616-15.543-8.358l-1.748,3.241a17.867,17.867,0,0,0,7.761,6.1,24.9,24.9,0,0,1,6.546,2.793Z" opacity="0.3" fill="url(#radial-gradient-2)"></path><path id="Tracciato_642" data-name="Tracciato 642" d="M111.149,56.139s9.04-2.3,16.737,8.273a29.679,29.679,0,0,0-6.738,4.989s-2.9-5.778-15.415-9.445a1.791,1.791,0,0,1,1.514-.107,3.625,3.625,0,0,0,3.475-2.132Z" opacity="0.3" fill="url(#radial-gradient-3)"></path><path id="Tracciato_643" data-name="Tracciato 643" d="M128.632,64.412s-2.26-7.271-14.2-9.275a10.106,10.106,0,0,0,5.97-2.132s11.13,3.5,13.219,10.426a6.1,6.1,0,0,0-4.989.981Z" opacity="0.3" fill="url(#radial-gradient-4)"></path><path id="Tracciato_644" data-name="Tracciato 644" d="M130.807,74.241a12.452,12.452,0,0,0-3.859,5.565s-6.162-4.8-3.859-7.505,7.718,1.748,7.718,1.748" opacity="0.3" fill="url(#radial-gradient-5)"></path><path id="Tracciato_645" data-name="Tracciato 645" d="M120.68,80.7l.235-3.838a7.164,7.164,0,0,1,4.883,3.987,15.266,15.266,0,0,0-1.812,4.264c-.171,1.535-1.983.171-1.983.171" opacity="0.3" fill="url(#radial-gradient-6)"></path><path id="Tracciato_646" data-name="Tracciato 646" d="M136.777,88.122s-1.94,3.411-4.989,1.727c0,0,1.62-1.855,2.58-9.168C134.325,80.68,135.732,76.288,136.777,88.122Z" opacity="0.3" fill="url(#radial-gradient-7)"></path><path id="Tracciato_647" data-name="Tracciato 647" d="M135.988,91.682s-4.414-1-4.819,1.343,3.433,3.262,3.433,3.262" opacity="0.3" fill="url(#radial-gradient-8)"></path><path id="Tracciato_648" data-name="Tracciato 648" d="M134.069,97.951s-3.838-3.667-5.394-1.556a15.117,15.117,0,0,0,1,7.335,23.71,23.71,0,0,1,4.435-5.544" opacity="0.3" fill="url(#radial-gradient-9)"></path><path id="Tracciato_649" data-name="Tracciato 649" d="M127.716,104.475s-.768-7.313-3.07-7.718-2.132,8.678-2.132,8.678A19.658,19.658,0,0,1,127.716,104.475Z" opacity="0.3" fill="url(#radial-gradient-10)"></path><path id="SagomaTesta" d="M119.251,75.2s-3.092,1.343,1.151,8.081c0,0,3.262,5.394-1,7.313,0,0,4.435,15.991,2.3,20.234s1.173,2.878-6.546,8.848-12.473,2.132-12.473,2.132a8.038,8.038,0,0,1-2.473-2.878l-18.678-9.445s-13.326-8.529-5.778-25.031c0,0,7.59,4.264,13.475-4.627,1.876-2.793,4.861-10.213,4.264-12.793,0,0,7.185,0,9.7-1.983,0,0,1.471,3.987,7.633,6.055a28.4,28.4,0,0,1,8.422,4.094Z" fill="#80b8e4"></path><path id="Ombra" d="M88.228,112.748s6.546-.576,7.526-5.778a11.62,11.62,0,0,0-2.324-9.019s-3.475-4.264-6.4-4.989a8.742,8.742,0,0,0-6.546.384c-.789.789-2.132,1-1.535,4.051a10.021,10.021,0,0,0,1.343,4.03,9.3,9.3,0,0,0,5.394,4.051c3.284.576,2.878-4.627,2.878-4.627a11.044,11.044,0,0,0-.384-2.9c-.384-1.173-1-1.94.384-2.132s3.113,2.708,3.113,2.708a8.358,8.358,0,0,1,1,5.97,9.808,9.808,0,0,1-2.132,4.627,9.062,9.062,0,0,1-5.863,1.834Z" fill="url(#linear-gradient)"></path><path id="Tracciato_650" data-name="Tracciato 650" d="M110.573,101.575s-8.657-9.424-9.254-12.025a37.952,37.952,0,0,0,0-5.394c0-.277-.853-1.812-1.151-.192a21.941,21.941,0,0,0,0,2.9c0,.725-.384,2.3-2.687.384s-5.629-.789-7.526-.768a4.947,4.947,0,0,1-4.03-2.324,23.028,23.028,0,0,1,1.727,5.2,10.938,10.938,0,0,0,1.9,5.288,10.384,10.384,0,0,0,6.4,3.3,5.394,5.394,0,0,0,5.842-2.921s.768-1.151,2.878,1.151S108.74,101.17,110.573,101.575Z" fill="url(#linear-gradient-2)"></path><path id="Naso" d="M121.746,110.637a8.678,8.678,0,0,1-4.627,2.473,8.678,8.678,0,0,1-5.586-2.9s-1.151-1.151-1.919-1.151,1.727,3.475,4.264,4.627a5.778,5.778,0,0,0,7.228-1.258Z" fill="#18304e"></path><path id="Bocca" d="M115.477,113.814a12.132,12.132,0,0,1-1.429,3.966,2.6,2.6,0,0,1,.9,2.132,3.241,3.241,0,0,1-1.045-1.983,12.665,12.665,0,0,1-5.8,1.727,10.874,10.874,0,0,1-5.97-.768,5.373,5.373,0,0,1-2.687-3.07,10.661,10.661,0,0,1-.426-4.264c.192-1.556.192-1.151.192-1.151a10.512,10.512,0,0,0,.768,5.394,5.8,5.8,0,0,0,5.586,3.07,16.631,16.631,0,0,0,8.1-1.343,21.536,21.536,0,0,0,1.812-3.71Z" fill="#18304e"></path><path id="OmbraBocca" d="M113,113.857s-1.727-2.58-7.42-3.859-7.015,3.859-4.968,5.8a12.515,12.515,0,0,0,5.309,2.6s4.563.682,6.844-2.3a2.388,2.388,0,0,0,.235-2.239Z" fill="url(#linear-gradient-3)"></path><path id="OmbraMento" d="M113,120.509s1.493-1.6.362-1.6a7.676,7.676,0,0,0-2.793,1.066c-1,.405-1.684.341-4.478,0s-2.985,0-1.876.874a6.055,6.055,0,0,0,3.923,1.215A7.676,7.676,0,0,0,113,120.509Z" fill="url(#linear-gradient-4)"></path><path id="OmbraNaso" d="M101.767,89.23s8.678,9.808,9.616,12.516.768,3.582-.768,3.262a4.072,4.072,0,0,1-1.727-.768c-.384-.384-1.151-.192-.384,1.535s4.627,6.4,8.529,6.4,3.859-5.394,3.859-5.394a32.984,32.984,0,0,0-1.151-11.151c-1.748-7.548-3.731-10.853-1.834-14.285h0a24.136,24.136,0,0,0,.768,4.435c.213.448.362,2.132,1.727,1s-.832-4.264-1.365-5.586c-.768-1.983-.981-5.2-4.8-7.121s-7.079-3.987-7.079-3.987.725,6.844-3.71,6.077a16.865,16.865,0,0,1-7.207-3.092.3.3,0,0,0-.235,0A7.249,7.249,0,0,0,90.19,80.1c0,6.567,7.185,4.669,7.505,1.087h0a6.567,6.567,0,0,1-2.985.725c-1-.192-1.919.192-1.151-2.878s3.454-1.556,4.051-.768a4.477,4.477,0,0,1,.469,4.456,4.264,4.264,0,0,1-2.473,2.281A5.885,5.885,0,0,1,90,83.452a3.454,3.454,0,0,1-1.045-2.431m0,0c-.49.384-2.921,2.431-.32,4.264a8.06,8.06,0,0,0,4.264.576,13.028,13.028,0,0,1,4.648,1.194c2.687,1.151,1.812-3.987,2.132-5.394,0-.533,1.429-2.537,2.132.384a43.282,43.282,0,0,1,0,7.271Z" fill="url(#linear-gradient-5)"></path><path id="Corno1" d="M93.516,67.205a13.88,13.88,0,0,1-.171,2.495,30.66,30.66,0,0,1-2.729,8.273,21.321,21.321,0,0,1-2.857,4.051,10.021,10.021,0,0,1-6.524,3.5,13.37,13.37,0,0,1-2.921,0s-1.194-4.627-7.7-7.889S58.463,81.9,58.463,81.9a11.215,11.215,0,0,0-2.3,9.424,18.379,18.379,0,0,0,3.667,8.529A11.642,11.642,0,0,0,70.489,103.9c7.121-.768,16.545-8.081,16.545-8.081s1.94-1.173,1.556,1.535a34.711,34.711,0,0,1-3.092,7.7s-3.838,1.151-3.838,4.435l-1.727,1.983a9.1,9.1,0,0,0-8.529,3.475l-2.708.576s-4.264-3.262-8.273-1.173L56.971,113s-3.454-5.2-6.951-4.264L47.7,106.245a83.153,83.153,0,0,0-6.951-10.661s.192-8.529-1.919-11.94V80.68s4.264-2.495,3.859-11.364L44.818,67.4s4.03-1.151,6.738-7.7l2.878-1.173A12.793,12.793,0,0,0,65.094,54.69h3.134a7.484,7.484,0,0,0,10.213,1.151l3.667,1.727s1.151,7.526,8.657,6.524Z" fill="url(#radial-gradient-11)"></path><path id="Tracciato_651" data-name="Tracciato 651" d="M78.762,56.139c-.9-.213-4.264,21.321-9.211,20.98l-.384-.171c-5.224.3-1.706-22.3-2.345-22.174h1.407a7.868,7.868,0,0,0,10.32,1.173Z" opacity="0.3" fill="url(#radial-gradient-12)"></path><path id="Tracciato_652" data-name="Tracciato 652" d="M90.744,64.22S86.885,82.9,76.885,82.514l-2.132-2.132c-1.94-12.132,5.97-23.454,5.97-23.454l1.514.6a7.526,7.526,0,0,0,8.507,6.695Z" opacity="0.3" fill="url(#radial-gradient-13)"></path><path id="Tracciato_653" data-name="Tracciato 653" d="M65.116,56.139s-5.757,3.667-10,3.284c0,0,4.264,16.354,9.424,17.7h.107c2.687-1.919.576-21,.576-21Z" opacity="0.3" fill="url(#radial-gradient-14)"></path><path id="Tracciato_654" data-name="Tracciato 654" d="M44.9,68.079c7.313-2.9,7.7-7.505,7.7-7.505l.192.192s10.789,16.183,7.718,18.1S54.327,78.1,44.9,68.207Z" opacity="0.3" fill="url(#radial-gradient-15)"></path><path id="Tracciato_655" data-name="Tracciato 655" d="M40.3,81.555a13.752,13.752,0,0,0,3.838-12.025h0S56.822,79.913,56.225,82.471s-7.505,3.262-15.927-.6Z" opacity="0.3" fill="url(#radial-gradient-16)"></path><path id="Tracciato_656" data-name="Tracciato 656" d="M56.075,90.211s-.576,2.75-6.759,4.051a35.671,35.671,0,0,1-7.271,1.151V95.2c1.343-3.859-.981-10.4-.981-10.4V84.6s12.793-.192,14.925,4.264" opacity="0.3" fill="url(#radial-gradient-17)"></path><path id="Tracciato_657" data-name="Tracciato 657" d="M49.039,106.2a69.167,69.167,0,0,0-5.778-8.87l-.192-.149s4.414-1.535,8.657-2.687,5.2,1.151,5.2,1.151a3.347,3.347,0,0,1-.768,3.454c-1.535,1.365-6.972,7.121-6.972,7.121Z" opacity="0.3" fill="url(#radial-gradient-18)"></path><path id="Tracciato_658" data-name="Tracciato 658" d="M57.568,112.172s-3.987-4.627-5.885-4.627v-.192c.576-2.132,7.313-9.254,9.062-6.4s-3.177,11.407-3.177,11.407Z" opacity="0.3" fill="url(#radial-gradient-19)"></path><path id="Tracciato_659" data-name="Tracciato 659" d="M68.015,113.857a12.494,12.494,0,0,0-8.315-.746L59.53,113,63,104.134a3.518,3.518,0,0,1,4.8,1.343h0l.426,8.635Z" opacity="0.3" fill="url(#radial-gradient-20)"></path><path id="Tracciato_660" data-name="Tracciato 660" d="M79,110.232A9.808,9.808,0,0,0,72.237,113v-.192c-.171-7.121,1.748-8.657,1.748-8.657,3.262-1.556,5.2,6.4,5.2,6.4Z" opacity="0.3" fill="url(#radial-gradient-21)"></path><path id="Tracciato_661" data-name="Tracciato 661" d="M84.966,104.475a7.4,7.4,0,0,0-4.264,4.414l-.192.192a15.991,15.991,0,0,1-.426-7.313c1.365-3.667,4.819,2.516,4.819,2.516Z" opacity="0.3" fill="url(#radial-gradient-22)"></path><path id="Tracciato_662" data-name="Tracciato 662" d="M83.3,99.06a13.411,13.411,0,0,0,2.623,3.966,13.752,13.752,0,0,0,2.3-7.207Z" opacity="0.3" fill="url(#radial-gradient-23)"></path><path id="Tracciato_663" data-name="Tracciato 663" d="M84.9,83.708v.128c-1.3,0-5.053,0-6.4,1.365a21.108,21.108,0,0,1-6.738,4.989c-2.495.938-6.546,1.919-9.424.576a15.458,15.458,0,0,1-6.972-5.97l-.192-.384a25.245,25.245,0,0,0,8.678-.171c4.03-.981,4.883-1.514,6.546-1.919a24.733,24.733,0,0,1,14.5,1.386Z" fill="#7fcbde"></path><path id="Tracciato_664" data-name="Tracciato 664" d="M84.9,83.708v.128c-1.3,0-5.053,0-6.4,1.365a21.108,21.108,0,0,1-6.738,4.989c-2.495.938-6.546,1.919-9.424.576a15.458,15.458,0,0,1-6.972-5.97l-.192-.384a25.245,25.245,0,0,0,8.678-.171c4.03-.981,4.883-1.514,6.546-1.919a24.733,24.733,0,0,1,14.5,1.386Z" fill="#80b8e4"></path><path id="Tracciato_665" data-name="Tracciato 665" d="M81.022,84.049s-6.4-.981-10.021,1A17.761,17.761,0,0,1,63.5,87.546a18.1,18.1,0,0,1-6.738-1s4.094,5.394,9.829,4.819,7.74-2.687,7.74-2.687S78.442,84.433,81.022,84.049Z" fill="url(#linear-gradient-6)"></path><ellipse id="Ellisse_1119" data-name="Ellisse 1119" cx="4.414" cy="6.866" rx="4.414" ry="6.866" transform="translate(86.553 92.558) rotate(-63.83)" fill="url(#radial-gradient-24)"></ellipse></g></g></svg>