<svg xmlns="http://www.w3.org/2000/svg" xmlns:xlink="http://www.w3.org/1999/xlink" width="98" height="98" viewBox="0 0 98 98"><defs><clipPath id="clip-path"><rect id="Rettangolo_2150" data-name="Rettangolo 2150" width="98" height="98" transform="translate(365 109)" fill="#fff" stroke="#707070" stroke-width="1"></rect></clipPath><linearGradient id="linear-gradient" x1="0.286" y1="56.963" x2="1.287" y2="56.963" gradientUnits="objectBoundingBox"><stop offset="0" stop-color="#80bde8"></stop><stop offset="0.23" stop-color="#80b4e2"></stop><stop offset="0.27" stop-color="#80b1e0"></stop></linearGradient><linearGradient id="linear-gradient-2" x1="2.201" y1="197.889" x2="3.215" y2="197.889" gradientUnits="objectBoundingBox"><stop offset="0.3" stop-color="#7ca7d9"></stop><stop offset="0.63" stop-color="#7eb4e2"></stop><stop offset="1" stop-color="#80bde8"></stop></linearGradient><linearGradient id="linear-gradient-3" x1="0.306" y1="78.345" x2="1.306" y2="78.345" xlink:href="#linear-gradient-2"></linearGradient><linearGradient id="linear-gradient-4" x1="0.22" y1="63.322" x2="1.22" y2="63.322" gradientUnits="objectBoundingBox"><stop offset="0" stop-color="#80bde8"></stop><stop offset="0.37" stop-color="#7eb4e2"></stop><stop offset="0.7" stop-color="#7ca7d9"></stop></linearGradient><linearGradient id="linear-gradient-5" x1="0.743" y1="109.625" x2="0.743" y2="110.626" gradientUnits="objectBoundingBox"><stop offset="0" stop-color="#80bde8"></stop><stop offset="0.51" stop-color="#80bbe7"></stop><stop offset="0.7" stop-color="#7eb4e2"></stop><stop offset="0.83" stop-color="#7ba9da"></stop><stop offset="0.94" stop-color="#7898ce"></stop><stop offset="0.99" stop-color="#758bc5"></stop></linearGradient><radialGradient id="radial-gradient" cx="0.5" cy="0.496" r="1.029" gradientTransform="translate(0.51 -428.207) scale(0.366 6)" gradientUnits="objectBoundingBox"><stop offset="0" stop-color="#7fb7e4"></stop><stop offset="1" stop-color="#7ba1d5"></stop></radialGradient><linearGradient id="linear-gradient-6" x1="0.757" y1="122.057" x2="0.757" y2="123.057" xlink:href="#linear-gradient-5"></linearGradient><radialGradient id="radial-gradient-2" cx="0.513" cy="0.558" r="1.082" gradientTransform="translate(3.971 -476.701) scale(0.348 5.703)" xlink:href="#radial-gradient"></radialGradient></defs><g id="bilancia" transform="translate(-365 -109)" clip-path="url(#clip-path)"><g id="bilancia1-01" transform="translate(306.936 53.717)"><ellipse id="Ellisse_1120" data-name="Ellisse 1120" cx="2.608" cy="5.96" rx="2.608" ry="5.96" transform="translate(105.574 75.176)" fill="#80b8e4"></ellipse><path id="Tracciato_666" data-name="Tracciato 666" d="M135.228,55.854c-6.9,0-9.264,8.941-3.353,13.113a12.716,12.716,0,0,1-4.048-3.2c-2.484-2.98-14.106-7.848-15.6,2.235,0,0-.174-1.366-2.955-2.235a5.116,5.116,0,0,0,1.763-4.619,4.5,4.5,0,0,0-3.08-3.353l.546,29.4a3.775,3.775,0,0,0,1.565-.422c6.283-5.24.919-8.419.919-8.419,4.967-.993,2.732-4.694,2.732-4.694,4.967,6.73,9.388,0,9.388,0s-.248,4.47,6.432,5.191,11.623-5.588,11.623-5.588C145.311,65.292,142.206,55.755,135.228,55.854Zm2.111,11.2a3.253,3.253,0,0,1-2.955,2.484,2.483,2.483,0,0,0,1.54-.7c2.061-1.987,2.98-6.01-2.26-4.147-.919.348-1.44-.571-.571-2.012,2.484-3.974,5.613.2,4.222,4.3Z" fill="url(#linear-gradient)"></path><path id="Tracciato_667" data-name="Tracciato 667" d="M106.791,86.923a4.1,4.1,0,0,0,1.714.373l-.472-29.355a4.57,4.57,0,0,0-2.906,3.477,4.346,4.346,0,0,0,1.49,4.2,3.651,3.651,0,0,0-3.924,3.229C98.745,64.621,91.816,67.1,91.816,67.1a15.423,15.423,0,0,0-7.153,6.929c-4.3,8.22-2.782,12.02-5.985,16.515s-9.288,3.08-9.586-1.118,4.272-8.22,5.613-3.825c.5,1.614-.671,3.03-1.49,2.484-4.619-3.1-4.719,1.018-3.2,3.452a3.924,3.924,0,0,0,3.179,1.391c7.947-.894,7.451-12.591,1.018-15.249S60.672,85.88,63.851,94.6c3.5,9.562,10.307,11.275,18.279,7.451,7.451-3.5,10.952-17.161,10.952-17.161A31.417,31.417,0,0,0,94.2,80.64s4.57,6.631,10.406,0C103.761,81.782,103.066,84.191,106.791,86.923Z" fill="#80b8e4"></path><g id="Raggruppa_1128" data-name="Raggruppa 1128" opacity="0.34"><path id="Tracciato_668" data-name="Tracciato 668" d="M108.43,84.614v2.633a3.6,3.6,0,0,0,1.416-.348c6.258-5.141,1.291-8.419.969-8.618A7.252,7.252,0,0,1,108.43,84.614Z" fill="url(#linear-gradient-2)"></path><path id="Tracciato_669" data-name="Tracciato 669" d="M135.228,56a7.028,7.028,0,0,0-4.172,12.542,3.825,3.825,0,0,0,4.2.969,3.8,3.8,0,0,1-.894.174,2.98,2.98,0,0,0,1.54-.671c1.912-1.863,2.831-5.439-1.242-4.5a2.632,2.632,0,0,0,.969.919c1.987,1.242-.248,2.484-.248,2.484s-8.146-1.465-4.47-7.153,7.9-.248,7.9-.248a11.6,11.6,0,0,1-2.21,13.982c-6.706,6.407-13.337-3.2-13.337-3.2-4.967,6.432-10.083.248-10.083.248.248,4.694-3.08,4.172-3.08,4.172a6.482,6.482,0,0,1,.77,2.484c4.967-.571,3.005-4.247,2.955-4.5,4.967,6.73,9.139-.248,9.139-.248s0,4.5,6.705,5.215,11.5-5.315,11.5-5.315C145.286,65.466,142.181,55.979,135.228,56Z" fill="url(#linear-gradient-3)"></path></g><path id="Tracciato_670" data-name="Tracciato 670" d="M106.791,86.923a4.1,4.1,0,0,0,1.714.373V84.614c-3.551-1.763-2.881-8.692-2.881-8.692C98.7,84.34,93.008,75.7,93.008,75.7c-5.489,16.54-7.451,19.868-9.164,21.979a13.361,13.361,0,0,1-10.555,3.1,12.144,12.144,0,0,1-7.451-8.543,12.418,12.418,0,0,1,2.707-11.126,4.967,4.967,0,0,1,7.451,0,11.971,11.971,0,0,1,1.267,7.451c-.745,2.732-3.005,3.2-5.489,1.962a2.881,2.881,0,0,1-1.44-3.6,1.217,1.217,0,0,0-1.267,1.118,1.887,1.887,0,0,0,0,.522,5.538,5.538,0,0,0,.869,2.931,3.949,3.949,0,0,0,3.179,1.391c7.947-.894,7.451-12.591,1.043-15.249S60.672,85.806,63.851,94.523c3.5,9.562,10.307,11.275,18.279,7.451,7.451-3.5,10.952-17.161,10.952-17.161A31.417,31.417,0,0,0,94.2,80.565s4.57,6.631,10.406,0C103.761,81.782,103.066,84.191,106.791,86.923Z" fill="url(#linear-gradient-4)"></path><path id="Tracciato_671" data-name="Tracciato 671" d="M59.9,134.731,77.237,95.963,98.67,135.6l-2.608-1.54L77.237,98.993l-15.6,35.067Z" fill="#18304e"></path><path id="Tracciato_672" data-name="Tracciato 672" d="M119.333,107.76l15.149-34.322,18.751,35.092-2.26-1.341L134.483,76.12l-13.659,31.069Z" fill="#18304e"></path><path id="Tracciato_673" data-name="Tracciato 673" d="M58.065,137.214s-.224,5.861,11.052,12.12S86.5,151.818,91,148.688c3.03-2.161,7.823-5.588,8.643-12.12,0,0,0,2.806-4.545,5.191s-4.669,2.757-12.418,3.477c-8.121.745-18.626-1.738-21.234-3.7a10.406,10.406,0,0,1-3.378-4.321Z" fill="url(#linear-gradient-5)"></path><ellipse id="Ellisse_1121" data-name="Ellisse 1121" cx="20.787" cy="8.767" rx="20.787" ry="8.767" transform="translate(58.065 128.125)" fill="#80b8e4"></ellipse><ellipse id="Ellisse_1122" data-name="Ellisse 1122" cx="16.565" cy="6.06" rx="16.565" ry="6.06" transform="translate(62.187 130.509)" fill="url(#radial-gradient)"></ellipse><path id="Tracciato_674" data-name="Tracciato 674" d="M116.874,111.485s-.149,5.24,10.406,10.878,16.416,2.26,20.613-.571c2.881-1.937,7.451-4.967,8.171-10.878,0,0,0,2.484-4.3,4.669s-4.421,2.484-11.623,3.1c-7.674.671-17.558-1.565-20.017-3.3a9.214,9.214,0,0,1-3.253-3.9Z" fill="url(#linear-gradient-6)"></path><ellipse id="Ellisse_1123" data-name="Ellisse 1123" cx="19.595" cy="7.873" rx="19.595" ry="7.873" transform="translate(116.874 103.339)" fill="#80b8e4"></ellipse><ellipse id="Ellisse_1124" data-name="Ellisse 1124" cx="15.621" cy="5.439" rx="15.621" ry="5.439" transform="translate(120.749 105.475)" fill="url(#radial-gradient-2)"></ellipse><ellipse id="Ellisse_1125" data-name="Ellisse 1125" cx="2.061" cy="1.838" rx="2.061" ry="1.838" transform="translate(75.723 95.541)" fill="#18304e"></ellipse><ellipse id="Ellisse_1126" data-name="Ellisse 1126" cx="2.061" cy="1.838" rx="2.061" ry="1.838" transform="translate(132.223 72.37)" fill="#18304e"></ellipse></g></g></svg>