<svg xmlns="http://www.w3.org/2000/svg" width="33.922" height="33.967" viewBox="0 0 33.922 33.967"><path id="biscotto-fortuna" d="M47.839,41.962V40.294a1.188,1.188,0,1,0-2.37-.033c-.059,1.385-.022,2.78-.169,4.156a20.116,20.116,0,0,1-4.894,11.2c-1.089,1.24-.85,1.309-2.421.351A16.623,16.623,0,0,1,29.8,43.389a16.457,16.457,0,0,1,2.855-11.6c.2-.31.241-.491-.059-.775-.857-.816-1.678-1.658-2.512-2.492-.565-.565-.563-.755,0-1.326l4.079-4.079c.612-.612.765-.612,1.395.016.969.969,1.952,1.925,2.9,2.91a.515.515,0,0,0,.71.118,16.451,16.451,0,0,1,15.947.575,16.314,16.314,0,0,1,8.28,12.22,16.914,16.914,0,0,1-8.936,17.5.749.749,0,0,1-1.044-.2,20.64,20.64,0,0,1-5.457-11.944c-.082-.775-.116-1.556-.173-2.333ZM46.658,28.99c-.912.1-1.835.128-2.735.308a15.5,15.5,0,0,0-12.44,11.086A7.4,7.4,0,0,0,31,43.534a15.554,15.554,0,0,0,7.619,11.522c.459.283.675.171.973-.181a20.022,20.022,0,0,0,4.283-8.51,27.036,27.036,0,0,0,.491-6.157,2.319,2.319,0,0,1,2.294-2.331,2.356,2.356,0,0,1,2.3,2.394c.037,1.456.035,2.92.2,4.364A19.121,19.121,0,0,0,53.837,55a.474.474,0,0,0,.732.118,15.73,15.73,0,0,0,7.152-8.871,8.314,8.314,0,0,0,.542-4.179A16.022,16.022,0,0,0,46.658,28.99ZM39.7,27.112c0,.1,0,.12.014.128.408.408.834.789,1.205,1.224a.658.658,0,0,0,.816.2,16.315,16.315,0,0,1,8.581-.339,16.728,16.728,0,0,1,11.082,8.19c.071.118.133.245.2.359a2.464,2.464,0,0,0,.226.277,15.184,15.184,0,0,0-8.579-10.18A15.642,15.642,0,0,0,39.7,27.112Zm-4.788-3.059L31.1,27.858l4.24,4.193,4.615-2.908ZM31.41,37.1l2.973-4.166-.671-.661A15.366,15.366,0,0,0,31.41,37.1Z" transform="translate(-29.663 -22.66)" fill="#073ab7"></path></svg>