<svg xmlns="http://www.w3.org/2000/svg" xmlns:xlink="http://www.w3.org/1999/xlink" width="98" height="98" viewBox="0 0 98 98"><defs><clipPath id="clip-path"><rect id="Rettangolo_2150" data-name="Rettangolo 2150" width="98" height="98" transform="translate(503 109)" fill="#fff" stroke="#707070" stroke-width="1"></rect></clipPath><linearGradient id="linear-gradient" x1="1.632" y1="97.833" x2="2.633" y2="97.833" gradientUnits="objectBoundingBox"><stop offset="0" stop-color="#7eaadb"></stop><stop offset="0.15" stop-color="#7fb4e2"></stop><stop offset="0.37" stop-color="#80bbe7"></stop><stop offset="1" stop-color="#80bde8"></stop></linearGradient><linearGradient id="linear-gradient-2" x1="1.772" y1="111.65" x2="2.774" y2="111.65" xlink:href="#linear-gradient"></linearGradient><linearGradient id="linear-gradient-3" x1="1.711" y1="107.113" x2="1.711" y2="108.115" xlink:href="#linear-gradient"></linearGradient><linearGradient id="linear-gradient-4" x1="0.639" y1="45.672" x2="1.639" y2="45.672" gradientUnits="objectBoundingBox"><stop offset="0" stop-color="#758bc5"></stop><stop offset="0.24" stop-color="#789ad0"></stop><stop offset="0.71" stop-color="#7eb4e1"></stop><stop offset="1" stop-color="#80bde8"></stop></linearGradient><linearGradient id="linear-gradient-5" x1="0.478" y1="31.154" x2="1.478" y2="31.154" xlink:href="#linear-gradient-4"></linearGradient><linearGradient id="linear-gradient-6" x1="2.103" y1="93.687" x2="1.449" y2="94.275" gradientUnits="objectBoundingBox"><stop offset="0" stop-color="#80bde8"></stop><stop offset="0.47" stop-color="#7eaadb"></stop></linearGradient><linearGradient id="linear-gradient-7" x1="1.409" y1="83.626" x2="2.411" y2="83.626" xlink:href="#linear-gradient-4"></linearGradient><linearGradient id="linear-gradient-8" x1="1.435" y1="88.295" x2="2.436" y2="88.295" xlink:href="#linear-gradient-4"></linearGradient><linearGradient id="linear-gradient-9" x1="1.376" y1="81.597" x2="2.372" y2="81.597" xlink:href="#linear-gradient-4"></linearGradient><radialGradient id="radial-gradient" cx="0.499" cy="0.5" r="0.537" gradientTransform="translate(0.098) scale(0.874 1)" gradientUnits="objectBoundingBox"><stop offset="0" stop-color="#80bde8"></stop><stop offset="0.27" stop-color="#7eb4e1"></stop><stop offset="0.72" stop-color="#789ad0"></stop><stop offset="0.94" stop-color="#758bc5"></stop></radialGradient><radialGradient id="radial-gradient-2" cx="0.5" cy="0.5" r="0.533" gradientTransform="translate(0.483) scale(0.883 1)" gradientUnits="objectBoundingBox"><stop offset="0" stop-color="#80bde8"></stop><stop offset="0.03" stop-color="#7ab4df"></stop><stop offset="0.07" stop-color="#689dc5"></stop><stop offset="0.12" stop-color="#4c779c"></stop><stop offset="0.19" stop-color="#264363"></stop><stop offset="0.21" stop-color="#18304e"></stop><stop offset="0.46" stop-color="#7fb0df"></stop><stop offset="0.66" stop-color="#18304e"></stop></radialGradient></defs><g id="cancro" transform="translate(-503 -109)" clip-path="url(#clip-path)"><g id="cancro1-01" transform="translate(453.125 56.649)"><g id="Gambe"><path id="Tracciato_675" data-name="Tracciato 675" d="M122.372,86.713s7.612-3.622,8.321-1.2c0,0,5.115,5.14,5.115,6.755a3.059,3.059,0,0,1-1.713,2.447L129.2,87.79l-7.612.685Z" fill="#80b8e4"></path><path id="Tracciato_676" data-name="Tracciato 676" d="M119.19,90.041s5.874-1.371,9.349.685,3.28,12.482,3.28,12.482a31.817,31.817,0,0,1-5.874,3.965c-1.42.343-1.689-2.447-1.689-2.447l4.5-3.989s-1.909-5.874-2.252-7.783a35.072,35.072,0,0,1-7.342-1.2C118.187,91.045,119.19,90.041,119.19,90.041Z" fill="url(#linear-gradient)"></path><path id="Tracciato_677" data-name="Tracciato 677" d="M118.162,91.73s7.783-.171,8.125,4.5a73.863,73.863,0,0,1-.343,10.916l-1.836-3.745a68.189,68.189,0,0,1-1.738-7.342L114.3,95.45Z" fill="url(#linear-gradient-2)"></path><path id="Tracciato_678" data-name="Tracciato 678" d="M122.372,86.713s5.9-1.493,7.783-.465,5.482,10.426,5.482,10.426.685.857-1.028,2.447a38.279,38.279,0,0,1-3.475,2.766l-1-2.594a8,8,0,0,1,2.521-3.108,66.714,66.714,0,0,1-4.5-7.612s-1.909,1.738-7.807.514S122.372,86.713,122.372,86.713Z" fill="url(#linear-gradient-3)"></path></g><path id="Tracciato_679" data-name="Tracciato 679" d="M54.015,113.292c-1.811-5.678-1.738-10.916,8.3-22.321A31.474,31.474,0,0,1,74.28,81.793a9.08,9.08,0,0,0,5.36-2.741,11.185,11.185,0,0,1,6.926-2.594l-3.084,14.1-7.147,8.664a22.247,22.247,0,0,1-14.024,9.007l7.342-9.521a17.132,17.132,0,0,0-13,12.751S55.092,116.6,54.015,113.292Z" fill="url(#linear-gradient-4)"></path><path id="Tracciato_680" data-name="Tracciato 680" d="M112.337,106.537s-2.594-8.639-1.028-11.6,13.681,8.321,13.681,8.321,4.5,5.017.881,8.3c0,0,8.468,7.783-9.521,22.149,0,0-15.59,15.761-32.869,16.643,0,0-1.566.171,2.252-1.566s17.3-9.521,18.478-20.265c0,0-7.1,1.738-15.052,13.167,0,0,1.542-14.391,12.971-22.859C102.132,118.8,100.345,111.383,112.337,106.537Z" fill="url(#linear-gradient-5)"></path><g id="Coda"><path id="Tracciato_681" data-name="Tracciato 681" d="M129.567,77.877s-1.371,5.9,1.566,7.1,4.332-.171,4.332-.171-1.224-.147-.538,4.112,2.986,3.182,2.986,3.182,2.766,0,5.36-12.237S129.567,77.877,129.567,77.877Z" fill="url(#linear-gradient-6)"></path><path id="Tracciato_682" data-name="Tracciato 682" d="M129.567,62.14s-.857-2.447,2.594-1.591,9.178,8.321,11.087,11.772,1.86,6.926-.2,8.664c0,0-1.738-5.189-4.5-4.895S129.567,62.14,129.567,62.14Z" fill="url(#linear-gradient-7)"></path><path id="Tracciato_683" data-name="Tracciato 683" d="M124.819,61.969a2.08,2.08,0,0,1,1.738-2.056,3.377,3.377,0,0,1,3.28,1.2s-.343-.343.343-.171a18.5,18.5,0,0,1,9.007,9.79c1.909,6.045-1.542,7.954-1.542,7.954s-1.738,2.252-5.9-1.4S124.819,61.969,124.819,61.969Z" fill="url(#linear-gradient-8)"></path><path id="Tracciato_684" data-name="Tracciato 684" d="M117.8,62.14a4.895,4.895,0,0,1,7.342-.857s10.744,3.28,7.612,16.422a6.975,6.975,0,0,1-7.342,3.3C120.414,79.786,117.8,62.14,117.8,62.14Z" fill="url(#linear-gradient-9)"></path></g><path id="Tracciato_685" data-name="Tracciato 685" d="M86.248,98.754s-8.982,2.766-12.629,15.957c0,0-.514-9.521,4.5-15.076S83.8,83.017,83.8,83.017s3.475-16.936,18.331-16.936a16.692,16.692,0,0,1,16.275-4.356A21.733,21.733,0,0,1,126.019,81.3s-4.675,16.422-18.7,17.132Z" fill="#80b8e4"></path><path id="Tracciato_686" data-name="Tracciato 686" d="M112.582,89.576s2.447,10.01-17.67,12.066c0,0-7.954,1.028-9.521,5.384s1.224,8.982,9.007,7.342,27.338-6.926,41.9,3.794c0,0-14.685-9.79-36.026-1.542s-20.24-9.5-17.989-15.884-3.475-2.056-3.475-2.056-4.161,1.371-10.548-2.276A16.006,16.006,0,0,1,60.917,78.22C62.63,70.878,71,61.8,92.073,60.452s27.852-8.1,27.852-8.1-1.885,6.608-29.369,10.94S64.417,79.884,64.245,85.929,75.332,100.32,82.6,90.261s15.737-5.7,15.737-5.7,11.772-6.412,14.685-1.224S112.582,89.576,112.582,89.576Z" fill="url(#radial-gradient)"></path><path id="Tracciato_687" data-name="Tracciato 687" d="M83.36,102.3a23.593,23.593,0,0,1,9.79-8.493,48.557,48.557,0,0,1,10.72-3.475,22.737,22.737,0,0,0,7.342-2.937,71.813,71.813,0,0,0-5.727,5.6c-1.713,2.056-7.538,3.745-11.16,4.112a18.258,18.258,0,0,0-10.548,5.678Z" fill="#18304e"></path><ellipse id="Ellisse_1127" data-name="Ellisse 1127" cx="2.937" cy="2.594" rx="2.937" ry="2.594" transform="translate(96.674 92.268)" fill="url(#radial-gradient-2)"></ellipse></g></g></svg>