<svg xmlns="http://www.w3.org/2000/svg" xmlns:xlink="http://www.w3.org/1999/xlink" width="98" height="98" viewBox="0 0 98 98"><defs><clipPath id="clip-path"><rect id="Rettangolo_2150" data-name="Rettangolo 2150" width="98" height="98" transform="translate(641 109)" fill="#fff" stroke="#707070" stroke-width="1"></rect></clipPath><linearGradient id="linear-gradient" x1="0.212" y1="66.795" x2="1.214" y2="66.795" gradientUnits="objectBoundingBox"><stop offset="0" stop-color="#7fabdc"></stop><stop offset="0.39" stop-color="#7fb4e2"></stop><stop offset="1" stop-color="#80bde8"></stop></linearGradient><linearGradient id="linear-gradient-2" x1="0.647" y1="121.314" x2="1.645" y2="121.314" xlink:href="#linear-gradient"></linearGradient><linearGradient id="linear-gradient-3" x1="0.344" y1="44.325" x2="1.821" y2="43.948" gradientUnits="objectBoundingBox"><stop offset="0" stop-color="#758bc5"></stop><stop offset="0.24" stop-color="#789ad0"></stop><stop offset="0.71" stop-color="#7eb4e1"></stop><stop offset="1" stop-color="#80bde8"></stop></linearGradient><linearGradient id="linear-gradient-4" x1="0.386" y1="51.792" x2="1.391" y2="51.792" xlink:href="#linear-gradient-3"></linearGradient><linearGradient id="linear-gradient-5" x1="0.484" y1="84.813" x2="1.551" y2="84.319" xlink:href="#linear-gradient"></linearGradient><linearGradient id="linear-gradient-6" x1="0.346" y1="44.341" x2="1.839" y2="43.964" xlink:href="#linear-gradient-3"></linearGradient><linearGradient id="linear-gradient-7" x1="0.159" y1="46.357" x2="1.161" y2="46.357" gradientUnits="objectBoundingBox"><stop offset="0.01" stop-color="#758bc5"></stop><stop offset="0.18" stop-color="#7895cc"></stop><stop offset="0.69" stop-color="#7eafde"></stop><stop offset="1" stop-color="#80b8e4"></stop></linearGradient><linearGradient id="linear-gradient-8" x1="0.206" y1="51.989" x2="1.206" y2="51.989" gradientUnits="objectBoundingBox"><stop offset="0" stop-color="#758bc5"></stop><stop offset="0.17" stop-color="#7a9fd3"></stop><stop offset="0.37" stop-color="#7daddc"></stop><stop offset="0.61" stop-color="#7fb5e2"></stop><stop offset="1" stop-color="#80b8e4"></stop></linearGradient><radialGradient id="radial-gradient" cx="0.495" cy="0.501" r="0.607" gradientTransform="translate(0.397) scale(0.724 1)" gradientUnits="objectBoundingBox"><stop offset="0" stop-color="#80bde8"></stop><stop offset="0.03" stop-color="#7ab4df"></stop><stop offset="0.07" stop-color="#689dc5"></stop><stop offset="0.12" stop-color="#4c779c"></stop><stop offset="0.19" stop-color="#264363"></stop><stop offset="0.21" stop-color="#18304e"></stop><stop offset="0.46" stop-color="#7fb0df"></stop><stop offset="0.66" stop-color="#18304e"></stop></radialGradient><linearGradient id="linear-gradient-9" x1="0.351" y1="43.697" x2="1.347" y2="43.697" gradientUnits="objectBoundingBox"><stop offset="0" stop-color="#80bde8"></stop><stop offset="0.29" stop-color="#7eb4e1"></stop><stop offset="0.76" stop-color="#789ad0"></stop><stop offset="1" stop-color="#758bc5"></stop></linearGradient><linearGradient id="linear-gradient-10" x1="0.491" y1="50.475" x2="1.483" y2="50.475" xlink:href="#linear-gradient-9"></linearGradient></defs><g id="capricorno" transform="translate(-641 -109)" clip-path="url(#clip-path)"><g id="capricorno1-01" transform="translate(586.74 56.86)"><path id="Tracciato_688" data-name="Tracciato 688" d="M70.935,58.695a11.843,11.843,0,0,0,3.55-.223c1.614-.521,5.537-1.812,6.555-1.018.621.447.422.869,3.029.646s4.668-.2,5.512,1.068,2.309.521,3.029.2.323,0,1.49.646a.745.745,0,0,0,.844,0c.422-.2.844-.2,1.688,1.018a3,3,0,0,0,3.2.844c.5,0,1.266-.223,1.465,1.49s1.688,1.316,2.334,1.266.546.223,1.217,2.235a5.636,5.636,0,0,0,3.352,2.9c1.266.223.919,2.483,1.018,3.4a5.09,5.09,0,0,0,1.788,2.731c1.068,1.068.571,2.731.422,3.625A2.706,2.706,0,0,0,112.7,82.7c1.49.646-9.336,1.49-10.4-1.49S97.924,61.873,70.935,58.695Z" fill="url(#linear-gradient)"></path><path id="Tracciato_689" data-name="Tracciato 689" d="M89.01,52.14a11.322,11.322,0,0,0,3.5.869c1.713,0,5.835,0,6.6,1.018.422.6,0,.919,2.632,1.49s4.519,1.217,4.966,2.681,2.011,1.217,2.781,1.092c.4,0,.348,0,1.217,1.018a.72.72,0,0,0,.795.248c.472,0,.894,0,1.316,1.539s2.011,1.664,2.781,1.763,1.266.174.993,1.862,1.192,1.788,1.862,1.912.521.3.571,2.483a5.735,5.735,0,0,0,2.284,3.9c1.167.571.149,2.657,0,3.55a5.487,5.487,0,0,0,.795,3.178c.7,1.341-.248,2.756-.67,3.575a2.657,2.657,0,0,0,.248,3.426c1.266,1.043-9.36-1.415-9.484-4.568S113.74,63.213,89.01,52.14Z" fill="#80b8e4"></path><path id="Tracciato_690" data-name="Tracciato 690" d="M89.383,101.375S77.713,99.24,75.8,108.153s11.173,9.658,10.577,2.483c0,0-3.774,2.83-4.618.3s3.377-3.824,5.288-3.2S89.383,101.375,89.383,101.375Z" fill="url(#linear-gradient-2)"></path><path id="Tracciato_691" data-name="Tracciato 691" d="M112.573,99.885s-12.538,12.414-12.091,16.983a15.667,15.667,0,0,0,5.115,10.4,3.153,3.153,0,0,1-2.483,5.735c-3.8-.223-.2-5.735,2.483-4.022,0,0-4.966-3.824-7.449,1.068s3.253,8.988,4.891,9.336,11.471,1.688,12.067-9.758a171.737,171.737,0,0,0-2.533-29.745Z" fill="url(#linear-gradient-3)"></path><path id="Tracciato_692" data-name="Tracciato 692" d="M107.284,117.513s5.512.621,6.778,12.414-4.668,9.534-4.668,9.534-6.58-3.8,1.912-6.778c0,0-9.336-1.49-8.913,6.157s7.871,12.414,12.414,11.074,10.4-4.668,10.4-14.649a13.085,13.085,0,0,0-8.069-12.737l-4.246-6.157Z" fill="url(#linear-gradient-4)"></path><path id="Tracciato_693" data-name="Tracciato 693" d="M100.928,111.008s-6.58,20.285,4.2,20.583,6.6-8.988,6.6-8.988-2.756-1.713-4.668-.844c0,0,4.246,1.266.844,3.178s-4.444-5.512,5.115-8.715S100.928,111.008,100.928,111.008Z" fill="url(#linear-gradient-5)"></path><path id="Tracciato_694" data-name="Tracciato 694" d="M97.7,88.837s-12.563,12.414-12.067,16.983a15.617,15.617,0,0,0,4.966,10.4,3.153,3.153,0,0,1-2.334,5.735c-3.824-.2-.223-5.735,2.483-4.022,0,0-4.966-3.824-7.449,1.018s3.029,8.913,4.668,9.336,11.471,1.713,12.091-9.758A173.624,173.624,0,0,0,97.7,88.837Z" fill="url(#linear-gradient-6)"></path><path id="Tracciato_695" data-name="Tracciato 695" d="M93.231,84.814s2.334-2.483,9.137-3.625S119.152,82.48,129.531,93.6a4.593,4.593,0,0,0-.2,4.246,40.967,40.967,0,0,1,2.955,8.491c1.068,4.246,3.2,4.469,3.2,4.469a3.55,3.55,0,0,1-1.018,3.4,7.449,7.449,0,0,0-1.713,5.313c.2.844-12.414,4.047-14.9-1.688l-4.966-1.49s.422,1.688-2.11,2.756-5.735.646-9.336-2.16-6.306-7.8-5.313-18.472a40.024,40.024,0,0,1,1.366-6.6C98.147,90.5,93.231,84.814,93.231,84.814Z" fill="#80b8e4"></path><path id="Tracciato_696" data-name="Tracciato 696" d="M84.417,92.461s0-3.824,5.313-3.824L91,86.5a11.024,11.024,0,0,0-10.18,3.153,8.044,8.044,0,0,0,2.334,12.414c3.178.844,8.913,3.848,13.383-4.2,0,0-2.756,12.936,9.336,12.737,0,0-1.266-6.157,1.912-6.8s16.784,5.14,12.985,12.985c0,0,3.4,3.4,6.381,1.49s.993-7.449-1.291-8.491c0,0,4.966,4.469,7.449,2.334,0,0-7.7-26.07-20.806-28.876-2.309-.521-9.062-2.16-9.062-2.16s-7.051.646-9.758,3.4A7.9,7.9,0,0,0,91.2,90.227a4.221,4.221,0,0,1-3.6,4.668S84.144,94.994,84.417,92.461Z" fill="url(#linear-gradient-7)"></path><path id="Tracciato_697" data-name="Tracciato 697" d="M81.115,72.549A14.326,14.326,0,0,0,96.409,84.963c13.954-.2,22.495,2.756,27.585,21.228,0,0-1.465-4.966-6.157-4.246s-11.446-.149-8.591-6.729-12.414-2.135-9.931,8.913c0,0-4.444-1.713-1.912-12.414C97.278,91.866,78.582,92.66,81.115,72.549Z" fill="url(#linear-gradient-8)"></path><path id="Occhio" d="M111.406,94.895s0,1.688,3.377,1.266,6.381,1.912,5.313,4.246-5.735.844-6.356.422a4.246,4.246,0,0,1-2.334-5.934Z" fill="url(#radial-gradient)"></path><g id="Naso"><path id="Tracciato_698" data-name="Tracciato 698" d="M131.417,116.371a2.9,2.9,0,0,1,0,.5,1.142,1.142,0,0,0,0-.5Z" fill="#18304e"></path><path id="Tracciato_699" data-name="Tracciato 699" d="M134.645,111.728a5.636,5.636,0,0,1-6.9-.472c3,2.93,3.6,4.395,3.625,4.966a10.825,10.825,0,0,1,3.277-4.494Z" fill="#18304e"></path></g><g id="Bocca"><path id="Tracciato_700" data-name="Tracciato 700" d="M124.366,117.811a3.153,3.153,0,0,0,3.1,1.366,4.519,4.519,0,0,0,3.9-2.632s.2,1.49-2.284,2.483S125.086,119.425,124.366,117.811Z" fill="#18304e"></path><path id="Tracciato_701" data-name="Tracciato 701" d="M131,117.513s-.273.993,1.415.745C132.435,118.258,131.07,118.258,131,117.513Z" fill="#18304e"></path></g><path id="Tracciato_702" data-name="Tracciato 702" d="M112.151,118.134a2.83,2.83,0,0,0,.844-3.029c-.422-2.011-1.688-5.239-5.115-2.011,0,0,2.483-1.713,2.483,1.266s-7.647-.273-1.068-5.288c2.235-1.713,10.949-1.738,5.785,9.633l14.028,12.886,3,5.934a17.554,17.554,0,0,1-6.58,4.966c-3.4,1.068,2.9,4.966,5.512-.67,0,0-1.887,8.74-7.449,5.984s2.731-11.3,2.731-11.3,3.029-3.029-4.444-6.157S111.927,120.89,112.151,118.134Z" fill="url(#linear-gradient-9)"></path><path id="Tracciato_703" data-name="Tracciato 703" d="M130.921,141.821s-2.483,5.959-6.033,2.657c-.993-.919-1.912-2.334,3.625-4.022s4.693-6.033,4.022-8.293a10.4,10.4,0,0,0-6.381-7.026c-4.246-1.688-2.334-4.3-2.334-4.3s-5.735-.422-5.735-3.4c0,0,3.4-1.49,1.912-3.824s-4.668.223-4.966,2.756-1.266,4.966,2.756,8.293,8.044,4.246,9.36,5.512,5.512,4.966-.844,9.137-1.291,7.449-1.291,7.449S128.81,149.89,130.921,141.821Z" fill="url(#linear-gradient-10)"></path></g></g></svg>