<svg xmlns="http://www.w3.org/2000/svg" width="87.674" height="110.605" viewBox="0 0 87.674 110.605"><g id="badge" transform="translate(-53.074 -0.001)"><g id="Raggruppa_1135" data-name="Raggruppa 1135" transform="translate(53.074 0.001)"><path id="Tracciato_945" data-name="Tracciato 945" d="M139.342,45.415a8.548,8.548,0,0,0-.984-10.624,5.34,5.34,0,0,1-1.366-4.8,8.547,8.547,0,0,0-4.756-9.551,5.34,5.34,0,0,1-3.008-3.983,8.548,8.548,0,0,0-7.885-7.188A5.34,5.34,0,0,1,117.1,6.641a8.548,8.548,0,0,0-9.949-3.854,5.34,5.34,0,0,1-4.906-.917,8.548,8.548,0,0,0-10.669,0,5.339,5.339,0,0,1-4.906.917,8.548,8.548,0,0,0-9.949,3.854,5.34,5.34,0,0,1-4.243,2.627,8.548,8.548,0,0,0-7.885,7.188,5.34,5.34,0,0,1-3.007,3.983,8.548,8.548,0,0,0-4.756,9.551,5.34,5.34,0,0,1-1.366,4.8,8.548,8.548,0,0,0-.984,10.624,5.339,5.339,0,0,1,.46,4.969,8.548,8.548,0,0,0,2.92,10.262,5.34,5.34,0,0,1,2.224,4.468,8.549,8.549,0,0,0,6.43,8.515,5.338,5.338,0,0,1,2.855,1.864L60.441,97.044a3.863,3.863,0,0,0,4.7,5.172l9.773-3a.625.625,0,0,1,.733.3l4.79,9.032a3.863,3.863,0,0,0,6.982-.332l9.3-22.462q.183-.006.366,0l9.3,22.462a3.863,3.863,0,0,0,6.983.332l4.79-9.032a.624.624,0,0,1,.733-.3l9.773,3a3.864,3.864,0,0,0,4.7-5.172l-8.927-21.551a5.338,5.338,0,0,1,2.855-1.864,8.549,8.549,0,0,0,6.43-8.515,5.339,5.339,0,0,1,2.225-4.467,8.548,8.548,0,0,0,2.92-10.262,5.344,5.344,0,0,1,.461-4.97ZM84.43,106.98a.622.622,0,0,1-1.126.054L78.514,98a3.869,3.869,0,0,0-4.546-1.883l-9.773,3a.622.622,0,0,1-.759-.835l7.92-19.121a8.545,8.545,0,0,0,7.919,3.445,5.342,5.342,0,0,1,4.654,1.8,8.515,8.515,0,0,0,8.755,2.647Zm45.2-7.862-9.773-3A3.869,3.869,0,0,0,115.308,98l-4.79,9.032a.622.622,0,0,1-1.127-.054L101.141,87.06a8.543,8.543,0,0,0,8.754-2.651,5.338,5.338,0,0,1,4.654-1.8,8.539,8.539,0,0,0,7.919-3.445l7.92,19.12a.622.622,0,0,1-.759.835Zm7-55.474a8.578,8.578,0,0,0-.74,7.983,5.321,5.321,0,0,1-1.818,6.388,8.578,8.578,0,0,0-3.573,7.176,5.321,5.321,0,0,1-4,5.3,8.577,8.577,0,0,0-5.3,4.046l-.009.017a8.58,8.58,0,0,0-.619,1.338,5.319,5.319,0,0,1-5.647,3.5,8.577,8.577,0,0,0-7.476,2.9,5.322,5.322,0,0,1-6.529,1.221,8.573,8.573,0,0,0-2.357-.831l-.02,0a8.57,8.57,0,0,0-3.265,0l-.011,0a8.586,8.586,0,0,0-2.363.832,5.321,5.321,0,0,1-6.529-1.221,8.578,8.578,0,0,0-7.476-2.9,5.321,5.321,0,0,1-5.647-3.5,8.592,8.592,0,0,0-.618-1.337l-.011-.02a8.577,8.577,0,0,0-5.3-4.044,5.321,5.321,0,0,1-4-5.3,8.578,8.578,0,0,0-3.573-7.177,5.321,5.321,0,0,1-1.818-6.389,8.578,8.578,0,0,0-.74-7.983,5.321,5.321,0,0,1,.613-6.614A8.578,8.578,0,0,0,60,29.319a5.322,5.322,0,0,1,2.961-5.946,8.578,8.578,0,0,0,4.831-6.4A5.321,5.321,0,0,1,72.7,12.5a8.577,8.577,0,0,0,6.816-4.22,5.322,5.322,0,0,1,6.193-2.4A8.578,8.578,0,0,0,93.59,4.408a5.321,5.321,0,0,1,6.642,0,8.577,8.577,0,0,0,7.88,1.473,5.321,5.321,0,0,1,6.193,2.4,8.578,8.578,0,0,0,6.816,4.22,5.321,5.321,0,0,1,4.908,4.475,8.579,8.579,0,0,0,4.831,6.4,5.321,5.321,0,0,1,2.961,5.946,8.578,8.578,0,0,0,2.194,7.711,5.322,5.322,0,0,1,.612,6.614Z" transform="translate(-53.074 -0.001)" fill="#073ab7"></path><path id="Tracciato_946" data-name="Tracciato 946" d="M108.789,82.684a1.621,1.621,0,0,0,1.806-1.41,29.1,29.1,0,0,1,57.762.014,1.62,1.62,0,0,0,3.216-.394,32.344,32.344,0,0,0-64.194-.015,1.62,1.62,0,0,0,1.41,1.806Z" transform="translate(-95.638 -41.18)" fill="#073ab7"></path><path id="Tracciato_947" data-name="Tracciato 947" d="M170.16,212.216a1.622,1.622,0,0,0-1.805,1.411,29.1,29.1,0,0,1-57.763.013,1.62,1.62,0,0,0-3.216.4,32.343,32.343,0,0,0,64.195-.014A1.62,1.62,0,0,0,170.16,212.216Z" transform="translate(-95.636 -166.363)" fill="#073ab7"></path><path id="Tracciato_948" data-name="Tracciato 948" d="M195.285,110.962a3.106,3.106,0,0,0-2.87-2.165l-12.7-.456L175.354,96.4a3.136,3.136,0,0,0-5.891,0l-4.359,11.94-12.7.456a3.136,3.136,0,0,0-1.821,5.6l10.009,7.835L157.1,134.457a3.136,3.136,0,0,0,4.766,3.463l10.544-7.1,10.544,7.1a3.136,3.136,0,0,0,4.766-3.463l-3.492-12.222,10.009-7.835a3.106,3.106,0,0,0,1.05-3.438Zm-13.11,8.765a3.123,3.123,0,0,0-1.082,3.331l3.433,12.014L174.159,128.1a3.123,3.123,0,0,0-3.5,0l-10.365,6.977,3.433-12.014a3.123,3.123,0,0,0-1.082-3.331l-9.839-7.7,12.487-.448a3.123,3.123,0,0,0,2.833-2.058l4.285-11.737,4.285,11.737a3.123,3.123,0,0,0,2.833,2.058l12.487.448Z" transform="translate(-128.571 -73.961)" fill="#073ab7"></path></g></g></svg>