<svg xmlns="http://www.w3.org/2000/svg" xmlns:xlink="http://www.w3.org/1999/xlink" width="98" height="98" viewBox="0 0 98 98"><defs><clipPath id="clip-path"><rect id="Rettangolo_2150" data-name="Rettangolo 2150" width="98" height="98" transform="translate(779 109)" fill="#fff" stroke="#707070" stroke-width="1"></rect></clipPath><linearGradient id="linear-gradient" x1="1.877" y1="478.842" x2="1.877" y2="477.838" gradientUnits="objectBoundingBox"><stop offset="0" stop-color="#80bde8"></stop><stop offset="0.19" stop-color="#7eb4e1"></stop><stop offset="0.51" stop-color="#789ad0"></stop><stop offset="0.67" stop-color="#758bc5"></stop></linearGradient><linearGradient id="linear-gradient-2" x1="726.532" y1="480.093" x2="726.532" y2="479.092" xlink:href="#linear-gradient"></linearGradient><linearGradient id="linear-gradient-3" x1="0.26" y1="26.353" x2="1.26" y2="26.353" gradientUnits="objectBoundingBox"><stop offset="0" stop-color="#758bc5"></stop><stop offset="1" stop-color="#80b8e4"></stop></linearGradient><linearGradient id="linear-gradient-4" x1="0.38" y1="30.073" x2="0.931" y2="30.341" gradientUnits="objectBoundingBox"><stop offset="0" stop-color="#80bde8"></stop><stop offset="0.11" stop-color="#7eb4e1"></stop><stop offset="0.3" stop-color="#789ad0"></stop><stop offset="0.39" stop-color="#758bc5"></stop><stop offset="1" stop-color="#7fb2e0"></stop></linearGradient><linearGradient id="linear-gradient-5" x1="0.661" y1="60.872" x2="1.653" y2="60.872" gradientUnits="objectBoundingBox"><stop offset="0" stop-color="#7a9ad0"></stop><stop offset="0.28" stop-color="#7faede"></stop><stop offset="0.6" stop-color="#80bde8"></stop><stop offset="0.72" stop-color="#7eb4e1"></stop><stop offset="0.9" stop-color="#789ad0"></stop><stop offset="1" stop-color="#758bc5"></stop></linearGradient><linearGradient id="linear-gradient-6" x1="0.488" y1="86.576" x2="1.486" y2="86.576" xlink:href="#linear-gradient-5"></linearGradient><linearGradient id="linear-gradient-7" x1="1.01" y1="69.772" x2="1.01" y2="68.772" xlink:href="#linear-gradient"></linearGradient><linearGradient id="linear-gradient-8" x1="186.082" y1="91.826" x2="187.076" y2="91.826" xlink:href="#linear-gradient-5"></linearGradient><linearGradient id="linear-gradient-9" x1="475.189" y1="89.127" x2="476.197" y2="89.127" xlink:href="#linear-gradient-5"></linearGradient></defs><g id="gemelli" transform="translate(-779 -109)" clip-path="url(#clip-path)"><g id="gemelli1-01" transform="translate(734.149 68.176)"><path id="Tracciato_704" data-name="Tracciato 704" d="M124.088,56.689S138.78,69.611,134.6,86.14s8.253,16.6,8.253,16.6-13.763,1.283-11.373-10.665S129.332,69.943,124.088,56.689Z" fill="#80b8e4"></path><path id="Tracciato_705" data-name="Tracciato 705" d="M67.907,70.585a14.338,14.338,0,0,0-10.09,6.859c-2.921,5.8,1.416,13.542,1.416,13.542s14.737-2.9,6.129,22.127c-.288.863-2.1,3.784-3.562,6.638-1.195,2.39,3.142,6.483,7.346,3.562,0,0-8.386,1.261-2.1-6.926s7.966-17.7,4.846-20.91S66.381,73.218,67.907,70.585Z" fill="#80b8e4"></path><path id="Tracciato_706" data-name="Tracciato 706" d="M129.376,67.022a7.3,7.3,0,0,1-1.239,6.284c-2.213,3.562,4.425,9.006,4.425,9.006a1.416,1.416,0,0,1-.4,1.947l-.221.133a11.063,11.063,0,0,0-2.213,1.748s-1.04.974.841,1.261a7.5,7.5,0,0,0,1.261.2c.4,0,.2,2.921-2.522,2.921a2.213,2.213,0,0,1,.62,3.341s-2.213-1.881-2.08,3.983-7.346,2.213-7.346,2.213-6.638-1.682-9.692-.62-8.364-13.829-8.364-13.829l7.545-10.665-.221-3.142Z" fill="#80b8e4"></path><path id="Tracciato_707" data-name="Tracciato 707" d="M124.353,89.061s2.213,1.859,3.784.819a24.142,24.142,0,0,0,2.81-2.412h.752S127.739,93.685,124.353,89.061Z" opacity="0.3" fill="url(#linear-gradient)"></path><g id="Occhio"><path id="Tracciato_708" data-name="Tracciato 708" d="M115.768,77.931s1.682-1.947,5.222-.42,3.983-.841,3.983-.841.642,3.341-3.983,1.881A8.475,8.475,0,0,0,115.768,77.931Z" fill="#18304e"></path><path id="Tracciato_709" data-name="Tracciato 709" d="M115.856,72.8a5.775,5.775,0,0,1,7.236-.974,4.846,4.846,0,0,0,3.142.841,4.16,4.16,0,0,1-4.182-.42C119.485,70.806,115.856,72.8,115.856,72.8Z" fill="#18304e"></path></g><path id="Tracciato_710" data-name="Tracciato 710" d="M57.087,98.443c5.355-2.611,30.07,14.36,18.542,25.269-2.744,2.589,10.311,5.045,10.311,5.045s17.259-7.9,16.2-16.064c0,0-2.722-3.983,1.947-8.386,0,0,7.1-2.08,6.638-5.864s-9.913-11.727-9.913-11.727l3.784-4.425,7.744-3.12-7.744-6.505,5.244-3.363,18.5-3.12,2.522-2.722-5.244-6.638-6.129-4.669a22.481,22.481,0,0,0-12.966-1.482A30.181,30.181,0,0,0,94.15,54.454,27.548,27.548,0,0,0,82.423,67.863a14.073,14.073,0,0,0-13.276,2.213" fill="#80b8e4"></path><path id="Tracciato_711" data-name="Tracciato 711" d="M58.769,79.657a7.413,7.413,0,0,0,.686,6.395c1.969,3.762-5.222,8.563-5.222,8.563a1.438,1.438,0,0,0,.243,2.014h0l.2.133a11.462,11.462,0,0,1,2.213,1.881s.974.974-.951,1.173a8.164,8.164,0,0,1-1.283,0c-.4,0-.487,2.9,2.213,3.142a2.368,2.368,0,0,0-1.04,3.253s2.478-1.682,1.726,4.138,7.1,2.987,7.1,2.987S76.847,109.2,78.528,114c1.018,2.9,5.4-13.276,5.4-13.276l-6.483-11.4.509-3.1Z" fill="#80b8e4"></path><path id="Tracciato_712" data-name="Tracciato 712" d="M61.955,101.43s-2.213,1.925-3.762.841a24.671,24.671,0,0,1-2.876-2.412h-.73S58.57,106.076,61.955,101.43Z" opacity="0.3" fill="url(#linear-gradient-2)"></path><g id="Occhio-2"><path id="Tracciato_713" data-name="Tracciato 713" d="M71.337,91.738s-1.483-2.036-5.178-.907-3.872-1.195-3.872-1.195-.974,3.275,3.784,2.213A8.851,8.851,0,0,1,71.337,91.738Z" fill="#18304e"></path><path id="Tracciato_714" data-name="Tracciato 714" d="M71.713,86.583a5.709,5.709,0,0,0-7.058-1.615,4.934,4.934,0,0,1-3.208.531,4.116,4.116,0,0,0,4.2,0C68.306,84.3,71.713,86.583,71.713,86.583Z" fill="#18304e"></path></g><path id="Tracciato_715" data-name="Tracciato 715" d="M72.6,68.284S61.07,71.647,61.07,77.289s4.6,6.085,12.789,7.125,7.125,6.926,4.846,9.227a38.524,38.524,0,0,1-6.926,4.846,4.625,4.625,0,0,0-1.925,7.346c3.3,5.222,5.023,6.063,7.324,7.324s.841,4.182.841,4.182a11.971,11.971,0,0,1-4.6,3.142c-3.363,1.5-5.864,6.926,10.466,8.851a3.319,3.319,0,0,0,3.585-3.009h0a4.27,4.27,0,0,0,0-.752c-.2-3.983-2.522-4.182-7.744-3.54,0,0,6.483,2.213,3.12,3.142s-6.638,0-5.023-2.1,8.629-3.186,8.629-3.186,5.443-1.239,6.9-3.562,2.213-3.341-5.465-4.6-10.444-7.169-3.961-7.39,10.466-1.925,12.347-4.846,10.267-14.028-7.324-22.415a14.427,14.427,0,0,0-10.488-.841C72.178,77.909,63.814,74.147,72.6,68.284Z" fill="url(#linear-gradient-3)"></path><path id="Tracciato_716" data-name="Tracciato 716" d="M117.1,51.423s9.028,2.611,11.24,7.014c0,0,10.267,6.063.42,9.006s-16.131,4.425-16.131,4.425-4.846.841,1.04,4.425-2.08,4.846-2.08,4.846S98.8,83.861,105.722,89.99a17.281,17.281,0,0,0,5.642,3.762c4.824,2.522-7.5,8.718-7.5,8.718s-4.6,1.726-6.638-.974-6.638-5.841-9.006,3.142c0,0-.221-9.227,4.6-9.448a14.471,14.471,0,0,1,7.966,3.585s3.562,2.08,5.222-.863.642-3.54-1.859-5.222a51.645,51.645,0,0,1-5.664-4.625s-4.713-3.983,3.031-5.775,9.846-3.762,2.722-6.063S96.5,72.864,96.5,72.864s-2.921-3.363,7.324-4.27,18.41-2.213,18.41-2.213,10.046-.62,2.722-8.585a35.4,35.4,0,0,0-7.855-6.373Z" fill="url(#linear-gradient-4)"></path><path id="Tracciato_717" data-name="Tracciato 717" d="M120.968,53.215s8.1,6.151,8.851,9.515-3.607,4.58-3.607,4.58a97,97,0,0,1-9.669,2.213,38.1,38.1,0,0,0-10.09,2.633c-1.062.819-1.7,2.9.177,3.562s7.125,1.106,5.819,4.027a1.77,1.77,0,0,0-1.239-2.1,42.24,42.24,0,0,0-4.846-1.5,2.39,2.39,0,0,1,0-4.425,42.042,42.042,0,0,1,10.51-2.832l6.505-1.151s7.169-1.35,5.974-4.757S120.968,53.215,120.968,53.215Z" opacity="0.3" fill="url(#linear-gradient-5)"></path><path id="Tracciato_718" data-name="Tracciato 718" d="M103.6,82.755s-4.182,2.08-2.5,4.824,7.966,5.465,7.966,5.465a1.925,1.925,0,0,1,.2,3.562,18.985,18.985,0,0,1-5.664,3.983,4.58,4.58,0,0,1-4.182,0l-4.27-2.522a4.425,4.425,0,0,0-5.664.841s1.261-3.363,5.664-1.261c1.35.708,2.677,1.482,3.983,2.213.4.42,3.142,1.682,6.483-1.04s3.784-3.142,3.784-3.142,1.46-1.682-1.881-2.9a22.5,22.5,0,0,1-6.505-4.425S97.956,85.056,103.6,82.755Z" opacity="0.3" fill="url(#linear-gradient-6)"></path><path id="Tracciato_719" data-name="Tracciato 719" d="M59.942,74.678s-13.608,14.028-8.165,30.159-6.926,17.193-6.926,17.193,13.829.2,10.488-11.528S55.716,88.286,59.942,74.678Z" fill="#80b8e4"></path><path id="Tracciato_720" data-name="Tracciato 720" d="M66.823,70.651s-11.307,1.925-8.961,12.192S46.975,93.486,46.975,93.486s12.148,1.682,12.347-7.545S61.734,76.736,66.823,70.651Z" fill="url(#linear-gradient-7)"></path><path id="Tracciato_721" data-name="Tracciato 721" d="M63.615,74.678c-.819,3.363,3.607,4.58,3.607,4.58a91.184,91.184,0,0,0,9.669,2.213,36.465,36.465,0,0,1,10.09,2.611c1.018.885,1.7,2.921-.177,3.562s-7.147,1.173-5.864,4.071A1.748,1.748,0,0,1,82.157,89.5h0A39.694,39.694,0,0,1,87,88a2.39,2.39,0,0,0,0-4.425c-2.7-1.66-10.665-2.832-10.665-2.832l-6.417-1.084s-7.058-1.394-5.886-4.757" opacity="0.3" fill="url(#linear-gradient-8)"></path><path id="Tracciato_722" data-name="Tracciato 722" d="M78.351,110.192c-3.363-2.722-3.784-3.142-3.784-3.142s-1.46-1.682,1.947-2.921A21.441,21.441,0,0,0,82.954,99.7s3.142-3.341-2.522-5.664c0,0,4.2,2.213,2.522,4.846s-7.944,5.421-7.944,5.421a1.925,1.925,0,0,0-.2,3.562,18.786,18.786,0,0,0,5.642,3.983" opacity="0.3" fill="url(#linear-gradient-9)"></path></g></g></svg>