<svg xmlns="http://www.w3.org/2000/svg" id="icona_ore" width="30.999" height="33.313" viewBox="0 0 30.999 33.313"><g id="Raggruppa_78" data-name="Raggruppa 78" transform="translate(0)"><g id="Raggruppa_77" data-name="Raggruppa 77"><path id="Tracciato_379" data-name="Tracciato 379" d="M42.658,8.539l5.705.416.416-5.705-1.955-.142L46.66,5.352a16.655,16.655,0,1,0,1.61,20.571L46.644,24.83A14.7,14.7,0,1,1,45.3,6.766L42.8,6.584Z" transform="translate(-17.78)" fill="#fff"></path></g></g><g id="Raggruppa_80" data-name="Raggruppa 80" transform="translate(5.899 12.151)"><g id="Raggruppa_79" data-name="Raggruppa 79"><path id="Tracciato_380" data-name="Tracciato 380" d="M111.019,193.1c0-.63.63-1.039,1.526-1.493a2.533,2.533,0,0,0,1.747-2.4c0-1.515-.973-2.454-2.72-2.454a4.253,4.253,0,0,0-3.107,1.271l1.095,1.172a2.666,2.666,0,0,1,1.769-.873.85.85,0,0,1,.951.907c0,.929-.918,1.327-1.857,1.747-1.592.719-1.979,1.669-1.979,3.715h5.86V193.1Z" transform="translate(-108.443 -186.757)" fill="#fff"></path></g></g><g id="Raggruppa_82" data-name="Raggruppa 82" transform="translate(12.555 12.228)"><g id="Raggruppa_81" data-name="Raggruppa 81"><path id="Tracciato_381" data-name="Tracciato 381" d="M215.6,192.567v-4.621h-1.216l-3.649,4.621v1.581h3.1V195.8H215.6v-1.647h.973v-1.581Zm-1.57,0h-1.537l1.537-1.968Z" transform="translate(-210.737 -187.946)" fill="#fff"></path></g></g><g id="Raggruppa_84" data-name="Raggruppa 84" transform="translate(19.398 12.018)"><g id="Raggruppa_83" data-name="Raggruppa 83"><path id="Tracciato_382" data-name="Tracciato 382" d="M319.7,186.873a2.306,2.306,0,0,0-2.012,1.084v-3.239h-1.769v8.071h1.769V189.46a1.516,1.516,0,0,1,1.227-1.028c.509,0,.84.343.84,1.095v3.262h1.769v-3.715C321.524,188.067,321.259,186.873,319.7,186.873Z" transform="translate(-315.919 -184.717)" fill="#fff"></path></g></g></svg>