<svg xmlns="http://www.w3.org/2000/svg" xmlns:xlink="http://www.w3.org/1999/xlink" width="98" height="98" viewBox="0 0 98 98"><defs><clipPath id="clip-path"><rect id="Rettangolo_2150" data-name="Rettangolo 2150" width="98" height="98" transform="translate(89 252)" fill="#fff" stroke="#707070" stroke-width="1"></rect></clipPath><linearGradient id="linear-gradient" x1="0.336" y1="40.512" x2="1.337" y2="40.512" gradientUnits="objectBoundingBox"><stop offset="0" stop-color="#80bde8"></stop><stop offset="0.29" stop-color="#7eb4e1"></stop><stop offset="0.76" stop-color="#789ad0"></stop><stop offset="1" stop-color="#758bc5"></stop></linearGradient><linearGradient id="linear-gradient-2" x1="0.646" y1="41.94" x2="1.65" y2="41.94" xlink:href="#linear-gradient"></linearGradient><linearGradient id="linear-gradient-3" x1="0.366" y1="39.489" x2="1.366" y2="39.489" xlink:href="#linear-gradient"></linearGradient><linearGradient id="linear-gradient-4" x1="0.253" y1="51.471" x2="1.251" y2="51.471" xlink:href="#linear-gradient"></linearGradient><linearGradient id="linear-gradient-5" x1="0.565" y1="72.584" x2="1.575" y2="72.584" xlink:href="#linear-gradient"></linearGradient><linearGradient id="linear-gradient-6" x1="0.191" y1="26.663" x2="1.192" y2="26.663" gradientUnits="objectBoundingBox"><stop offset="0" stop-color="#80bde8"></stop><stop offset="0.39" stop-color="#7fb4e1"></stop><stop offset="1" stop-color="#7b9cd1"></stop></linearGradient><radialGradient id="radial-gradient" cx="0.499" cy="0.494" r="0.491" gradientTransform="translate(-0.047) scale(1.035 1)" xlink:href="#linear-gradient"></radialGradient><linearGradient id="linear-gradient-7" x1="0.489" y1="100.533" x2="1.485" y2="100.533" gradientUnits="objectBoundingBox"><stop offset="0" stop-color="#80bde8"></stop><stop offset="0.19" stop-color="#7fb4e2"></stop><stop offset="0.24" stop-color="#7fb0df"></stop><stop offset="0.37" stop-color="#80b6e3"></stop><stop offset="0.56" stop-color="#7a9fd4"></stop><stop offset="0.85" stop-color="#758bc5"></stop></linearGradient><radialGradient id="radial-gradient-2" cx="0.585" cy="0.5" r="0.7" gradientTransform="translate(17.297 7.068) scale(0.599 0.943)" gradientUnits="objectBoundingBox"><stop offset="0" stop-color="#80bde8"></stop><stop offset="0.03" stop-color="#7ab4df"></stop><stop offset="0.07" stop-color="#689dc5"></stop><stop offset="0.12" stop-color="#4c779c"></stop><stop offset="0.19" stop-color="#264363"></stop><stop offset="0.21" stop-color="#18304e"></stop><stop offset="0.46" stop-color="#7fb0df"></stop><stop offset="0.66" stop-color="#18304e"></stop></radialGradient><linearGradient id="linear-gradient-8" x1="0.424" y1="68.961" x2="1.423" y2="68.961" xlink:href="#linear-gradient"></linearGradient><linearGradient id="linear-gradient-9" x1="0.328" y1="79.026" x2="1.329" y2="79.026" xlink:href="#linear-gradient"></linearGradient><linearGradient id="linear-gradient-10" x1="0.676" y1="98.717" x2="1.675" y2="98.717" xlink:href="#linear-gradient"></linearGradient><linearGradient id="linear-gradient-11" x1="0.384" y1="93.002" x2="1.387" y2="93.002" xlink:href="#linear-gradient"></linearGradient></defs><g id="leone" transform="translate(-89 -252)" clip-path="url(#clip-path)"><g id="leone1-01" transform="translate(46.382 209.088)"><path id="Tracciato_723" data-name="Tracciato 723" d="M83.593,83.058s-17.16,3.1-21.572,9.895-8.624,12.881.936,17.828,14.686-5.326,14.686-5.326,2.942-9.36-10.987-3.031c0,0,5.193,0,4.457,2.429s-6.931,2.518-5.683-.958c0,0-.357-5.816,9.092-6.686l6.686-10.853Z" fill="#80b8e4"></path><path id="Tracciato_724" data-name="Tracciato 724" d="M76.952,83.9S65.564,110.491,57.563,106.68s-2.229-9.338-2.229-9.338-12.97,11.143,1.092,17.828,25.918-7.822,25.918-7.822l6.128-17.338-4.925-14.6Z" fill="#80b8e4"></path><path id="Tracciato_725" data-name="Tracciato 725" d="M95.493,113.656s16.981-1.226,17.583,9.293-8.691,10.519-11.343,6.908-10.363,1.983-3.677,3.855,8.2-.579,8.2-.579-.312,9.494-10.006,6.151-3.789-13.728-3.789-13.728Z" fill="#80b8e4"></path><path id="Tracciato_726" data-name="Tracciato 726" d="M73.275,101.622a15.89,15.89,0,0,0,8.914,20.792c3.833,1.761,15.4,4.769,12.212,11.633a6.44,6.44,0,0,1-9.494,3.009s7.622,8.558,15.243.178a12.056,12.056,0,0,0,.379-16.4L89.543,109.02l-6.284-3.3Z" fill="url(#linear-gradient)"></path><path id="Tracciato_727" data-name="Tracciato 727" d="M94.646,94.379s-12.97,16.291-6.507,23.467c0,0,5.5,4.457,5.727,6.084s.379,4.97-2.674,4.457-2.853-2.229-2.474-4.011a3.855,3.855,0,0,0-1.515,4.881,6.129,6.129,0,0,0,7.443,2.674,10.942,10.942,0,0,0,7.622-7.622,12.814,12.814,0,0,0-1.716-9.895L97.12,103.271Z" fill="url(#linear-gradient-2)"></path><path id="Tracciato_728" data-name="Tracciato 728" d="M88.718,71.113s-8.2,3.811-6.262,19.433-10.675,8.58-10.675,8.58-5.5-3.811.936-7.042c0,0,5.5-1.114,2.095,4.947,0,0,4.97-1.894,3.833-4.947s-4.457-4.457-8.4-1.917-9.716,7.064-2.7,16.112,18.5,3.432,18.5,3.432,9.538-4.457,6.106-17.36Z" fill="url(#linear-gradient-3)"></path><path id="Tracciato_729" data-name="Tracciato 729" d="M56.182,76.194a2.385,2.385,0,0,0,1.248-3.722,5.148,5.148,0,0,0-8.4-.958A11.343,11.343,0,0,0,46.175,82.1c.579,3.9,4.011,10.853,9.895,12.591S68.3,90.947,70.021,88.7s10.474-8.023,10.474-8.023l6.418-6.53.958-3.231L81.1,64.628S66.856,61.218,63.38,73.3c0,0-2.674,8.2-8.023,8s-3.989-5.482-3.053-6.686S55.535,73.3,56.182,76.194Z" fill="url(#linear-gradient-4)"></path><path id="Tracciato_730" data-name="Tracciato 730" d="M98.346,99.259l8.959-1.515,7.644,2.853,7.243,5.349-5.549,4.747,1.716,4.97v5.727l-5.148-.958-6.284-7.064-5.527.178-3.633-3.811Z" fill="#80b8e4"></path><path id="Tracciato_731" data-name="Tracciato 731" d="M102.335,107.438c0-.245,1.114-3.432,6.686-2.006,0,0,3.61.579,4.457,2.117,0,0-6.284,6.842-1.716,10.652s6.485-1.694,1.515-2.853c0,0-.178-1.716,3.454-1.092l3.432,2.095s4.457,11.143-8.023,10.5c0,0,3.3-9.159-7.622-11.834a5.928,5.928,0,0,0,4.457-6.686,3.053,3.053,0,0,0-2.853-2.474S105.21,104.586,102.335,107.438Z" fill="url(#linear-gradient-5)"></path><path id="Tracciato_732" data-name="Tracciato 732" d="M83.392,68.26S73.5,71.559,69.8,65.408a12.658,12.658,0,0,1-1.359-11.254s2.229-5.326,9.716-3.989S80.7,62.355,77,57.786c0,0,3.9-.178,1.761-3.633,0,0-3.3-1.716-3.9,1.716s2.563,7.555,8.134,2.875C82.991,58.744,81.253,64.851,83.392,68.26Z" fill="#80b8e4"></path><path id="Tracciato_733" data-name="Tracciato 733" d="M85.866,73.052s-5.5-4.457-2.875-14.307c0,0,6.886-2.853,14.887,4.591l8.914-1.716a9.694,9.694,0,0,1,10.1,3.3,7.042,7.042,0,0,0-.557-2.875,82.586,82.586,0,0,1,6.842,6.864,14.441,14.441,0,0,1,.2,5.727A21.372,21.372,0,0,1,137.3,89.3s.557.958-1.114,2.229-1.315,1.493-1.315,3.432a11.321,11.321,0,0,1-1.716,5.727,25.6,25.6,0,0,1-3.7,2.229s-.557.2.2,1.337a7.087,7.087,0,0,1,0,8.379,17.829,17.829,0,0,1-5.282,5.482.713.713,0,0,1-.958,0c-.579-.379-10.675-6.106-10.853-6.864a1.4,1.4,0,0,1-.4-1.917,4.279,4.279,0,0,1,1.515-1.805,8.29,8.29,0,0,1,3.633-1.917,12.9,12.9,0,0,1-8.112-4.836c-3.231-4.457-12.19-1.515-13.527,1.917l-.379-3.432-2.853,2.095a8.914,8.914,0,0,0-1.337-8.58c-3.231-4.769-8.4-17.828-.2-18.7Z" fill="url(#linear-gradient-6)"></path><path id="Tracciato_734" data-name="Tracciato 734" d="M83.192,60.171s0,10.652,4.947,12.569c0,0,8.58.958,7.064-7.443C95.2,65.207,88.518,59.881,83.192,60.171Z" opacity="0.3" fill="url(#radial-gradient)"></path><path id="Tracciato_735" data-name="Tracciato 735" d="M99.772,72.472s1.716,2.474,10.3,0c0,0,3.3-.379,1.917-2.229a13.505,13.505,0,0,0-3.633-3.387,9.382,9.382,0,0,1,7.533,5.928,6.129,6.129,0,0,1-1.538,2.719s6.864,5.148,6.864,7.064c0,0-2.229.357-6.864-5.17,0,0-7.042,4.457-9.338-.758,0,0-.2-.958-2.474-1.315S99.393,73.3,99.772,72.472Z" fill="url(#linear-gradient-7)"></path><ellipse id="Ellisse_1128" data-name="Ellisse 1128" cx="3.833" cy="2.295" rx="3.833" ry="2.295" transform="translate(105.679 74.643) rotate(-8.37)" fill="url(#radial-gradient-2)"></ellipse><path id="Tracciato_736" data-name="Tracciato 736" d="M92.908,97.811h2.5s5.326-8.023,13.706-4.947c0,0-3.031,12.391,9.895,12.391,0,0,6.485-4.19,10.474-3.811a46.331,46.331,0,0,0,2.875-7.622,11.721,11.721,0,0,0-.758-3.254s4.769.2,4.769-1.092-6.307-9.583-8.023-10.853a16.647,16.647,0,0,0-6.463-3.3s-2.229-.78-.78-3.833-3.031-7.042-4.457-7.421L116.33,62.4s5.727,4.212,7.042,6.864v5.5s9.159,1.515,13.728,14.285c0,0,.78.758-.379,1.894l-1.894,1.917s0,6.686-2.229,8.2a11.967,11.967,0,0,1-3.566,2.006s-7.243-.2-9.895,2.674a11.678,11.678,0,0,1-9.939-5.259,10.853,10.853,0,0,0-13.706,1.872V98.97l-2.674,2.095Z" fill="#80b8e4"></path><path id="Tracciato_737" data-name="Tracciato 737" d="M125.222,86.913a28.971,28.971,0,0,0,8.669,4.3A4.323,4.323,0,0,1,132.8,93.6c-1.092,1.337-2.474-.958-2.474-.958a2.942,2.942,0,0,0-2.853-2.095C124.932,90.39,124.932,87.582,125.222,86.913Z" fill="#18304e"></path><path id="Tracciato_738" data-name="Tracciato 738" d="M118.269,57.207s1.092-1.515,2.229-1.337,1.515.379,1.894,2.674.379,3.432,1.337,4.591a16.6,16.6,0,0,1,1.894,3.432s1.359,4.167-2.073,5.326-4.9-7.265-4.9-7.265S119.026,57.942,118.269,57.207Z" fill="#80b8e4"></path><path id="Tracciato_739" data-name="Tracciato 739" d="M118.937,65.876s1.092-13.037-4.457-17.427-10.474-8.58-17.583-2.474,1.761,11.633,1.761,11.633,8.379,3.789,5.482-7.443c0,0-1.092,3.811-3.432,2.853s-.758-5.5,2.229-4.011c0,0,5.727.758,4.457,7.822l8.914,6.864Z" fill="url(#linear-gradient-8)"></path><path id="Tracciato_740" data-name="Tracciato 740" d="M97.677,63.892a57.942,57.942,0,0,1,10.875-2.229,10.1,10.1,0,0,1,8.468,3.521s.869-3.9-4.858-7.332S95.4,55,97.878,46.22c0,0-5.705-2.095-8.78-.379a7.109,7.109,0,0,0-3.833,7.644c.78,2.5,2.5,4.212,6.485,6.864a64.963,64.963,0,0,0,5.928,3.543Z" fill="url(#linear-gradient-9)"></path><path id="Tracciato_741" data-name="Tracciato 741" d="M95.627,101.956A6.062,6.062,0,0,1,99.1,99.727s-1.047,12.123,3.833,11.7,6.374-1.761,4.457-3.7-5.393,0-5.393,0a3.855,3.855,0,0,1,6.351-1.493c1.515,1.092,3.3,3.1-.758,7.376s-9.605,1.114-11.143-1.025S93.6,107.772,95.627,101.956Z" fill="url(#linear-gradient-10)"></path><path id="Tracciato_742" data-name="Tracciato 742" d="M72.227,75.993a3.811,3.811,0,0,0-5.349-.49,4.211,4.211,0,0,0-.446.446C63.135,79,63,86.245,66.99,88.161s9.895,2.474,12.97-2.229S83.771,74.79,91.348,74.077c0,0-9.516-5.148-13.371,3.61S69.8,82.835,68.1,79.782,70.979,75.77,72.227,75.993Z" fill="url(#linear-gradient-11)"></path></g></g></svg>