<svg xmlns="http://www.w3.org/2000/svg" width="75.089" height="33.043" viewBox="0 0 75.089 33.043">
  <g id="Only_Oroscopo_Logo-02" data-name="Only Oroscopo Logo-02" transform="translate(-166.205 -297.153)">
    <path id="Tracciato_7" data-name="Tracciato 7" d="M226.406,478.237a3.174,3.174,0,0,1,.3-.838,2.716,2.716,0,0,1,.511-.684,2.377,2.377,0,0,1,.689-.461,2.057,2.057,0,0,1,.845-.17,1.746,1.746,0,0,1,.8.161,1.243,1.243,0,0,1,.506.459,1.6,1.6,0,0,1,.215.686,2.78,2.78,0,0,1-.059.842,3.3,3.3,0,0,1-.3.83,2.569,2.569,0,0,1-.5.681,2.306,2.306,0,0,1-.7.463,2.172,2.172,0,0,1-.864.161,1.682,1.682,0,0,1-.79-.161,1.256,1.256,0,0,1-.5-.463,1.606,1.606,0,0,1-.215-.681A2.609,2.609,0,0,1,226.406,478.237Zm1.519,1.815a1.636,1.636,0,0,0,.715-.151,1.84,1.84,0,0,0,.556-.4,2.212,2.212,0,0,0,.4-.578,2.953,2.953,0,0,0,.226-.686,2.513,2.513,0,0,0,.056-.761,1.34,1.34,0,0,0-.181-.577.963.963,0,0,0-.4-.363,1.359,1.359,0,0,0-.605-.124,1.606,1.606,0,0,0-.71.153,1.9,1.9,0,0,0-.554.4,2.365,2.365,0,0,0-.4.581,2.915,2.915,0,0,0-.236.686,2.535,2.535,0,0,0-.059.692,1.4,1.4,0,0,0,.151.578.964.964,0,0,0,.385.4A1.3,1.3,0,0,0,227.925,480.051Z" transform="translate(-50.477 -150.192)" fill="#172789"/>
    <path id="Tracciato_8" data-name="Tracciato 8" d="M274.442,479.021l-.4,1.855h-.385l.867-4.076h1.606a1.526,1.526,0,0,1,.978.252.78.78,0,0,1,.183.819,1.263,1.263,0,0,1-.286.612,1.608,1.608,0,0,1-.593.385.482.482,0,0,1,.247.181.642.642,0,0,1,.1.273,1.289,1.289,0,0,1,0,.321c-.014.112-.032.223-.051.321-.03.161-.051.283-.064.385a1.823,1.823,0,0,0-.021.249.531.531,0,0,0,.018.151.176.176,0,0,0,.051.082v.034h-.426a.73.73,0,0,1-.027-.288,2.679,2.679,0,0,1,.04-.376c.019-.132.039-.262.061-.389a1.839,1.839,0,0,0,.034-.3.522.522,0,0,0-.056-.263.375.375,0,0,0-.149-.151.641.641,0,0,0-.225-.067,2.092,2.092,0,0,0-.271-.018Zm1.27-.329a1.789,1.789,0,0,0,.411-.045,1.1,1.1,0,0,0,.352-.144.935.935,0,0,0,.422-.62.7.7,0,0,0,0-.374.466.466,0,0,0-.17-.233.75.75,0,0,0-.292-.119,1.908,1.908,0,0,0-.365-.034h-1.232l-.321,1.569Z" transform="translate(-90.197 -150.795)" fill="#172789"/>
    <path id="Tracciato_9" data-name="Tracciato 9" d="M319.767,478.237a3.064,3.064,0,0,1,.3-.838,2.717,2.717,0,0,1,.511-.684,2.37,2.37,0,0,1,.687-.461,2.068,2.068,0,0,1,.845-.17,1.752,1.752,0,0,1,.8.161,1.238,1.238,0,0,1,.5.459,1.575,1.575,0,0,1,.215.686,2.783,2.783,0,0,1-.059.842,3.357,3.357,0,0,1-.3.83,2.611,2.611,0,0,1-.5.681,2.28,2.28,0,0,1-.694.463,2.177,2.177,0,0,1-.864.161,1.682,1.682,0,0,1-.792-.161,1.257,1.257,0,0,1-.5-.463,1.628,1.628,0,0,1-.215-.681A2.663,2.663,0,0,1,319.767,478.237Zm1.519,1.815A1.631,1.631,0,0,0,322,479.9a1.84,1.84,0,0,0,.556-.4,2.209,2.209,0,0,0,.4-.578,2.882,2.882,0,0,0,.233-.686,2.466,2.466,0,0,0,.056-.761,1.32,1.32,0,0,0-.181-.577.954.954,0,0,0-.4-.363,1.365,1.365,0,0,0-.607-.124,1.605,1.605,0,0,0-.708.153,1.912,1.912,0,0,0-.556.4,2.367,2.367,0,0,0-.4.581,2.834,2.834,0,0,0-.234.686,2.473,2.473,0,0,0-.059.692,1.424,1.424,0,0,0,.149.578.964.964,0,0,0,.386.4A1.306,1.306,0,0,0,321.286,480.052Z" transform="translate(-128.842 -150.192)" fill="#172789"/>
    <path id="Tracciato_10" data-name="Tracciato 10" d="M367.526,479.058a1.1,1.1,0,0,0,.023.461.666.666,0,0,0,.186.31.78.78,0,0,0,.321.172,1.533,1.533,0,0,0,.426.055,1.608,1.608,0,0,0,.482-.068,1.225,1.225,0,0,0,.363-.185,1,1,0,0,0,.244-.27,1.009,1.009,0,0,0,.127-.321.57.57,0,0,0-.026-.385.608.608,0,0,0-.233-.241,1.43,1.43,0,0,0-.365-.151c-.14-.037-.284-.074-.432-.109a4.166,4.166,0,0,1-.43-.128,1.1,1.1,0,0,1-.357-.2.7.7,0,0,1-.214-.321.964.964,0,0,1,0-.5,1.177,1.177,0,0,1,.175-.408,1.445,1.445,0,0,1,.334-.352,1.7,1.7,0,0,1,.482-.244,2.046,2.046,0,0,1,.622-.09,1.531,1.531,0,0,1,.58.1.925.925,0,0,1,.373.263.841.841,0,0,1,.175.389,1.148,1.148,0,0,1-.018.471H370a.833.833,0,0,0,0-.4.608.608,0,0,0-.161-.278.717.717,0,0,0-.286-.161,1.305,1.305,0,0,0-.366-.05,1.446,1.446,0,0,0-.512.082,1.156,1.156,0,0,0-.366.212.964.964,0,0,0-.227.289.761.761,0,0,0-.085.321.442.442,0,0,0,.088.321.737.737,0,0,0,.263.194,1.851,1.851,0,0,0,.374.125c.14.032.281.066.426.1a3.639,3.639,0,0,1,.413.127,1.017,1.017,0,0,1,.334.2.692.692,0,0,1,.2.321,1,1,0,0,1,0,.49,1.356,1.356,0,0,1-.58.878,2.025,2.025,0,0,1-1.168.312,1.863,1.863,0,0,1-.572-.082.988.988,0,0,1-.418-.249.861.861,0,0,1-.218-.414,1.4,1.4,0,0,1,.011-.58Z" transform="translate(-168.642 -150.196)" fill="#172789"/>
    <path id="Tracciato_11" data-name="Tracciato 11" d="M414.165,477.412a.906.906,0,0,0-.286-.744,1.251,1.251,0,0,0-.8-.22,1.494,1.494,0,0,0-.668.146,1.721,1.721,0,0,0-.525.4,2.312,2.312,0,0,0-.376.575,3.014,3.014,0,0,0-.228.689,3.212,3.212,0,0,0-.074.668,1.481,1.481,0,0,0,.111.588.927.927,0,0,0,.355.416,1.2,1.2,0,0,0,.663.161,1.432,1.432,0,0,0,.493-.085,1.6,1.6,0,0,0,.429-.236,1.813,1.813,0,0,0,.348-.353,2.362,2.362,0,0,0,.26-.448h.4a3.323,3.323,0,0,1-.321.559,2.225,2.225,0,0,1-.44.461,1.978,1.978,0,0,1-.58.321,2.179,2.179,0,0,1-.737.116,1.514,1.514,0,0,1-.769-.172,1.123,1.123,0,0,1-.447-.467,1.608,1.608,0,0,1-.161-.684,3.258,3.258,0,0,1,.082-.824,3.549,3.549,0,0,1,.355-.993,2.37,2.37,0,0,1,.538-.667,1.969,1.969,0,0,1,.681-.374,2.6,2.6,0,0,1,.779-.116,1.4,1.4,0,0,1,.986.329,1.129,1.129,0,0,1,.321.964Z" transform="translate(-205.322 -150.228)" fill="#172789"/>
    <path id="Tracciato_12" data-name="Tracciato 12" d="M457.827,478.22a3.068,3.068,0,0,1,.3-.838,2.72,2.72,0,0,1,.511-.687,2.376,2.376,0,0,1,.689-.461,2.057,2.057,0,0,1,.845-.17,1.751,1.751,0,0,1,.8.161,1.228,1.228,0,0,1,.5.459,1.554,1.554,0,0,1,.215.686,2.734,2.734,0,0,1-.059.841,3.3,3.3,0,0,1-.3.83,2.6,2.6,0,0,1-.5.681,2.307,2.307,0,0,1-.7.463,2.171,2.171,0,0,1-.864.161,1.676,1.676,0,0,1-.79-.161,1.256,1.256,0,0,1-.5-.463,1.606,1.606,0,0,1-.215-.681A2.61,2.61,0,0,1,457.827,478.22Zm1.519,1.815a1.636,1.636,0,0,0,.715-.151,1.859,1.859,0,0,0,.556-.4,2.247,2.247,0,0,0,.4-.578,2.877,2.877,0,0,0,.231-.686,2.471,2.471,0,0,0,.058-.761,1.341,1.341,0,0,0-.182-.577.963.963,0,0,0-.4-.363,1.365,1.365,0,0,0-.607-.124,1.605,1.605,0,0,0-.708.153,1.911,1.911,0,0,0-.556.4,2.366,2.366,0,0,0-.4.581,2.906,2.906,0,0,0-.234.686,2.536,2.536,0,0,0-.059.692,1.423,1.423,0,0,0,.149.578.975.975,0,0,0,.385.4A1.31,1.31,0,0,0,459.347,480.035Z" transform="translate(-244.732 -150.175)" fill="#172789"/>
    <path id="Tracciato_13" data-name="Tracciato 13" d="M505,480.837l.867-4.083h1.492a1.81,1.81,0,0,1,.634.092.744.744,0,0,1,.353.249.694.694,0,0,1,.133.365,1.449,1.449,0,0,1-.034.434,1.285,1.285,0,0,1-.257.562,1.391,1.391,0,0,1-.434.348,1.9,1.9,0,0,1-.54.178,3.319,3.319,0,0,1-.572.051h-.874l-.385,1.8Zm1.723-2.133a3.274,3.274,0,0,0,.493-.034,1.207,1.207,0,0,0,.392-.127.869.869,0,0,0,.286-.255,1.15,1.15,0,0,0,.173-.422.584.584,0,0,0-.125-.585,1.114,1.114,0,0,0-.76-.2h-1l-.347,1.62Z" transform="translate(-284.383 -150.755)" fill="#172789"/>
    <path id="Tracciato_14" data-name="Tracciato 14" d="M549.207,478.237a3.063,3.063,0,0,1,.3-.838,2.72,2.72,0,0,1,.511-.684,2.37,2.37,0,0,1,.687-.461,2.068,2.068,0,0,1,.845-.17,1.752,1.752,0,0,1,.8.161,1.237,1.237,0,0,1,.5.459,1.576,1.576,0,0,1,.215.686,2.777,2.777,0,0,1-.059.841,3.359,3.359,0,0,1-.3.83,2.644,2.644,0,0,1-.5.681,2.329,2.329,0,0,1-.7.463,2.175,2.175,0,0,1-.864.161,1.682,1.682,0,0,1-.792-.161,1.256,1.256,0,0,1-.5-.463,1.651,1.651,0,0,1-.215-.681A2.661,2.661,0,0,1,549.207,478.237Zm1.516,1.815a1.632,1.632,0,0,0,.715-.151,1.839,1.839,0,0,0,.556-.4,2.211,2.211,0,0,0,.4-.578,2.875,2.875,0,0,0,.233-.686,2.458,2.458,0,0,0,.056-.761,1.32,1.32,0,0,0-.181-.577.954.954,0,0,0-.4-.363,1.365,1.365,0,0,0-.607-.124,1.605,1.605,0,0,0-.708.153,1.908,1.908,0,0,0-.556.4,2.368,2.368,0,0,0-.4.581,2.836,2.836,0,0,0-.226.686,2.476,2.476,0,0,0-.061.692,1.444,1.444,0,0,0,.151.578.964.964,0,0,0,.385.4A1.3,1.3,0,0,0,550.723,480.052Z" transform="translate(-321.434 -150.192)" fill="#172789"/>
    <path id="Tracciato_15" data-name="Tracciato 15" d="M197.525,297.154a5.742,5.742,0,0,0-5.48,4.027l-2-1.531a12.026,12.026,0,0,0-7.2-2.5,12.255,12.255,0,0,0-11.915,9.013c-.3.132-.594.268-.885.414a12.132,12.132,0,0,0-1.547.927,8.3,8.3,0,0,0-.763.6c-.127.114-.254.238-.377.369-.061.066-.119.128-.194.218-.032.037-.075.093-.1.125l-.079.1a4.555,4.555,0,0,0-.336.522,3.339,3.339,0,0,0-.161.321l-.034.084-.018.047c-.014.039-.031.074-.058.153a3.236,3.236,0,0,0,.482,2.987,3.383,3.383,0,0,0,.239.286c.085.09.132.138.214.215a4.565,4.565,0,0,0,.466.384,5.972,5.972,0,0,0,.936.54,7.748,7.748,0,0,0,.912.353,13.229,13.229,0,0,0,1.72.416c.254.048.506.079.76.106l.077.01.838.09c.138.013.279.034.418.038l.413.014.829.027c.821.021,1.637,0,2.444-.042.267-.014.532-.032.795-.051a45.033,45.033,0,0,0,12.344-2.788,8.294,8.294,0,0,1-7.6,4.969h0c-2.891-.018-3.826-1.172-4.176.238-.185.742.829,3.694,7.656,3.639h41.89a7.268,7.268,0,0,0,6.906-5l6.352-19.329Zm-14.853,3.875a8.29,8.29,0,0,1,8.277,7.84c-.7.225-1.415.428-2.134.617a53.069,53.069,0,0,1-5.383,1.108c-1.818.3-3.631.5-5.461.621-1.124.079-2.248.111-3.355.084a8.294,8.294,0,0,1,8.049-10.271Zm7.089,10.589a47.167,47.167,0,0,1-5.8,1.529,46.4,46.4,0,0,1-5.942.774c-.731.042-1.462.067-2.2.069-.27,0-.54,0-.8-.008-.5-.01-1.005-.035-1.508-.074s-1.007-.1-1.508-.185c-.239-.04-.482-.084-.715-.135-.263-.056-.527-.119-.789-.194a6.106,6.106,0,0,1-1.471-.6,2.953,2.953,0,0,1-.675-.527,1.716,1.716,0,0,1-.456-.821,1.606,1.606,0,0,1,.079-.935,2.607,2.607,0,0,1,.435-.729,5.744,5.744,0,0,1,1.182-1.015,10.152,10.152,0,0,1,.964-.581c.111-.059.223-.116.336-.17a19.779,19.779,0,0,1,2.766-1.1,26.942,26.942,0,0,0-2.584,1.421q-.279.181-.554.371c-.215.151-.426.307-.626.472a5.137,5.137,0,0,0-.972,1,1.285,1.285,0,0,0-.289,1.074,1.555,1.555,0,0,0,.8.773,6.437,6.437,0,0,0,1.486.482c.4.082.8.141,1.206.188a26.926,26.926,0,0,0,3.018.117c.923-.011,1.85-.064,2.772-.148a55.309,55.309,0,0,0,5.782-.824,49.417,49.417,0,0,0,5.66-1.417q.79-.247,1.571-.53a24.652,24.652,0,0,0,2.822-1.2c.312-.161.622-.321.922-.5a8.09,8.09,0,0,0,1.124-.8,2.731,2.731,0,0,0,.761-.973.853.853,0,0,0,.043-.482,1.01,1.01,0,0,0-.265-.456,3.31,3.31,0,0,0-1.124-.689c-.071-.029-.143-.055-.215-.082a13.207,13.207,0,0,0-2.587-.612c-.964-.143-1.951-.223-2.939-.281a22.919,22.919,0,0,1,2.973-.085,12.561,12.561,0,0,1,2.741.379l.247.067a3.885,3.885,0,0,1,1.434.752,1.808,1.808,0,0,1,.52.777,1.707,1.707,0,0,1,0,.975,3.416,3.416,0,0,1-.936,1.412,9,9,0,0,1-1.225.978,16.454,16.454,0,0,1-1.947,1.124q-.361.175-.726.34c-.605.271-1.219.519-1.837.752C190.407,311.389,190.086,311.506,189.761,311.618Zm4.327-3.991.787-2.51a3.426,3.426,0,0,1,1.009.642.747.747,0,0,1,.13.175c.029.048.042.112.029.1-.008.108-.014.1-.117.263a3.278,3.278,0,0,1-.851.763c-.175.117-.358.228-.548.336-.1.053-.19.1-.284.153Zm9.246,9.981A3.533,3.533,0,0,1,199.923,315l-1.333-4.94-2.364,7.548h-5.263l1.918-6.124c.143-.072.287-.141.43-.215a17.135,17.135,0,0,0,2.767-1.767,8.156,8.156,0,0,0,1.233-1.206,4.2,4.2,0,0,0,.511-.793,3.19,3.19,0,0,0,.185-.453,2.39,2.39,0,0,0,.114-.524,2.248,2.248,0,0,0-.731-1.919,3.8,3.8,0,0,0-1.587-.827c-.161-.042-.321-.077-.482-.109l.056-.18a3.506,3.506,0,0,1,3.347-2.459h0a3.506,3.506,0,0,1,3.386,2.594l1.4,5.19,2.558-7.785h5.263l-4.657,14.149a3.533,3.533,0,0,1-3.341,2.43Zm16.412,0h-7.441a3.284,3.284,0,0,1-3.121-4.311l4.03-12.269h5.263l-4,12.159H221.2Zm.609-16.579h5.263l2.078,9.352h-5.263Zm11.941,11.58a7.271,7.271,0,0,1-6.906,5l5.446-16.579H236.1Z" transform="translate(0 0)" fill="#172789"/>
    <path id="Tracciato_16" data-name="Tracciato 16" d="M276.233,335.642c.63.321,1.2.41,1.392.034a1.191,1.191,0,0,0-.691-1.4c-.63-.324-1.333-.456-1.527-.08S275.6,335.318,276.233,335.642Z" transform="translate(-91.622 -30.902)" fill="#172789"/>
    <path id="Tracciato_17" data-name="Tracciato 17" d="M292.836,350.025a.847.847,0,0,0,.026-1.189c-.315-.385-.93-.642-1.259-.374s-.119.774.2,1.164S292.507,350.292,292.836,350.025Z" transform="translate(-105.119 -42.976)" fill="#172789"/>
  </g>
</svg>
