<svg xmlns="http://www.w3.org/2000/svg" id="pacco_regalo" data-name="pacco regalo" width="33.999" height="35.741" viewBox="0 0 33.999 35.741"><g id="Raggruppa_85" data-name="Raggruppa 85" transform="translate(0 0)"><path id="Tracciato_383" data-name="Tracciato 383" d="M46.478,6.491h-8.24A4.151,4.151,0,0,0,32.589.643c-.489.31-1.306,1.035-2.743,3.737-.128.242-.251.48-.367.708-.116-.228-.239-.466-.367-.708C27.675,1.677,26.858.953,26.368.643a4.154,4.154,0,0,0-5.653,5.848H12.479V16.628H13.7V35.741h31.55V16.628h1.224V6.491ZM33.708,2.412a2.043,2.043,0,0,1,1.1-.32,2.1,2.1,0,0,1,.454.05,2.057,2.057,0,0,1,.65,3.746c-.577.366-2.691.57-4.8.6C32.043,4.6,33.132,2.778,33.708,2.412Zm-11.3.637A2.049,2.049,0,0,1,23.7,2.143a2.1,2.1,0,0,1,.454-.05,2.043,2.043,0,0,1,1.1.32c.577.365,1.665,2.189,2.593,4.078-1.052-.016-2.107-.075-2.97-.175a5.331,5.331,0,0,1-1.825-.426,2.058,2.058,0,0,1-.638-2.839Zm2.832,30.6H15.8V16.628h9.443Zm0-19.113H14.573V8.585H25.241v5.949Zm6.381,19.113H27.335V8.585h4.286Zm11.538,0H33.716V16.628h9.443Zm1.224-19.113H33.716V8.585H44.384Z" transform="translate(-12.479 0)" fill="#fff"></path></g></svg>