<svg xmlns="http://www.w3.org/2000/svg" xmlns:xlink="http://www.w3.org/1999/xlink" width="98" height="98" viewBox="0 0 98 98"><defs><clipPath id="clip-path"><rect id="Rettangolo_2150" data-name="Rettangolo 2150" width="98" height="98" transform="translate(227 252)" fill="#fff" stroke="#707070" stroke-width="1"></rect></clipPath><linearGradient id="linear-gradient" x1="0.241" y1="92.517" x2="1.244" y2="92.517" gradientUnits="objectBoundingBox"><stop offset="0.01" stop-color="#758bc5"></stop><stop offset="0.18" stop-color="#7895cc"></stop><stop offset="0.69" stop-color="#7eafde"></stop><stop offset="1" stop-color="#80b8e4"></stop></linearGradient><linearGradient id="linear-gradient-2" x1="0.88" y1="58.057" x2="0.457" y2="59.538" gradientUnits="objectBoundingBox"><stop offset="0" stop-color="#80b8e4"></stop><stop offset="0.31" stop-color="#7eafde"></stop><stop offset="0.82" stop-color="#7895cc"></stop><stop offset="0.99" stop-color="#758bc5"></stop></linearGradient><linearGradient id="linear-gradient-3" x1="0.403" y1="77.28" x2="1.402" y2="77.28" gradientUnits="objectBoundingBox"><stop offset="0" stop-color="#80bde8"></stop><stop offset="0.28" stop-color="#7eb4e1"></stop><stop offset="0.76" stop-color="#789ad0"></stop><stop offset="0.99" stop-color="#758bc5"></stop></linearGradient><radialGradient id="radial-gradient" cx="0.5" cy="0.5" r="0.5" gradientUnits="objectBoundingBox"><stop offset="0" stop-color="#80bde8"></stop><stop offset="0.03" stop-color="#7ab4df"></stop><stop offset="0.07" stop-color="#689dc5"></stop><stop offset="0.12" stop-color="#4c779c"></stop><stop offset="0.19" stop-color="#264363"></stop><stop offset="0.21" stop-color="#18304e"></stop><stop offset="0.46" stop-color="#7fb0df"></stop><stop offset="0.66" stop-color="#18304e"></stop></radialGradient><linearGradient id="linear-gradient-4" x1="2.196" y1="361.391" x2="1.907" y2="362.086" gradientUnits="objectBoundingBox"><stop offset="0" stop-color="#80b8e4"></stop><stop offset="0.83" stop-color="#7eafde"></stop><stop offset="1" stop-color="#7dacdc"></stop></linearGradient><linearGradient id="linear-gradient-5" x1="2.199" y1="362.146" x2="1.911" y2="362.847" xlink:href="#linear-gradient-4"></linearGradient><linearGradient id="linear-gradient-6" x1="2.199" y1="359.868" x2="1.911" y2="360.565" xlink:href="#linear-gradient-4"></linearGradient><linearGradient id="linear-gradient-7" x1="2.199" y1="361.386" x2="1.911" y2="362.086" xlink:href="#linear-gradient-4"></linearGradient><linearGradient id="linear-gradient-8" x1="2.199" y1="360.626" x2="1.911" y2="361.324" xlink:href="#linear-gradient-4"></linearGradient><linearGradient id="linear-gradient-9" x1="2.203" y1="360.616" x2="1.911" y2="361.314" xlink:href="#linear-gradient-4"></linearGradient><linearGradient id="linear-gradient-10" x1="2.203" y1="360.621" x2="1.915" y2="361.324" xlink:href="#linear-gradient-4"></linearGradient><linearGradient id="linear-gradient-12" x1="2.203" y1="360.621" x2="1.915" y2="361.319" xlink:href="#linear-gradient-4"></linearGradient><linearGradient id="linear-gradient-13" x1="120.807" y1="445.705" x2="120.537" y2="446.613" xlink:href="#linear-gradient-4"></linearGradient><linearGradient id="linear-gradient-14" x1="118.718" y1="438.647" x2="118.452" y2="439.54" xlink:href="#linear-gradient-4"></linearGradient><linearGradient id="linear-gradient-15" x1="2.199" y1="361.381" x2="1.911" y2="362.081" xlink:href="#linear-gradient-4"></linearGradient><linearGradient id="linear-gradient-16" x1="141.03" y1="432.465" x2="140.763" y2="433.261" xlink:href="#linear-gradient-4"></linearGradient><linearGradient id="linear-gradient-17" x1="0.658" y1="43.082" x2="1.75" y2="43.966" gradientUnits="objectBoundingBox"><stop offset="0" stop-color="#80bde8"></stop><stop offset="0.29" stop-color="#7eb4e1"></stop><stop offset="0.76" stop-color="#789ad0"></stop><stop offset="1" stop-color="#758bc5"></stop></linearGradient><linearGradient id="linear-gradient-18" x1="30.885" y1="340.202" x2="31.9" y2="340.202" xlink:href="#linear-gradient"></linearGradient><linearGradient id="linear-gradient-19" x1="24.091" y1="249.748" x2="23.675" y2="251.305" xlink:href="#linear-gradient-2"></linearGradient><linearGradient id="linear-gradient-20" x1="57.747" y1="291.778" x2="58.803" y2="291.778" xlink:href="#linear-gradient-3"></linearGradient><radialGradient id="radial-gradient-2" cx="-0.66" cy="-0.69" r="0.5" gradientTransform="translate(329.149 2079.617) rotate(-174.23)" xlink:href="#radial-gradient"></radialGradient><linearGradient id="linear-gradient-21" x1="230.964" y1="1373.556" x2="230.662" y2="1374.22" xlink:href="#linear-gradient-4"></linearGradient><linearGradient id="linear-gradient-22" x1="229.884" y1="1374.187" x2="229.583" y2="1374.851" xlink:href="#linear-gradient-4"></linearGradient><linearGradient id="linear-gradient-23" x1="234.175" y1="1390.353" x2="233.869" y2="1391.019" xlink:href="#linear-gradient-4"></linearGradient><linearGradient id="linear-gradient-24" x1="231.844" y1="1372.406" x2="231.542" y2="1373.064" xlink:href="#linear-gradient-4"></linearGradient><linearGradient id="linear-gradient-25" x1="230.9" y1="1376.499" x2="230.6" y2="1377.163" xlink:href="#linear-gradient-4"></linearGradient><linearGradient id="linear-gradient-26" x1="229.115" y1="1374.766" x2="228.814" y2="1375.425" xlink:href="#linear-gradient-4"></linearGradient><linearGradient id="linear-gradient-27" x1="228.719" y1="1375.962" x2="228.419" y2="1376.621" xlink:href="#linear-gradient-4"></linearGradient><linearGradient id="linear-gradient-28" x1="231.249" y1="1371.05" x2="230.946" y2="1371.706" xlink:href="#linear-gradient-4"></linearGradient><linearGradient id="linear-gradient-29" x1="228.903" y1="1371.784" x2="228.601" y2="1372.44" xlink:href="#linear-gradient-4"></linearGradient><linearGradient id="linear-gradient-30" x1="82.213" y1="1748.124" x2="81.943" y2="1748.954" xlink:href="#linear-gradient-4"></linearGradient><linearGradient id="linear-gradient-31" x1="83.853" y1="1744.938" x2="83.583" y2="1745.76" xlink:href="#linear-gradient-4"></linearGradient><linearGradient id="linear-gradient-32" x1="232.86" y1="1372.803" x2="232.562" y2="1373.461" xlink:href="#linear-gradient-4"></linearGradient><linearGradient id="linear-gradient-33" x1="79.452" y1="1719.17" x2="79.18" y2="1719.885" xlink:href="#linear-gradient-4"></linearGradient><linearGradient id="linear-gradient-34" x1="76.649" y1="170.671" x2="77.713" y2="171.535" xlink:href="#linear-gradient-17"></linearGradient></defs><g id="pesci" transform="translate(-227 -252)" clip-path="url(#clip-path)"><g id="pesci1-01" transform="translate(203.553 228.951)"><path id="Tracciato_743" data-name="Tracciato 743" d="M91.368,84.788s-.435,3.029-4.474.975-6.266-4.526-10.444-3.481a6.963,6.963,0,0,1-6.475-1.306A4.856,4.856,0,0,0,74,83.552a9.8,9.8,0,0,0-7.363.992c-3.307,2.158-5.466,2.437-6.475,2A3.481,3.481,0,0,1,58.574,82.8s-1.6,2.733.122,4.038,5.483.574,5.483.574,8.233-1.88,9.086,1.741,10.1,6.353,12.185,5.222,6.2-.992,6.2-3.046S91.368,84.788,91.368,84.788Z" fill="url(#linear-gradient)"></path><path id="Tracciato_744" data-name="Tracciato 744" d="M95.041,86.442s4.038,3.76-.279,10.531-16.745,3.481-16.745,3.481l-5.344-2.315c-.975-.418-4.038-2.733-6.058-.139s-3.725-1.288-3.725-1.288.975,1.288,2.942-.157,2.437-.574,2.437-.574-6.963-1.88-10.1.87-3.481,5.326-3.029,5.866a2.594,2.594,0,0,0,2.75,1.149c1.88-.139,2.594,1.863,2.594,3.325s-.714-3.046-3.917-1.584-4.038-3.638-2.489-6.388a6.823,6.823,0,0,1,3.168-2.942s-2.158.435-1.584-1.741c0,0,1.166,2.019,1.88.87s.574-3.76,2.454-4.891c0,0-3.76,4.178-5.048,1.584a5.762,5.762,0,0,0,4.456-2.176,13.925,13.925,0,0,1,5.779-3.481s6.058-1.863,9.5,1.584S83.2,93.074,85.8,92.5a10.444,10.444,0,0,0,4.717-2.628Z" fill="url(#linear-gradient-2)"></path><path id="Tracciato_745" data-name="Tracciato 745" d="M101.238,68.7a6.475,6.475,0,0,1,5.222-1.584,8.251,8.251,0,0,1,7.206,4.769c1.584,2.594,1.149,5.622,4.021,6.632s3.76-.574,3.76-.574a5.344,5.344,0,0,1-4.822,2.3s2.315-.139,3.029,1.306-1.445,1.88-2.872,1.88c0,0,2.594-1.306,1.288-1.88s-4.038-.435-5.762-2.019a40.035,40.035,0,0,1-4.178-5.048,9.382,9.382,0,0,0-5.866-3.742Z" fill="url(#linear-gradient-3)"></path><ellipse id="Ellisse_1129" data-name="Ellisse 1129" cx="2.385" cy="2.315" rx="2.385" ry="2.315" transform="translate(95.11 62.577)" fill="#80b8e4"></ellipse><path id="Tracciato_746" data-name="Tracciato 746" d="M87.7,90.776s4.474.87,10.653-4.474,4.474-14.674,3.481-17.024a19.67,19.67,0,0,0-6.771-7.816s1.445-1.445-1.445-1.741A3.777,3.777,0,0,0,89.7,61.9a10.444,10.444,0,0,0-.279,2.437,47.711,47.711,0,0,1-.783,5.413,8.7,8.7,0,0,1,1.218,1.95s-.54-4.265-6.963-3.725h-.226c-.574,0-3.673,0-4.8,4.491-.313,1.2-.435,3.742-2.3,4.456a4.944,4.944,0,0,1-4.891,0c-1.584-.975.574-2.594,2.158-1.584a2.611,2.611,0,0,0-3.2-1.149c-2.158.714-.418,3.029-.418,3.029a39.566,39.566,0,0,0-2.594-3.029,1.288,1.288,0,0,0-1.584,0c-.731.435-1.462,1.445.139,3.6,0,0-.3-2.454.975-2.158s1.532,1.358,1.88,2C69,79.6,70.758,80.959,76.1,81.115s8.947-6.475,8.947-6.475a16.275,16.275,0,0,1,2.367-2.524,7.624,7.624,0,0,0-2.8,7.955,7.885,7.885,0,0,0,4.474,6.058C92.117,87.312,89.854,89.767,87.7,90.776Z" fill="#80b8e4"></path><circle id="Ellisse_1130" data-name="Ellisse 1130" cx="2.454" cy="2.454" r="2.454" transform="translate(87.678 64.388)" fill="url(#radial-gradient)"></circle><g id="Luspe"><path id="Tracciato_747" data-name="Tracciato 747" d="M91.264,70.375s.174,6.2,4.891,2.054" opacity="0.35" fill="url(#linear-gradient-4)"></path><path id="Tracciato_748" data-name="Tracciato 748" d="M88.774,71.681s.174,6.179,4.891,2.054" opacity="0.35" fill="url(#linear-gradient-5)"></path><path id="Tracciato_749" data-name="Tracciato 749" d="M90.933,73.683s.174,6.214,4.891,2.071" opacity="0.35" fill="url(#linear-gradient-6)"></path><path id="Tracciato_750" data-name="Tracciato 750" d="M93.526,72.952s.174,6.2,4.891,2.054" opacity="0.35" fill="url(#linear-gradient-7)"></path><path id="Tracciato_751" data-name="Tracciato 751" d="M93.387,75.7s.191,6.2,4.891,2.071" opacity="0.35" fill="url(#linear-gradient-8)"></path><path id="Tracciato_752" data-name="Tracciato 752" d="M87.19,72.865s.174,6.2,4.891,2.071" opacity="0.35" fill="url(#linear-gradient-9)"></path><path id="Tracciato_753" data-name="Tracciato 753" d="M88.183,74.988s.191,6.2,4.891,2.071" opacity="0.35" fill="url(#linear-gradient-10)"></path><path id="Tracciato_754" data-name="Tracciato 754" d="M90.219,76.851s.174,6.214,4.891,2.071" opacity="0.35" fill="url(#linear-gradient-6)"></path><path id="Tracciato_755" data-name="Tracciato 755" d="M86.894,77.756s.174,6.2,4.891,2.071" opacity="0.35" fill="url(#linear-gradient-12)"></path><path id="Tracciato_756" data-name="Tracciato 756" d="M88.914,80.35s2.176,5.8,5.222.348" opacity="0.35" fill="url(#linear-gradient-13)"></path><path id="Tracciato_757" data-name="Tracciato 757" d="M93.526,81.342s2.211,5.814,5.309.47" opacity="0.35" fill="url(#linear-gradient-14)"></path><path id="Tracciato_758" data-name="Tracciato 758" d="M95.981,74.275s.174,6.2,4.891,2.054" opacity="0.35" fill="url(#linear-gradient-15)"></path><path id="Tracciato_759" data-name="Tracciato 759" d="M95.528,71.681s2.315,5.762,4.63.487" opacity="0.35" fill="url(#linear-gradient-16)"></path></g><path id="Tracciato_760" data-name="Tracciato 760" d="M94,85.084a11.906,11.906,0,0,1,2.594-5.64c2.019-2.019,3.742-6.475,1.445-9.783,0,0,7.206,1.462,9.086,8.216a16.815,16.815,0,0,1-1.445,12.185s-3.307,6.963,1.584,8.7a7.328,7.328,0,0,1-6.771-2.315c-2.594-3.168-1.967-9.783-1.967-9.783S98.8,81.968,94,85.084Z" fill="url(#linear-gradient-17)"></path><path id="Tracciato_761" data-name="Tracciato 761" d="M54.083,55.789s.748-2.924,4.561-.522,5.762,5.222,10.026,4.6a6.963,6.963,0,0,1,6.319,1.95,4.891,4.891,0,0,0-3.76-2.994,9.852,9.852,0,0,0,7.415-.244c3.481-1.741,5.709-1.863,6.667-1.323a3.481,3.481,0,0,1,1.2,3.9s1.863-2.559.261-4.021-5.379-1.149-5.379-1.149-8.373.975-8.808-2.663-9.4-7.363-11.663-6.44-6.284.366-6.475,2.367S54.083,55.789,54.083,55.789Z" fill="url(#linear-gradient-18)"></path><path id="Tracciato_762" data-name="Tracciato 762" d="M50.567,53.769S47,49.609,51.959,43.325s16.989-1.741,16.989-1.741l5.083,2.855c.975.54,3.725,3.151,6.005.783S83.552,47,83.552,47s-.87-1.393-2.872-.157-2.507.313-2.507.313,6.684,2.594,10.131.209,3.986-4.961,3.621-5.57a2.533,2.533,0,0,0-2.594-1.445c-1.863-.07-2.4-2.141-2.28-3.481s.4,3.081,3.708,1.967,3.638,4,1.741,6.562a6.7,6.7,0,0,1-3.481,2.541s2.193-.209,1.41,1.88c0,0-.975-2.124-1.741-1.044s-.992,3.655-2.942,4.613c0,0,4.16-3.777,5.222-1.062a5.831,5.831,0,0,0-4.648,1.741A13.56,13.56,0,0,1,80.228,56.9s-6.214,1.236-9.3-2.559S63,48.478,60.349,48.739a10.444,10.444,0,0,0-4.891,2.245Z" fill="url(#linear-gradient-19)"></path><path id="Tracciato_763" data-name="Tracciato 763" d="M42.56,70.758a6.458,6.458,0,0,1-5.344,1.027,8.32,8.32,0,0,1-6.684-5.466c-1.306-2.75-.54-5.727-3.29-7.067s-3.795.174-3.795.174a5.4,5.4,0,0,1,4.961-1.741s-2.3-.087-2.872-1.6,1.619-1.741,3.064-1.567c0,0-2.715.975-1.48,1.741s3.969.853,5.518,2.611a39.357,39.357,0,0,1,3.6,5.448,9.382,9.382,0,0,0,5.535,4.317Z" fill="url(#linear-gradient-20)"></path><ellipse id="Ellisse_1131" data-name="Ellisse 1131" cx="2.298" cy="2.367" rx="2.298" ry="2.367" transform="translate(42.682 76.906) rotate(-84.23)" fill="#80b8e4"></ellipse><path id="Tracciato_764" data-name="Tracciato 764" d="M58.347,50.236S54,48.9,47.242,53.561,41.289,67.73,42.02,70.114s3.6,6.963,5.918,8.46c0,0-1.584,1.271,1.253,1.863A3.76,3.76,0,0,0,53.3,78.7a9.4,9.4,0,0,0,.522-2.4,46.531,46.531,0,0,1,1.358-5.309,7.955,7.955,0,0,1-.975-2.054s.122,4.3,6.51,4.474h.209c.574.087,3.655.383,5.222-3.917.435-1.184.818-3.69,2.75-4.212a4.978,4.978,0,0,1,4.891.5c1.5,1.184-.836,2.524-2.3,1.358a2.594,2.594,0,0,0,3.1,1.445c2.228-.487.748-2.942.748-2.942a38.3,38.3,0,0,0,2.193,3.272,1.288,1.288,0,0,0,1.584.174c.748-.348,1.584-1.288.226-3.6,0,0,0,2.472-1.236,2.054s-1.34-1.549-1.619-2.211c-.8-2.037-2.367-3.586-7.659-4.282s-9.574,5.518-9.574,5.518a16.258,16.258,0,0,1-2.628,2.263,7.642,7.642,0,0,0,3.586-7.659A7.9,7.9,0,0,0,56.4,54.675C53.526,53.247,56.05,51,58.347,50.236Z" fill="#80b8e4"></path><circle id="Ellisse_1132" data-name="Ellisse 1132" cx="2.454" cy="2.454" r="2.454" transform="translate(50.95 71.315)" fill="url(#radial-gradient-2)"></circle><g id="Luspe-2"><path id="Tracciato_765" data-name="Tracciato 765" d="M52.708,70.149s.453-6.179-4.665-2.559" opacity="0.35" fill="url(#linear-gradient-21)"></path><path id="Tracciato_766" data-name="Tracciato 766" d="M55.284,69.1s.453-6.179-4.665-2.559" opacity="0.35" fill="url(#linear-gradient-22)"></path><path id="Tracciato_767" data-name="Tracciato 767" d="M53.334,66.877s.47-6.179-4.6-2.472" opacity="0.35" fill="url(#linear-gradient-23)"></path><path id="Tracciato_768" data-name="Tracciato 768" d="M50.688,67.329s.47-6.2-4.665-2.559" opacity="0.35" fill="url(#linear-gradient-24)"></path><path id="Tracciato_769" data-name="Tracciato 769" d="M51.158,64.614s.453-6.179-4.682-2.559" opacity="0.35" fill="url(#linear-gradient-25)"></path><path id="Tracciato_770" data-name="Tracciato 770" d="M57.025,68.13s.47-6.179-4.665-2.559" opacity="0.35" fill="url(#linear-gradient-26)"></path><path id="Tracciato_771" data-name="Tracciato 771" d="M56.206,65.867s.453-6.179-4.682-2.559" opacity="0.35" fill="url(#linear-gradient-27)"></path><path id="Tracciato_772" data-name="Tracciato 772" d="M54.379,63.8s.453-6.179-4.648-2.594" opacity="0.35" fill="url(#linear-gradient-28)"></path><path id="Tracciato_773" data-name="Tracciato 773" d="M57.756,63.291s.47-6.2-4.665-2.576" opacity="0.35" fill="url(#linear-gradient-29)"></path><path id="Tracciato_774" data-name="Tracciato 774" d="M56.05,60.471s-1.567-5.988-5.222-.923" opacity="0.35" fill="url(#linear-gradient-30)"></path><path id="Tracciato_775" data-name="Tracciato 775" d="M51.559,58.991s-1.567-6.005-5.222-.923" opacity="0.35" fill="url(#linear-gradient-31)"></path><path id="Tracciato_776" data-name="Tracciato 776" d="M48.373,65.78s.47-6.179-4.665-2.576" opacity="0.35" fill="url(#linear-gradient-32)"></path><path id="Tracciato_777" data-name="Tracciato 777" d="M48.547,68.391S46.807,62.421,44,67.416" opacity="0.35" fill="url(#linear-gradient-33)"></path></g><path id="Tracciato_778" data-name="Tracciato 778" d="M51.507,55.266a12.045,12.045,0,0,1-3.168,5.222c-2.193,1.741-4.4,6.075-2.454,9.609,0,0-6.963-2.193-8.181-9.121a16.9,16.9,0,0,1,2.681-12.063s4.021-6.545-.661-8.7A7.328,7.328,0,0,1,46.215,43.2c2.245,3.481.975,9.887.975,9.887S46.389,57.825,51.507,55.266Z" fill="url(#linear-gradient-34)"></path></g></g></svg>