<svg xmlns="http://www.w3.org/2000/svg" xmlns:xlink="http://www.w3.org/1999/xlink" width="98" height="98" viewBox="0 0 98 98"><defs><clipPath id="clip-path"><rect id="Rettangolo_2150" data-name="Rettangolo 2150" width="98" height="98" transform="translate(365 252)" fill="#fff" stroke="#707070" stroke-width="1"></rect></clipPath><linearGradient id="linear-gradient" x1="0.287" y1="29.801" x2="1.29" y2="29.801" gradientUnits="objectBoundingBox"><stop offset="0" stop-color="#80bde8"></stop><stop offset="0.23" stop-color="#80b4e2"></stop><stop offset="0.27" stop-color="#80b1e0"></stop></linearGradient><linearGradient id="linear-gradient-2" x1="0.19" y1="32.982" x2="1.186" y2="32.982" xlink:href="#linear-gradient"></linearGradient><linearGradient id="linear-gradient-3" x1="0.233" y1="33.249" x2="1.24" y2="33.249" gradientUnits="objectBoundingBox"><stop offset="0" stop-color="#80bde8"></stop><stop offset="0.56" stop-color="#80b4e2"></stop><stop offset="0.67" stop-color="#80b1e0"></stop></linearGradient><linearGradient id="linear-gradient-4" x1="0.366" y1="31.039" x2="1.361" y2="31.039" xlink:href="#linear-gradient-3"></linearGradient><linearGradient id="linear-gradient-5" x1="0.326" y1="87.735" x2="1.326" y2="87.735" gradientUnits="objectBoundingBox"><stop offset="0.14" stop-color="#b3dff8"></stop><stop offset="0.29" stop-color="#aad7f4"></stop><stop offset="0.55" stop-color="#90c2e9"></stop><stop offset="0.69" stop-color="#7fb3e1"></stop></linearGradient><linearGradient id="linear-gradient-6" x1="0.553" y1="124.125" x2="1.557" y2="124.125" gradientUnits="objectBoundingBox"><stop offset="0" stop-color="#80bde8"></stop><stop offset="0.26" stop-color="#7fb4e2"></stop><stop offset="0.33" stop-color="#7fb0df"></stop><stop offset="0.6" stop-color="#80b6e3"></stop><stop offset="0.99" stop-color="#758bc5"></stop></linearGradient><linearGradient id="linear-gradient-7" x1="0.962" y1="104.856" x2="0.444" y2="106.175" gradientUnits="objectBoundingBox"><stop offset="0.14" stop-color="#b3dff8"></stop><stop offset="0.23" stop-color="#aad9f5"></stop><stop offset="0.33" stop-color="#97ccef"></stop><stop offset="0.62" stop-color="#7fb3e1"></stop></linearGradient><linearGradient id="linear-gradient-8" x1="0.97" y1="172.546" x2="0.603" y2="174.085" gradientUnits="objectBoundingBox"><stop offset="0.38" stop-color="#b3dff8"></stop><stop offset="0.55" stop-color="#aad7f4"></stop><stop offset="0.85" stop-color="#90c3ea"></stop><stop offset="1" stop-color="#80b6e3"></stop></linearGradient></defs><g id="sagittario" transform="translate(-365 -252)" clip-path="url(#clip-path)"><g id="sagittario1-01" transform="translate(327.006 212.94)"><path id="Tracciato_779" data-name="Tracciato 779" d="M75.715,116.371c-10.142-7.454-4.568-13.639-2.71-15.06s7.1-6.1,7.1-6.1c4.372-4.372,5.53-6.208,5.9-8.131l-11.3-2.995a11.5,11.5,0,0,1-5.093,4.874,15.3,15.3,0,0,0-6.929,7.213,18.885,18.885,0,0,0,5.071,21.377c4.066,3.891,10.164,5.421,11.672,8.743s-.5,5.552-2.71,5.421-1.18-4.372.175-1.683S78.4,129.7,78.4,129.7c.2-5.421-5.749-5.268-7.934-1.88s1.355,9.814,6.251,8.962,7.454-3.213,6.863-8.743S75.715,116.371,75.715,116.371Z" fill="url(#linear-gradient)"></path><path id="Tracciato_780" data-name="Tracciato 780" d="M94.426,56.83c-12.59.306-11.585,8.743-10.929,10.8S85.683,76.7,85.683,76.7c1.115,5.989,1.049,8.284.2,9.967l-10.929-4a11.213,11.213,0,0,0-1.377-6.907,15.126,15.126,0,0,1-1.443-9.989A18.907,18.907,0,0,1,88.524,51.191c5.53-.874,11.41,1.377,14.6-.525s2.776-4.874.874-5.989-3.5,2.929-.809,1.486,1.093,1.115,1.093,1.115c-2.951,4.525-7.738,1.005-7.585-3.038s6.557-7.191,10.208-3.628,4.372,6.885.656,10.929S94.426,56.83,94.426,56.83Z" fill="url(#linear-gradient-2)"></path><path id="Tracciato_781" data-name="Tracciato 781" d="M104.306,46.317s-3.213,3.541-4.372,0,2.623-3.716,2.623-3.716a3.847,3.847,0,0,1,4.546,3.06.2.2,0,0,1,0,.24,6.557,6.557,0,0,1-4.546,7.279A99.4,99.4,0,0,1,91.89,54.863c-.852.153-10.667-.175-12.2,8.284S83.06,85.573,83.06,85.573l2.885,1.005s1.508-1.508-.175-10.361S81.2,64.022,85.442,59.3c0,0,2.011-2.186,9.137-2.71s12.743-4.372,13.464-5.6a6.557,6.557,0,0,0,.568-8.415A5.814,5.814,0,0,0,101.6,39.65s-3.8,1.115-4.131,4.044a4.634,4.634,0,0,0,2.186,4.831,3.41,3.41,0,0,0,4.656-2.208Z" fill="url(#linear-gradient-3)"></path><path id="Tracciato_782" data-name="Tracciato 782" d="M77.7,130.688s-.568-4.765-3.585-2.536a2.689,2.689,0,0,0,0,4.546,3.8,3.8,0,0,0,5.552,0,6.557,6.557,0,0,0,.459-8.568,89.181,89.181,0,0,0-7.76-7.519c-.7-.634-8.984-6.055-5.268-13.88S83.06,86.426,83.06,86.426l2.951.831s.35,2.186-6.1,8.328-10.8,7.322-9.967,13.7c0,0,.372,2.973,5.9,7.5s7.891,10.929,7.76,12.372a6.557,6.557,0,0,1-4.372,7.191,5.836,5.836,0,0,1-7.454-1.617s-2.47-3.1-1.115-5.661a4.721,4.721,0,0,1,4.5-2.754,3.366,3.366,0,0,1,2.535,4.372Z" fill="url(#linear-gradient-4)"></path><path id="Tracciato_783" data-name="Tracciato 783" d="M106.4,52l15.934,45.115L82.644,128.546l-.459-1.508,39.1-29.923-15.628-43.3Z" fill="#18304e"></path><path id="Tracciato_784" data-name="Tracciato 784" d="M105.945,91.519l5.137-3.716,3.06.831-4.5,3.213,5.421-2.776,12.131,3.956-5.9,4.721,2.142,7.781-8.5-2.623-2.076-4.743,1.311,4.35-7.279-2.208L105.2,94.076Z" fill="url(#linear-gradient-5)"></path><path id="Tracciato_785" data-name="Tracciato 785" d="M68.349,84.2l1.508-3.781L121.9,96.065l.59,1.2-1.508,1.355Z" fill="#80b8e4"></path><path id="Tracciato_786" data-name="Tracciato 786" d="M81.377,86.666l1.246-2.317L121.9,96.174l.415.787-1.2.809Z" fill="url(#linear-gradient-6)"></path><path id="Tracciato_787" data-name="Tracciato 787" d="M46.8,75.213l17.814-2.186s-.437,5.989,3.891,7.41L67.41,84s-3.76-1.224-7.76,3.781Z" fill="url(#linear-gradient-7)"></path><path id="Tracciato_788" data-name="Tracciato 788" d="M68,81.923l.5-1.552c-4.372-1.443-3.891-7.41-3.891-7.41L46.8,75.147h0Z" fill="url(#linear-gradient-8)"></path><path id="Tracciato_789" data-name="Tracciato 789" d="M66.426,83.06a2.011,2.011,0,0,0,2.055,2.033h0a1.705,1.705,0,0,0,.481,0s2.732,1.464,3.41-.131,1.53-4.219-1.2-4.219c0,0-3.322-2.186-4.022-.175a7.585,7.585,0,0,0-.721,2.492Z" fill="#304e62"></path><path id="Tracciato_790" data-name="Tracciato 790" d="M106.142,49.246a2.033,2.033,0,0,0-2.885,0h0a2.186,2.186,0,0,0-.328.437S100,50.71,100.743,52.371s2.361,4.153,4.109,2.076c0,0,3.869-.984,2.776-2.973a9.989,9.989,0,0,0-1.486-2.229Z" fill="#304e62"></path><path id="Tracciato_791" data-name="Tracciato 791" d="M79.431,124.2s-2.929,1.6-.743,3.563c0,0-.874,2.645,2.863,2.186s1.53-3.8,1.53-3.8S83.06,122.273,79.431,124.2Z" fill="#304e62"></path></g></g></svg>