<svg xmlns="http://www.w3.org/2000/svg" xmlns:xlink="http://www.w3.org/1999/xlink" width="98" height="98" viewBox="0 0 98 98"><defs><clipPath id="clip-path"><rect id="Rettangolo_2150" data-name="Rettangolo 2150" width="98" height="98" transform="translate(503 252)" fill="#fff" stroke="#707070" stroke-width="1"></rect></clipPath><linearGradient id="linear-gradient" x1="0.05" y1="65.486" x2="1.049" y2="65.486" gradientUnits="objectBoundingBox"><stop offset="0.01" stop-color="#758bc5"></stop><stop offset="0.24" stop-color="#789ad0"></stop><stop offset="0.72" stop-color="#7eb4e1"></stop><stop offset="1" stop-color="#80bde8"></stop></linearGradient><linearGradient id="linear-gradient-2" x1="0.08" y1="54.016" x2="1.081" y2="54.016" xlink:href="#linear-gradient"></linearGradient><linearGradient id="linear-gradient-3" x1="0.482" y1="142.386" x2="0.791" y2="141.439" xlink:href="#linear-gradient"></linearGradient><linearGradient id="linear-gradient-4" x1="0.536" y1="155.587" x2="0.849" y2="154.766" xlink:href="#linear-gradient"></linearGradient><linearGradient id="linear-gradient-5" x1="0.583" y1="190.195" x2="0.814" y2="189.47" xlink:href="#linear-gradient"></linearGradient><linearGradient id="linear-gradient-6" x1="0.587" y1="148.496" x2="0.779" y2="147.951" xlink:href="#linear-gradient"></linearGradient><linearGradient id="linear-gradient-7" x1="0.575" y1="158.116" x2="0.8" y2="157.44" xlink:href="#linear-gradient"></linearGradient><linearGradient id="linear-gradient-8" x1="0.594" y1="143.734" x2="0.793" y2="143.194" xlink:href="#linear-gradient"></linearGradient><linearGradient id="linear-gradient-9" x1="0.606" y1="142.598" x2="0.774" y2="142.154" xlink:href="#linear-gradient"></linearGradient><radialGradient id="radial-gradient" cx="0.494" cy="0.492" r="0.376" gradientTransform="translate(-2.408) scale(2.91 1)" gradientUnits="objectBoundingBox"><stop offset="0" stop-color="#7fb7e4"></stop><stop offset="1" stop-color="#7ba1d5"></stop></radialGradient><radialGradient id="radial-gradient-2" cx="0.506" cy="-3.368" r="0.393" gradientTransform="matrix(2.083, 0, 0, -1, -1.128, 1.846)" xlink:href="#radial-gradient"></radialGradient><linearGradient id="linear-gradient-10" x1="0.536" y1="229.413" x2="0.94" y2="228.548" xlink:href="#linear-gradient"></linearGradient><linearGradient id="linear-gradient-11" x1="0.617" y1="204.358" x2="1.083" y2="203.553" xlink:href="#linear-gradient"></linearGradient><linearGradient id="linear-gradient-12" x1="0.567" y1="183.494" x2="1.06" y2="182.722" xlink:href="#linear-gradient"></linearGradient><linearGradient id="linear-gradient-13" x1="0.558" y1="179.389" x2="1.075" y2="178.545" xlink:href="#linear-gradient"></linearGradient><linearGradient id="linear-gradient-14" x1="0.498" y1="181.601" x2="1.108" y2="180.62" xlink:href="#linear-gradient"></linearGradient><linearGradient id="linear-gradient-15" x1="0.574" y1="155.607" x2="0.944" y2="154.801" xlink:href="#linear-gradient"></linearGradient><linearGradient id="linear-gradient-16" x1="0.456" y1="104.432" x2="0.979" y2="103.427" xlink:href="#linear-gradient"></linearGradient></defs><g id="scop&#xE8;rione" transform="translate(-503 -252)" clip-path="url(#clip-path)"><g id="scorpione1-01" transform="translate(466.522 214.13)"><g id="piedisinistra"><path id="Tracciato_792" data-name="Tracciato 792" d="M72.948,95.1a2.481,2.481,0,0,1,1.9-2.545c2.139-.535,9.068-6.416,9.239-8.148,0,0,.727,7.442,4.277,9.239s.92-1.8.92-1.8L85.01,83.877s-.107-2.609-2.459-.727S70.788,91.7,69.869,94.933,72.948,95.1,72.948,95.1Z" fill="#80b8e4"></path><path id="Tracciato_793" data-name="Tracciato 793" d="M80.284,94.848s1.262-.385,2.909-3.636,3.7-3.529,5.069-4.512a25.022,25.022,0,0,0,3.7-4.855s1.347,4.748,2.951,5.625,1.775.321,1.775.321a66.98,66.98,0,0,0-3.636-7.956c-.727-.706-1.625.192-2.139.535s-4.833,4.726-5.368,5.175S80.455,90.121,80.284,94.848Z" fill="#80b8e4"></path><path id="Tracciato_794" data-name="Tracciato 794" d="M69.142,112.128s-.535-10.308,4.277-14.842l6.416-8.191,4.512,5.625-.749.727a19.868,19.868,0,0,1-3.529-4.277,20.3,20.3,0,0,1-5.625,9.068C70.232,104.151,69.142,112.128,69.142,112.128Z" fill="#80b8e4"></path><path id="Tracciato_795" data-name="Tracciato 795" d="M97.414,85.737a17.344,17.344,0,0,1-.192-7.977s-.192-1.262,1.262-.727,8.341,1.946,9.068,3.764-3.614,1.133-3.614,1.133-4.277-1.454-4.9-2.374a50.084,50.084,0,0,1,0,5.069C98.847,85.331,97.414,85.737,97.414,85.737Z" fill="#80b8e4"></path></g><path id="Tracciato_796" data-name="Tracciato 796" d="M76.028,101.991s-1.8,4.7,6.758,6.737a12.212,12.212,0,0,0,12.832-4.406,45.831,45.831,0,0,0,22.819-18.285s4.491-5.8,4.491-10.5-1.625-7.421-3.422-7.977a8.554,8.554,0,0,0-5.625-.364c-1.454.77-2.524,14.97-16.254,20.124a53.936,53.936,0,0,0-21.6,14.671Z" fill="#80b8e4"></path><path id="Tracciato_797" data-name="Tracciato 797" d="M105.712,114.438s3.978-6.865.535-8.148-14.5-3.037-15.569-2.481.9,2.716,2.524,3.251a20.467,20.467,0,0,0,10.5,1.133,5.09,5.09,0,0,0-4.277,2.695,11.634,11.634,0,0,0-11.035,1.454,11.826,11.826,0,0,0-3.272,6.886,6.01,6.01,0,0,1-3.85,5.24,28.679,28.679,0,0,1-18.649,1.818s1.989,3.443,7.785,2.909c0,0,2.545,0,3.08.727a6.245,6.245,0,0,0,4.919-1.476s4.491.556,5.8-.727l2.352.364Z" fill="#80b8e4"></path><path id="Tracciato_798" data-name="Tracciato 798" d="M60.822,129.151a14.265,14.265,0,0,0,8.875,1.133s1.112-1.133,3.978.171,3.443-.535,3.443-.535a4.47,4.47,0,0,1,3.1-.556,6.737,6.737,0,0,0,6.737-5.625c.556-3.978-.706-8.319,3.443-11.4s9.966-.364,9.966-.364a9,9,0,0,1,7.079,5.069c2.139,4.7-3.443,9.773-3.443,9.773s-2.545,3.636-18.307,6.523S63.346,131.5,60.822,129.151Z" fill="url(#linear-gradient)"></path><g id="Granchio"><path id="Tracciato_799" data-name="Tracciato 799" d="M77.4,98.377a19.547,19.547,0,0,1-5.625-1.989,8.875,8.875,0,0,1-5.261,5.8,5,5,0,0,1-4.277,6.159,80.861,80.861,0,0,1-13.6,1.8s-8.726,1.818-8.9,9.966c0,0-2.887-9.966,9.6-14.97l14.372-9.816s4.17-2.737,7.613-.364c0,0,1.968-1.133,7.143,1.882Z" fill="#80b8e4"></path><path id="Tracciato_800" data-name="Tracciato 800" d="M38.73,120.276a15.163,15.163,0,0,1,.364-16.467c5.625-9,17.558-11.848,17.558-11.848a8.105,8.105,0,0,1,7.678,3.315,11.228,11.228,0,0,1,1.005,9.581s-1.176,4.213-10.116,1.5-11.591.727-13.409,1.989A10.693,10.693,0,0,0,38.73,120.276Z" fill="url(#linear-gradient-2)"></path></g><path id="Tracciato_801" data-name="Tracciato 801" d="M75.13,101.67c.128.192-2.524-4.021,6.972-6.566,2.01-.535,10.543,1.219,11.591,5.625,0,0,1.625,3.379-7.079,5.026,0,0-3.358,0-4.063-2.246a3.208,3.208,0,0,0-3.785-2.545h0C77.974,101.2,76.113,102.825,75.13,101.67Z" fill="url(#linear-gradient-3)"></path><path id="Tracciato_802" data-name="Tracciato 802" d="M115.635,82.7a9.453,9.453,0,0,0-7.164-1.989s-3.785-.171-1.989-3.358,2.481-3.486,3.785-3.614a10.415,10.415,0,0,1,5.6,1.133c2.139,1.112,4.149,2.139,4.684,3.614a5.625,5.625,0,0,1,.128,3.358C120.49,82.166,119.185,84.86,115.635,82.7Z" fill="url(#linear-gradient-4)"></path><path id="Tracciato_803" data-name="Tracciato 803" d="M112.342,87.234a17.622,17.622,0,0,0-7.87-3.165c-5.026-.813-1.219-2.823-1.219-2.823s2.481-2.139,7.977-.171c6.223,2.139,5.347,6.138,4.7,6.416S115.229,89.223,112.342,87.234Z" fill="url(#linear-gradient-5)"></path><path id="Tracciato_804" data-name="Tracciato 804" d="M97.414,102.525s.9-1.8,1.989-1.625c0,0,.342-6.159-10.886-8.554,0,0-5.069-.9-5.774,2.716C82.743,95.1,88.71,93.843,97.414,102.525Z" fill="url(#linear-gradient-6)"></path><path id="Tracciato_805" data-name="Tracciato 805" d="M108.321,91.961A17.6,17.6,0,0,0,97.628,87.47s-3.122-.214-1.112-2.139,9.945-2.737,14.478,2.139c0,0,3.272,3.443.364,5.988C111.443,93.394,110.716,93.928,108.321,91.961Z" fill="url(#linear-gradient-7)"></path><path id="Tracciato_806" data-name="Tracciato 806" d="M105.819,97.735a19.782,19.782,0,0,0-12.361-7.571c-.642,0-3.08.385-1.262-2.4,0,0,.855-.984,4.7-.535a11.613,11.613,0,0,1,8.7,3.614c3.144,3.443,2.524,5.389,2.524,5.389V96.6Z" fill="url(#linear-gradient-8)"></path><path id="Tracciato_807" data-name="Tracciato 807" d="M88.924,92.474s-1.861.192-1.112-1.861,8.148.214,8.148.214,6.523,2.438,8.02,6.758a3.764,3.764,0,0,0-.15,2.374s0,1.326-2.417-.364S96.238,92.88,88.924,92.474Z" fill="url(#linear-gradient-9)"></path><path id="Tracciato_808" data-name="Tracciato 808" d="M78.295,110.46a8.939,8.939,0,0,1-2.352-7.806c0-.492,0-.984,1.711-1.112s1.2,2.139.9,2.887a6.566,6.566,0,0,0-.257,6.031Z" fill="url(#radial-gradient)"></path><path id="Tracciato_809" data-name="Tracciato 809" d="M78.38,111.957s.92-7.613,2.139-8.875a1.347,1.347,0,0,1,1.818.171c.9.9.192,2.417-.192,3.08C81.268,107.808,78.38,111.957,78.38,111.957Z" fill="url(#radial-gradient-2)"></path><path id="Tracciato_810" data-name="Tracciato 810" d="M107.808,45.039s-2.524,2.139-4.277.535a8.084,8.084,0,0,1-2.053-4.94s-.727-1.112,3.443-1.112a4.726,4.726,0,0,1,4.7,4.149Z" fill="url(#linear-gradient-10)"></path><path id="Tracciato_811" data-name="Tracciato 811" d="M111.615,49.915s-5.24-.364-4.9-4.491a13.709,13.709,0,0,1,2.352-2.93s5.24-.9,5.069,5.24Z" fill="url(#linear-gradient-11)"></path><path id="Tracciato_812" data-name="Tracciato 812" d="M115.229,55.369a5,5,0,0,1-4.277-5.8,14.2,14.2,0,0,1,3.571-2.524s5.967,1.625,3.08,7.057Z" fill="url(#linear-gradient-12)"></path><path id="Tracciato_813" data-name="Tracciato 813" d="M116.683,61.87s-5.24-2.139-3.08-6.886c0,0,.92-1.625,4.7-1.625,0,0,4.512,1.454,1.989,7.613Z" fill="url(#linear-gradient-13)"></path><path id="Tracciato_814" data-name="Tracciato 814" d="M115.977,68.436s5.774,1.818,6.138-1.989.364-5.8-1.818-5.988a13.452,13.452,0,0,0-5.069,1.133s-1.24.535-.535,4.149S115.977,68.436,115.977,68.436Z" fill="url(#linear-gradient-14)"></path><path id="Tracciato_815" data-name="Tracciato 815" d="M111.208,73.462s-1.8,0-.364-3.251a5.069,5.069,0,0,1,5.3-3.272,8.063,8.063,0,0,1,5.432,2.545,9.5,9.5,0,0,1,.92,6.159s-.556,1.625-2.737.9S116.683,73.825,111.208,73.462Z" fill="url(#linear-gradient-15)"></path><path id="Tracciato_816" data-name="Tracciato 816" d="M88.09,51.733s8.683,2.524,8.982-.171a2.7,2.7,0,0,0-1.262-2.737,5.56,5.56,0,0,1,0-7.592c2.374-1.989,4.277-2.139,6.159-1.133s2.716,2.909,2.352,6.159-4.277,6.416-4.277,6.416S95.489,56.631,88.09,51.733Z" fill="url(#linear-gradient-16)"></path><g id="piedidestra"><path id="Tracciato_817" data-name="Tracciato 817" d="M104.386,99.36a50.087,50.087,0,0,0,9.945-4.491S112.9,103.916,115.785,107l-1.262,10.821s6.523-6.737,1.454-23.183c0,0,1.112-3.443-6.416,1.283S104.386,99.36,104.386,99.36Z" fill="#80b8e4"></path><path id="Tracciato_818" data-name="Tracciato 818" d="M100.75,103.723s-3.251.727-1.8-1.454c0,0,6.737-2.524,9.217-3.251s1.818,14.97,1.818,14.97-1.625,7.079-3.978,9.795,1.54-9.88,1.9-10.052-2.139-8.7-.92-11.784S104.108,104.151,100.75,103.723Z" fill="#80b8e4"></path><path id="Tracciato_819" data-name="Tracciato 819" d="M110.353,94.1l1.027-.791c.984-.77,2.481-1.9,3.743-2.695a8.554,8.554,0,0,1,1.561-.855s5.8,9.966,5.432,14.307a29.941,29.941,0,0,1-1.433,7.25,50.386,50.386,0,0,1-1.112-9.153,6.416,6.416,0,0,0-1.5-4.277,20.039,20.039,0,0,1-1.989-5.924l-6.523,4.149S108.449,94.719,110.353,94.1Z" fill="#80b8e4"></path><path id="Tracciato_820" data-name="Tracciato 820" d="M115.592,91.362a1.583,1.583,0,0,1-.321-2.909,31.416,31.416,0,0,1,7.079-3.614,7.913,7.913,0,0,1,3.251,2.139c1.818,1.818,7.592,4.491,8.875,15.206,0,0,.171,2.737-3.807-6.737,0,0-7.613-6.886-7.613-7.785Z" fill="#80b8e4"></path></g></g></g></svg>