<svg xmlns="http://www.w3.org/2000/svg" xmlns:xlink="http://www.w3.org/1999/xlink" width="98" height="98" viewBox="0 0 98 98"><defs><clipPath id="clip-path"><rect id="Rettangolo_2150" data-name="Rettangolo 2150" width="98" height="98" transform="translate(641 252)" fill="#fff" stroke="#707070" stroke-width="1"></rect></clipPath><linearGradient id="linear-gradient" x1="0.122" y1="106.789" x2="1.121" y2="106.789" gradientUnits="objectBoundingBox"><stop offset="0" stop-color="#80bde8"></stop><stop offset="0.26" stop-color="#7fb4e2"></stop><stop offset="0.33" stop-color="#7fb0df"></stop><stop offset="0.6" stop-color="#80b6e3"></stop><stop offset="0.99" stop-color="#758bc5"></stop></linearGradient><linearGradient id="linear-gradient-2" x1="0.183" y1="151.343" x2="1.182" y2="151.343" gradientUnits="objectBoundingBox"><stop offset="0" stop-color="#80bde8"></stop><stop offset="0.13" stop-color="#7fb4e2"></stop><stop offset="0.17" stop-color="#7fb0df"></stop><stop offset="0.37" stop-color="#80b6e3"></stop><stop offset="0.74" stop-color="#758bc5"></stop></linearGradient><linearGradient id="linear-gradient-3" x1="0.397" y1="43.412" x2="0.618" y2="42.939" gradientUnits="objectBoundingBox"><stop offset="0" stop-color="#80bde8"></stop><stop offset="0.19" stop-color="#7eb4e1"></stop><stop offset="0.51" stop-color="#789ad0"></stop><stop offset="0.67" stop-color="#758bc5"></stop></linearGradient><linearGradient id="linear-gradient-4" x1="0.288" y1="80.332" x2="1.286" y2="80.332" gradientUnits="objectBoundingBox"><stop offset="0" stop-color="#80bde8"></stop><stop offset="0.19" stop-color="#7fb4e2"></stop><stop offset="0.24" stop-color="#7fb0df"></stop><stop offset="0.37" stop-color="#80b6e3"></stop><stop offset="0.56" stop-color="#7a9fd4"></stop><stop offset="0.85" stop-color="#758bc5"></stop></linearGradient><linearGradient id="linear-gradient-5" x1="0.135" y1="111.219" x2="1.134" y2="111.219" xlink:href="#linear-gradient"></linearGradient><linearGradient id="linear-gradient-6" x1="0.089" y1="48.829" x2="1.089" y2="48.829" xlink:href="#linear-gradient-3"></linearGradient><linearGradient id="linear-gradient-7" x1="0.218" y1="26.182" x2="1.097" y2="26.606" gradientUnits="objectBoundingBox"><stop offset="0" stop-color="#80bde8"></stop><stop offset="0.4" stop-color="#80b6e3"></stop><stop offset="0.99" stop-color="#758bc5"></stop></linearGradient><radialGradient id="radial-gradient" cx="0.539" cy="0.509" r="0.532" gradientTransform="matrix(0.62, 0.681, 0.611, -0.776, -16.444, 64.021)" gradientUnits="objectBoundingBox"><stop offset="0" stop-color="#80bde8"></stop><stop offset="0.03" stop-color="#7ab4df"></stop><stop offset="0.07" stop-color="#689dc5"></stop><stop offset="0.12" stop-color="#4c779c"></stop><stop offset="0.19" stop-color="#264363"></stop><stop offset="0.21" stop-color="#18304e"></stop><stop offset="0.46" stop-color="#7fb0df"></stop><stop offset="0.66" stop-color="#18304e"></stop></radialGradient></defs><g id="toro" transform="translate(-641 -252)" clip-path="url(#clip-path)"><g id="toro1-01" transform="translate(614.427 225.118)"><g id="Orecchio2"><path id="Tracciato_821" data-name="Tracciato 821" d="M99.018,71.289A37.54,37.54,0,0,1,108.086,76c4.715,3.337,4.008,3.156,6.8,3.337a9.176,9.176,0,0,0,5.441-1.959s-7.345,9.666-17.12,4.9S99.018,71.289,99.018,71.289Z" fill="url(#linear-gradient)"></path><path id="Tracciato_822" data-name="Tracciato 822" d="M99.018,72.867a10.881,10.881,0,0,1,5.586,3.845c2.793,3.319,6.112,5.586,9.43,3.627,0,0-.87,2.448-5.767.363a20.275,20.275,0,0,1-4.189-3.355c-1.814-1.814-2.611-1.814-3.319-.145S97.93,74.79,99.018,72.867Z" fill="url(#linear-gradient-2)"></path></g><path id="Sagoma_testa" data-name="Sagoma testa" d="M38.592,73.919s5.441-.689,9.43,6.819l8.941,3.3S50.67,97.857,64.217,99.58a13.855,13.855,0,0,1,10.627,7,4.262,4.262,0,0,0,3.627.363c2.267-.707,6.511,5.441,9.3,5.586,1.614.091,2.267-1.578,6.456-.526,0,0,2.267.526,7.254-4.715,0,0,1.4.163,2.448-6.456l2.285-1.814s-3.5-6.275-3.337-8.215a10.138,10.138,0,0,0-1.324-6.22s5.441-3.627,0-6.819c0,0-2.1-.345-2.267-9.956s-10.355-11.824-12.1-9.068c0,0-5.948-3.156-19.042-1.4,0,0-1.922-1.814-5.586,1.4C62.548,58.776,44,64.344,38.592,73.919Z" fill="#80b8e4"></path><g id="Corno1"><path id="Tracciato_823" data-name="Tracciato 823" d="M64.344,73.484A77.257,77.257,0,0,1,54.387,75.3a14.508,14.508,0,0,1-9.956-1.922c-5.84-3.246-8.469-13.71-8.723-15.179s-.526-4.552-.889-6.656-3.3-8.378-6.456-10.482-1.179-1.814-1.179-1.814c5.06.653,9.775,6.093,9.775,6.093,7.816,9.068,5.731,11.334,8,13.746s5.586,2.63,10.482,2.63a36.687,36.687,0,0,0,9.068-1.233S71.072,65.287,64.344,73.484Z" fill="#80b8e4"></path><path id="Tracciato_824" data-name="Tracciato 824" d="M27.058,39.335s6.511,2.267,9.956,11.353A61.931,61.931,0,0,1,40.333,61.17c.218.671,2.448,6.982,7.508,8.215a30.939,30.939,0,0,0,15.633-.707c3.845-1.4-.689-7.508-.689-7.508a36.506,36.506,0,0,1-14.291.163,7.254,7.254,0,0,1-4.5-3.3c-1.034-2.43-.562-3.1-2.992-7.055S32.825,39.9,27.058,39.335Z" fill="url(#linear-gradient-3)"></path><path id="Tracciato_825" data-name="Tracciato 825" d="M61.279,61.17c.363-2.448,6.293-7.508,8.741-1.052A12.005,12.005,0,0,1,69.24,71L64.4,73.357c6.511-7.853.181-12.695.181-12.695" fill="url(#linear-gradient-4)"></path></g><g id="Orecchio1"><path id="Tracciato_826" data-name="Tracciato 826" d="M61.442,78.308s-1.814,0-2.43,2.593a10.065,10.065,0,0,1-5.441,6.819c-2.793,1.143-4.516,2.775-10.972,1.143a22.651,22.651,0,0,1-9.612-4.878,10.011,10.011,0,0,0,7.871.707,15.542,15.542,0,0,0,6.783-4.044,14.4,14.4,0,0,1,6.529-3.827,33.587,33.587,0,0,1,4.643-1.215" fill="#80b8e4"></path><path id="Tracciato_827" data-name="Tracciato 827" d="M42.255,86.324a8.07,8.07,0,0,0,7.254-3.355c2.974-4.026,7-7,11.7-5.767,0,0-1.052.363-3.827,5.241a12.006,12.006,0,0,1-5.441,5.06,8.324,8.324,0,0,1-6.112,1.052c-1.995-.417-3.99-.943-5.93-1.541,0,0,8.034,1.922,10.645.526s3.137-1.052,5.06-4.207-2.267-3.845-4.008-1.034S45.791,88.064,42.255,86.324Z" fill="url(#linear-gradient-5)"></path></g><g id="Corno2"><path id="Tracciato_828" data-name="Tracciato 828" d="M90.3,59.592s10.3,2.448,14.671.87,3.3-2.267,4.189-4.352,4.352-9.956,9.992-14.327a10.591,10.591,0,0,1,4.316-1.814c2.086-.181.87.526-.707,1.814a17.646,17.646,0,0,0-5.06,11.407c-.345,5.64-1.233,11.153-3.627,13.6s-6.112,5.586-15.56,6.529S90.3,59.592,90.3,59.592Z" fill="#80b8e4"></path><path id="Tracciato_829" data-name="Tracciato 829" d="M97.622,67.282s6.8,1.052,10.881-2.086,5.441-7.363,6.456-13.112a19.078,19.078,0,0,1,8.125-11.661s-1.65-.526-4.262,1.814-6.746,6.946-10.373,16.122c0,0-.58,2.666-8.36,2.684s-7.816-.671-7.816-.671Z" fill="url(#linear-gradient-6)"></path></g><path id="Tracciato_830" data-name="Tracciato 830" d="M81.608,87.375s-1.9-.707-1.4.508,3.627,1.6,3.627,1.6a4.7,4.7,0,0,1,3.21,2.231c1.215,2.1,1.034,5.06,2.793,8.034a17.337,17.337,0,0,0-4.189,4.189l-.363.526a1.4,1.4,0,0,0,.363.87,3.845,3.845,0,0,1,.689,2.793c-.163,1.233-.689.181-.689.181s-1.922-1.415-9.376-1.07a2.593,2.593,0,0,1-2.267-1.215c-1.052-1.4-3.5-5.06-6.982-5.93,0,0,3.845.87,5.441-.707s5.767-4.371,1.578-9.956-7.671,3.319-7.671,3.319,4.171-6.112,6.456-1.922-1.814,6.293-4.733,5.767a6.891,6.891,0,0,1-5.441-4.715c-.87-2.267-.526-6.819.345-7.871a3.627,3.627,0,0,1,4.371-.345c1.814.889,3.319,1.922,2.793-1.215A41.911,41.911,0,0,1,68.95,75.1c-.181-3.627,2.448-3.845,3.627-2.793S75.551,75.1,75.551,75.1a2.067,2.067,0,0,0,3.137,0c1.922-1.578,5.241-.163,5.241-.163s1.922.707,2.086,4.552c0,0,1.233,3.627,2.793,2.1a3.881,3.881,0,0,0,.181-4.552,13.166,13.166,0,0,0-2.7-2.684c-1.814-1.233-3.627-4.9-2.63-7.254a5.441,5.441,0,0,1,5.586-3.482c2.1.345,4.552,1.578,4.371,3.827s-.345,2.285-2.793,2.974.345,2.793.345,2.793,3.627,3.482,5.241,0-.689-8.034-.689-8.034-2.1-3.863-8.669-6.13a4.679,4.679,0,0,1,5.586,0c2.974,2.086,5.767,4.534,6.112,11.7s3.319,8.215,3.319,8.215,4.371,2.793-1.56,5.749a21.653,21.653,0,0,1,1.052,5.241,21.49,21.49,0,0,0,2.793,7.163s.689,1.578-.889,1.578-4.9-1.052-5.586.707L95.1,99.218s-.889-2.63,2.43-2.448c0,0-5.567-1.215-6.112,2.793h-.852s-.526-2.974.689-3.319,1.578.526,3.5-.526,0-2.448,0-2.448a39.987,39.987,0,0,1-1.94-6.8s.181-1.4-1.56-.363S86.577,88.064,81.608,87.375Z" fill="url(#linear-gradient-7)"></path><path id="Tracciato_831" data-name="Tracciato 831" d="M94.938,97.277s-1.052,1.922.707,1.814a4.534,4.534,0,0,1,2.938.689s1.215,1.034-.363,1.814a4.661,4.661,0,0,1-3.319.363,3.99,3.99,0,0,1-2.611-1.814,1.814,1.814,0,0,1,.49-2.575h0a2.92,2.92,0,0,1,2.158-.29Z" fill="#18304e"></path><path id="Bocca" d="M86.178,106.308a4.189,4.189,0,0,0,4.57,3.627,9.884,9.884,0,0,0,4.86-1.614c1.4,2.412,4.371.145,4.371.145-2.974,1.4-4.207-.326-4.207-.326a4.86,4.86,0,0,0,.689-2.793,14.889,14.889,0,0,1-1.016,2.63C88.59,112.257,86.178,106.308,86.178,106.308Z" fill="#18304e"></path><path id="Tracciato_832" data-name="Tracciato 832" d="M80.992,84.111c1.415-1.143.925-3.156-1.088-5.023s-4.842-2.466-6.093-1.106-1.814,3.99,1.814,5.8C77.782,84.927,79.6,85.235,80.992,84.111Z" fill="url(#radial-gradient)"></path></g></g></svg>