<svg xmlns="http://www.w3.org/2000/svg" xmlns:xlink="http://www.w3.org/1999/xlink" width="98" height="98" viewBox="0 0 98 98"><defs><clipPath id="clip-path"><rect id="Rettangolo_2150" data-name="Rettangolo 2150" width="98" height="98" transform="translate(779 252)" fill="#fff" stroke="#707070" stroke-width="1"></rect></clipPath><linearGradient id="linear-gradient" x1="0.169" y1="30.098" x2="1.17" y2="30.098" gradientUnits="objectBoundingBox"><stop offset="0.01" stop-color="#7ba3d6"></stop><stop offset="0.54" stop-color="#7eb4e1"></stop><stop offset="1" stop-color="#80bde8"></stop></linearGradient><linearGradient id="linear-gradient-2" x1="1.385" y1="39.095" x2="0.385" y2="39.095" gradientUnits="objectBoundingBox"><stop offset="0.01" stop-color="#7ba6d8"></stop><stop offset="0.49" stop-color="#7eb4e1"></stop><stop offset="1" stop-color="#80bde8"></stop></linearGradient><linearGradient id="linear-gradient-3" x1="0.698" y1="81.267" x2="1.696" y2="81.267" gradientUnits="objectBoundingBox"><stop offset="0" stop-color="#80b8e4"></stop><stop offset="0.31" stop-color="#7eafde"></stop><stop offset="0.82" stop-color="#7895cc"></stop><stop offset="1" stop-color="#758bc5"></stop></linearGradient><radialGradient id="radial-gradient" cx="0.502" cy="0.501" r="0.897" gradientTransform="translate(0.683) scale(0.429 1)" gradientUnits="objectBoundingBox"><stop offset="0" stop-color="#80bde8"></stop><stop offset="0.29" stop-color="#7eb4e1"></stop><stop offset="0.76" stop-color="#789ad0"></stop><stop offset="1" stop-color="#758bc5"></stop></radialGradient><radialGradient id="radial-gradient-2" cx="0.5" cy="0.5" r="0.531" gradientTransform="translate(0.239) scale(0.891 1)" gradientUnits="objectBoundingBox"><stop offset="0" stop-color="#80bde8"></stop><stop offset="0.03" stop-color="#7ab4df"></stop><stop offset="0.07" stop-color="#689dc5"></stop><stop offset="0.12" stop-color="#4c779c"></stop><stop offset="0.19" stop-color="#264363"></stop><stop offset="0.21" stop-color="#18304e"></stop><stop offset="0.46" stop-color="#7fb0df"></stop><stop offset="0.66" stop-color="#18304e"></stop></radialGradient><linearGradient id="linear-gradient-4" x1="0.541" y1="183.331" x2="1.54" y2="183.331" gradientUnits="objectBoundingBox"><stop offset="0" stop-color="#80bde8"></stop><stop offset="0.28" stop-color="#7eb4e1"></stop><stop offset="0.76" stop-color="#789ad0"></stop><stop offset="0.99" stop-color="#758bc5"></stop></linearGradient><linearGradient id="linear-gradient-5" x1="61.265" y1="446.663" x2="63" y2="447.265" gradientUnits="objectBoundingBox"><stop offset="0.01" stop-color="#758bc5"></stop><stop offset="0.08" stop-color="#7794cb"></stop><stop offset="0.28" stop-color="#7ca8d9"></stop><stop offset="0.48" stop-color="#7fb4e1"></stop><stop offset="0.68" stop-color="#80b8e4"></stop><stop offset="1" stop-color="#80b8e4"></stop></linearGradient><linearGradient id="linear-gradient-6" x1="-974.633" y1="624.388" x2="-973.615" y2="625.408" xlink:href="#linear-gradient-5"></linearGradient><radialGradient id="radial-gradient-3" cx="0.5" cy="-2.883" r="0.926" gradientTransform="matrix(0.413, 0, 0, -1, 0.709, -2.463)" gradientUnits="objectBoundingBox"><stop offset="0" stop-color="#80b8e4"></stop><stop offset="0.32" stop-color="#80b8e4"></stop><stop offset="0.52" stop-color="#7fb4e1"></stop><stop offset="0.72" stop-color="#7ca8d9"></stop><stop offset="0.92" stop-color="#7794cb"></stop><stop offset="0.99" stop-color="#758bc5"></stop></radialGradient><linearGradient id="linear-gradient-7" x1="0.163" y1="15.733" x2="1.163" y2="15.733" gradientUnits="objectBoundingBox"><stop offset="0.01" stop-color="#758bc5"></stop><stop offset="0.24" stop-color="#789ad0"></stop><stop offset="0.72" stop-color="#7eb4e1"></stop><stop offset="1" stop-color="#80bde8"></stop></linearGradient><linearGradient id="linear-gradient-8" x1="0.22" y1="22.618" x2="1.219" y2="22.618" gradientUnits="objectBoundingBox"><stop offset="0" stop-color="#7ca7d9"></stop><stop offset="0.99" stop-color="#7a9fd4"></stop></linearGradient><linearGradient id="linear-gradient-9" x1="0.173" y1="15.613" x2="1.173" y2="15.613" gradientUnits="objectBoundingBox"><stop offset="0" stop-color="#7a9ed3"></stop><stop offset="0.59" stop-color="#7eb4e2"></stop><stop offset="1" stop-color="#80bde8"></stop></linearGradient><linearGradient id="linear-gradient-10" x1="0.242" y1="15.723" x2="1.242" y2="15.723" xlink:href="#linear-gradient"></linearGradient></defs><g id="vergine" transform="translate(-779 -252)" clip-path="url(#clip-path)"><g id="vergine1-01" transform="translate(744.861 218.263)"><path id="Tracciato_833" data-name="Tracciato 833" d="M37.783,80.5s.742-27.693,20.9-34.8c0,0,11.319-3.337,19.75-2.888S92.1,33.958,92.1,33.958h3.318L74.981,63.779Z" fill="url(#linear-gradient)"></path><path id="Tracciato_834" data-name="Tracciato 834" d="M66,86.046l16.179,19.3-5.777,16.394-19.5-12.412,5.055-20.765Z" fill="url(#linear-gradient-2)"></path><path id="Tracciato_835" data-name="Tracciato 835" d="M76.249,99.122s3.9,18.853-2.44,21.721S90.652,124.4,90.652,124.4l3.1.234s1.952-23.419,1.952-25.371S76.249,99.122,76.249,99.122Z" fill="#80b8e4"></path><path id="Tracciato_836" data-name="Tracciato 836" d="M92.838,39.5,60.031,74.961a52.225,52.225,0,0,0,16.842,28.474s4.1,5,7.2,5.211,10.363-5.972,10.363-5.972l7.319-7.319s9.485-8.88,7.806-26.835S92.838,39.5,92.838,39.5Z" fill="#80b8e4"></path><path id="Tracciato_837" data-name="Tracciato 837" d="M86.4,65.476s-2.869,15.945-2.479,17.057c0,0,.234-7.533-9.094-5.757S86.4,65.476,86.4,65.476Z" opacity="0.35" fill="url(#linear-gradient-3)"></path><path id="Tracciato_838" data-name="Tracciato 838" d="M92.467,69.516a.39.39,0,0,1-.449-.273h0a.351.351,0,0,1,.1-.332,14.949,14.949,0,0,1,5.464-3.747,15.027,15.027,0,0,1,8.411-1.561,14.442,14.442,0,0,0-6.635,1.952,36.281,36.281,0,0,1-6.889,3.962Z" fill="url(#radial-gradient)"></path><ellipse id="Ellisse_1133" data-name="Ellisse 1133" cx="2.869" cy="2.557" rx="2.869" ry="2.557" transform="translate(95.277 71.195)" fill="url(#radial-gradient-2)"></ellipse><path id="Tracciato_839" data-name="Tracciato 839" d="M90.847,76.113A8.041,8.041,0,0,1,96.7,70.785a11.28,11.28,0,0,1,4.781.644s-.644-2.44-5.308-1.347c0,0,2.44-2.205,5.991.664a4.8,4.8,0,0,0,6.635-.429s-.839,5.757-5.972,6.421c-2.225.312-8.314-.546-8.977,0,0,0-.664-.449,1.327-.683s6.421,1.151,8.2-2.44c0,0,.9-.664-6.655-1.542C96.7,71.975,94.712,71.526,90.847,76.113Z" fill="url(#linear-gradient-4)"></path><ellipse id="Ellisse_1134" data-name="Ellisse 1134" cx="0.956" cy="1.62" rx="0.956" ry="1.62" transform="matrix(0.56, -0.829, 0.829, 0.56, 81.977, 89.396)" fill="url(#linear-gradient-5)"></ellipse><ellipse id="Ellisse_1135" data-name="Ellisse 1135" cx="1.62" cy="0.956" rx="1.62" ry="0.956" transform="matrix(0.829, -0.559, 0.559, 0.829, 84.79, 89.74)" fill="url(#linear-gradient-6)"></ellipse><path id="Tracciato_840" data-name="Tracciato 840" d="M76.327,93.677s-.449.9,2.205,1.444a21.8,21.8,0,0,0,14.852-.546s.215.176.215-.9" fill="none" stroke="#707070" stroke-miterlimit="10" stroke-width="1.151"></path><path id="Tracciato_841" data-name="Tracciato 841" d="M78.435,94.907a9.231,9.231,0,0,1,5.094-1.132,13.388,13.388,0,0,0,3.532,0s3.9,0,5.113,1.132c0,0-2.44,4.606-5.757,4.43a6.967,6.967,0,0,1-2.205,0C83.743,99.122,81.753,99.786,78.435,94.907Z" fill="url(#radial-gradient-3)"></path><path id="Tracciato_842" data-name="Tracciato 842" d="M91.94,33.958s1.347,9.524-13.954,17.564S43.618,68.092,39.422,75.176,25.449,108.353,51.835,124.4c0,0-8.2-19.945,7.084-30.367L71.331,67,91.94,45.531s3.767-7.806.9-11.514Z" fill="url(#linear-gradient-7)"></path><path id="Tracciato_843" data-name="Tracciato 843" d="M86.515,69.321s-20.16,16.862-21.936,20-12.451,25.82,18.169,29.43a13.115,13.115,0,0,1,9.758,5.972s-11.983.878-19.067,5.328-25.722-1.327-25.371-16.569S52.381,96.6,66.784,81.968,86.515,69.321,86.515,69.321Z" fill="url(#linear-gradient-8)"></path><path id="Tracciato_844" data-name="Tracciato 844" d="M92.057,34.095S97.815,41,87.178,48.049,56.6,66.764,55.7,67.779c-3.9,3.9-17.252,10.09-14.4,39.227.527,5.328,1.776,10.422,11.3,18.189,0,0-6.421-7.533-2.205-21.956,0,0,9.524-16.842,24.376-25.371s26.6-19.067,20.628-43.833Z" fill="url(#linear-gradient-9)"></path><path id="Tracciato_845" data-name="Tracciato 845" d="M95.277,33.958s-5.094,15.964,10.87,34.582c0,0,7.553,7.533-.664,18.833S88.232,108.1,93.5,124.454c0,0,1.542-12.178,10.636-14.618s22.717-9.368,27.049-22.678-7.533-25.371-7.533-25.371-2.44-4.879-13.661-10.207S95.277,33.958,95.277,33.958Z" fill="url(#linear-gradient-10)"></path></g></g></svg>