<svg xmlns="http://www.w3.org/2000/svg" id="XMLID_700_" width="28.901" height="28.901" viewBox="0 0 28.901 28.901"><g id="XMLID_684_"><g id="XMLID_685_"><path id="XMLID_699_" d="M452.564,153.129a.565.565,0,1,0-.4-.165A.568.568,0,0,0,452.564,153.129Z" transform="translate(-426.486 -143.42)" fill="#fff"></path><path id="XMLID_698_" d="M186.924,443.667h-.008a.564.564,0,1,0,0,1.129h.008a.564.564,0,1,0,0-1.129Z" transform="translate(-175.832 -418.624)" fill="#fff"></path><path id="XMLID_691_" d="M28.9,22.668V3.951a1.7,1.7,0,0,0-1.693-1.693H25.274V1.919a1.919,1.919,0,1,0-3.838,0v.339H16.362V1.919a1.919,1.919,0,0,0-3.838,0v.339H7.451V1.919a1.919,1.919,0,0,0-3.838,0v.339H1.693A1.7,1.7,0,0,0,0,3.951V27.207A1.7,1.7,0,0,0,1.693,28.9H22.668a.563.563,0,0,0,.4-.165h0l5.668-5.668h0A.563.563,0,0,0,28.9,22.668ZM22.564,1.919a.79.79,0,1,1,1.581,0V4.685a.79.79,0,1,1-1.581,0Zm-8.911,0a.79.79,0,1,1,1.581,0V4.685a.79.79,0,0,1-1.581,0V1.919Zm-8.911,0a.79.79,0,0,1,1.581,0V4.685a.79.79,0,0,1-1.581,0ZM1.129,27.207V26.172h7.7a.564.564,0,1,0,0-1.129h-7.7V9.709H23.82a.564.564,0,0,0,0-1.129H1.129V3.951a.565.565,0,0,1,.564-.564H3.613v1.3a1.919,1.919,0,0,0,3.838,0v-1.3h5.073v1.3a1.919,1.919,0,1,0,3.838,0v-1.3h5.073v1.3a1.919,1.919,0,1,0,3.838,0v-1.3h1.934a.565.565,0,0,1,.564.564V22.1H23.8A1.7,1.7,0,0,0,22.1,23.8v3.974H1.693A.565.565,0,0,1,1.129,27.207Zm22.1-.234V23.8a.565.565,0,0,1,.564-.564h3.176Z" fill="#fff"></path><path id="XMLID_690_" d="M127.37,267v-3.9a1.1,1.1,0,0,0-1.1-1.1h-2.445a.564.564,0,1,0,0,1.129h2.416v1.355h-2.416a.564.564,0,1,0,0,1.129h2.416v1.355h-2.416a.564.564,0,1,0,0,1.129h2.445A1.1,1.1,0,0,0,127.37,267Z" transform="translate(-116.303 -247.211)" fill="#fff"></path><path id="XMLID_687_" d="M223.6,263.129a.564.564,0,0,0,0-1.129H221.16a1.1,1.1,0,0,0-1.1,1.1V267a1.1,1.1,0,0,0,1.1,1.1h1.909a1.1,1.1,0,0,0,1.1-1.1v-1.413a1.1,1.1,0,0,0-1.1-1.1h-1.88v-1.355H223.6Zm-1.366,2.484h.8v1.355h-1.851v-1.355Z" transform="translate(-207.638 -247.211)" fill="#fff"></path><path id="XMLID_686_" d="M319.869,264.484h-1.88v-1.355H320.4a.564.564,0,1,0,0-1.129H317.96a1.1,1.1,0,0,0-1.1,1.1v1.413a1.1,1.1,0,0,0,1.1,1.1h1.88v1.355h-2.416a.564.564,0,1,0,0,1.129h2.445a1.1,1.1,0,0,0,1.1-1.1v-1.413A1.1,1.1,0,0,0,319.869,264.484Z" transform="translate(-298.974 -247.211)" fill="#fff"></path></g></g></svg>